<svg xmlns="http://www.w3.org/2000/svg" width="150" height="50" viewBox="0 0 1217.2 405"><circle fill="#5569A0" cx="202.9" cy="201.8" r="197.3"/><circle fill="#1E325A" cx="202.9" cy="201.8" r="138.1"/><circle fill="#F04650" cx="202.9" cy="201.8" r="79.5"/><path fill="currentColor" d="M534.6 208H493l-7.7 21.8h-25.2l40.5-107.6h27.8l40 107.6h-26.1l-7.7-21.8zm-33.7-21.9H527L514.1 149l-13.2 37.1zM580.1 229.8V122.3h23.1v107.6h-23.1zM621.2 229.8V122.3h23.1v107.6h-23.1zM767.5 230V122.4h24V207h46.4v23h-70.4zM870.9 186.4l17.7-2.7c4.1-.6 5.5-2.6 5.5-5.2 0-4.4-3.8-8.2-11.1-8.2-8 0-12.4 5.5-12.9 11.1l-20-4.1c.9-10.8 10.9-25 33.1-25 24.4 0 33.4 13.7 33.4 29.1V230h-20.7v-8.5c-3.9 6.4-11.2 10.6-21.2 10.6-16.5 0-26.1-10.9-26.1-22.9 0-13.4 9.9-21 22.3-22.8zm23.2 14V197l-14.3 2.3c-4.9.8-8.5 3-8.5 8.3 0 3.9 2.6 7.7 9 7.7 6.9.1 13.8-3.2 13.8-14.9zM933.8 230V122.1h22.6v39.6c3.2-4.7 11.5-9 21.8-9 21.8 0 35 16.7 35 39.3 0 23.1-14.9 39.6-36 39.6-10 0-17.7-4.4-21.2-10.2v8.5h-22.2zm39.4-56.5c-9 0-17.1 5.9-17.1 18.7 0 12.4 8.2 18.8 17.1 18.8 9 0 17-6.2 17-18.8 0-12.8-8-18.7-17-18.7zM1096.7 208.3c-3.6 13-15.6 24-34.7 24-20.8 0-39.3-14.9-39.3-40.2 0-24.3 18.1-39.7 37.6-39.7 23.4 0 37.8 14.4 37.8 38.7 0 3.2-.3 6.7-.5 7.1h-52.5c.5 8.5 8.2 14.6 17.1 14.6 8.3 0 13-3.9 15.2-9.9l19.3 5.4zm-20.9-25.1c-.3-5.8-4.2-12.7-15.2-12.7-9.7 0-14.6 7.1-15 12.7h30.2zM1112.9 230V122.1h23.1V230h-23.1zM1169.7 205.1c.3 5.2 3.9 10.2 11.8 10.2 5.9 0 8.8-3.2 8.8-6.5 0-2.7-1.8-5-7.4-6.2l-8.6-2c-16.1-3.5-22.5-12.6-22.5-23.2 0-13.8 12.1-25 29-25 21.8 0 29.4 13.7 30.2 22.5l-19.1 3.5c-.6-5-3.8-9.3-10.8-9.3-4.4 0-8.2 2.6-8.2 6.5 0 3.2 2.6 5 5.9 5.6l10 2c15.6 3.2 23.2 12.6 23.2 23.7 0 12.9-9.9 25.5-30 25.5-23.7 0-31.2-15.3-31.9-23.7l19.6-3.6zM733.3 186v-63.9h-28.2l-45.3 60.8V208h51v22h22.6v-21.9h17.8V186h-17.9zm-49.6 0l27.1-36.3V186h-27.1z"/><g><path fill="currentColor" d="M469.2 270h7v4.1c-1.8 1.4-3.4 1.9-5.7 1.9-6.6 0-8.9-4.5-8.9-8.6 0-5.6 3.7-9.6 8.9-9.6 2.4 0 4.9 1 6.6 2.6l.3.3 3.8-3.9-.3-.3c-2.8-2.8-6.5-4.3-10.4-4.3-10.3 0-14.9 7.6-14.9 15.2 0 6.9 3.9 14.4 14.9 14.4 4.6 0 8.2-1.7 11.2-5.1l.1-.1v-12.1h-12.6v5.5zM501.2 253h-6.1v28.2h20.1v-5.7h-14M540.4 252.5c-9.9 0-14.5 7.7-14.5 14.8 0 7.2 4.5 14.5 14.5 14.5 9.9 0 14.4-7.3 14.4-14.5 0-4.1-1.5-8.1-4.1-10.8-2.6-2.6-6.1-4-10.3-4zm0 5.6c2.4 0 4.4.8 5.9 2.3 1.6 1.7 2.6 4.2 2.5 7-.1 4.3-2.3 8.8-8.4 8.8-6.1 0-8.4-4.5-8.5-8.8-.1-2.7.8-5.3 2.5-7 1.6-1.5 3.6-2.3 6-2.3zM588 266.6c1.9-1.2 2.9-3 2.9-5.2 0-5.3-3.6-8.4-9.8-8.4h-13.4v28.2H581c7 0 10.7-2.9 10.7-8.5 0-1.9-1.2-4.8-3.7-6.1zm-7-2.6h-7.4v-5.3h7.4c3 0 3.8 1.9 3.8 2.9 0 1.9-2 2.4-3.8 2.4zm-7.4 5.4h7.4c1.9 0 4.6 1.2 4.6 3.3 0 2.7-3.8 2.8-4.6 2.8h-7.4v-6.1zM614 253l-12.6 28.2h6.6l2.3-5.1h13.6l2.3 5.1h6.6L620.2 253H614zm7.5 17.3h-8.7l4.3-9.9 4.4 9.9zM650.6 253h-6.1v28.2h20v-5.7h-13.9M708.6 253h-13.3v28.2h6.1v-8h7.2c3.2 0 5.9-1.1 7.8-3.2 1.7-1.8 2.6-4.3 2.6-6.9 0-4.9-3.2-10.1-10.4-10.1zm3.3 13.2c-.8.9-2 1.3-3.3 1.3h-7.2v-8.7h7.2c3 0 4.4 2.3 4.4 4.4 0 1.2-.4 2.2-1.1 3zM741.2 253l-12.6 28.2h6.6l2.3-5.1h13.6l2.3 5.1h6.6L747.4 253h-6.2zm7.5 17.3H740l4.3-9.9 4.4 9.9zM790.3 273.4c-1.6 1.6-4.1 2.6-6.5 2.6-6.5 0-8.9-4.5-8.9-8.7 0-2.5.9-4.9 2.5-6.6 1.6-1.6 3.7-2.4 6.4-2.4 2.4 0 4.6.9 6.2 2.4l.3.3 4.1-4-.3-.3c-2.8-2.8-6.4-4.3-10.3-4.3-4.4 0-8.1 1.4-10.7 4.1-2.7 2.7-4.2 6.6-4.2 10.7 0 6.7 4 14.5 14.9 14.5 4.2 0 7.9-1.4 10.7-4.2l.3-.3-4.2-4.2-.3.4zM830.2 253.1l-7.8-.1-9.7 10.8V253h-6v28.2h6v-11.3l10.8 11.3h7.9l-13.9-14.5M851.8 253l-12.6 28.2h6.6l2.3-5.1h13.6l2.3 5.1h6.6L858 253h-6.2zm7.4 17.3h-8.7l4.3-9.9 4.4 9.9zM893.1 270h7v4.1c-1.8 1.4-3.4 1.9-5.7 1.9-6.6 0-8.9-4.5-8.9-8.6 0-5.6 3.7-9.6 8.9-9.6 2.4 0 5 1 6.6 2.6l.3.3 3.8-3.9-.3-.3c-2.8-2.8-6.5-4.3-10.4-4.3-10.3 0-14.9 7.6-14.9 15.2 0 6.9 3.9 14.4 14.9 14.4 4.6 0 8.2-1.7 11.2-5.1l.1-.1v-12.1h-12.6v5.5zM919.1 253h6v28.2h-6zM957 269l-12.6-16h-4.9v28.2h6.1v-17.4l13.6 17.4h3.9V253H957M989.4 270h7v4.1c-1.8 1.4-3.4 1.9-5.7 1.9-6.6 0-8.9-4.5-8.9-8.6 0-5.6 3.7-9.6 8.9-9.6 2.4 0 5 1 6.6 2.6l.3.3 3.8-3.9-.3-.3c-2.8-2.8-6.5-4.3-10.4-4.3-10.3 0-14.9 7.6-14.9 15.2 0 6.9 3.9 14.4 14.9 14.4 4.6 0 8.2-1.7 11.2-5.1l.1-.1v-12.1h-12.6v5.5zM1045.8 270h7v4.1c-1.8 1.4-3.4 1.9-5.7 1.9-6.6 0-8.9-4.5-8.9-8.6 0-5.6 3.7-9.6 8.9-9.6 2.4 0 4.9 1 6.6 2.6l.3.3 3.8-3.9-.3-.3c-2.8-2.8-6.5-4.3-10.4-4.3-10.3 0-14.9 7.6-14.9 15.2 0 6.9 3.9 14.4 14.9 14.4 4.6 0 8.2-1.7 11.2-5.1l.1-.1v-12.1h-12.6v5.5zM1095.1 262.5c0-4.5-3.2-9.5-10.3-9.5h-13.5v28.2h6.1v-9.1h4.2l6.1 9.1h7.7l-6.9-9.8c4.3-1.2 6.6-4.3 6.6-8.9zm-6.1.2c0 1.8-1.1 3.9-4.2 3.9h-7.3v-7.8h7.3c3.1 0 4.2 2.1 4.2 3.9zM1121 252.5c-9.9 0-14.5 7.7-14.5 14.8 0 7.2 4.5 14.5 14.5 14.5 9.9 0 14.4-7.3 14.4-14.5 0-4.1-1.5-8.1-4.1-10.8-2.6-2.6-6.2-4-10.3-4zm0 5.6c2.4 0 4.4.8 5.9 2.3 1.6 1.7 2.6 4.2 2.5 7-.1 4.3-2.3 8.8-8.4 8.8-6.1 0-8.4-4.5-8.5-8.8-.1-2.7.8-5.3 2.5-7 1.5-1.5 3.5-2.3 6-2.3zM1167.1 269.1c0 4.5-2.3 7-6.2 7-4.2 0-6.6-2.6-6.6-7V253h-6v16.1c0 7.7 4.9 12.6 12.6 12.6 7.6 0 12.3-4.8 12.3-12.6V253h-6v16.1zM1200.6 253h-13.3v28.2h6.1v-8h7.2c3.2 0 5.9-1.1 7.8-3.2 1.7-1.8 2.6-4.3 2.6-6.9.1-4.9-3.2-10.1-10.4-10.1zm-7.2 5.9h7.2c3.1 0 4.4 2.3 4.4 4.4 0 1.1-.4 2.2-1.1 3-.8.9-2 1.3-3.3 1.3h-7.2v-8.7z"/></g></svg>