<?xml version="1.0" encoding="UTF-8" standalone="no"?>
<!-- Generator: Adobe Illustrator 26.0.2, SVG Export Plug-In . SVG Version: 6.00 Build 0)  -->

<svg
   version="1.1"
   id="Capa_1"
   x="0px"
   y="0px"
   viewBox="0 0 465.69104 318.99774"
   xml:space="preserve"
   sodipodi:docname="arcor.svg"
   width="465.69104"
   height="318.99774"
   inkscape:version="1.4 (86a8ad7, 2024-10-11)"
   xmlns:inkscape="http://www.inkscape.org/namespaces/inkscape"
   xmlns:sodipodi="http://sodipodi.sourceforge.net/DTD/sodipodi-0.dtd"
   xmlns:xlink="http://www.w3.org/1999/xlink"
   xmlns="http://www.w3.org/2000/svg"
   xmlns:svg="http://www.w3.org/2000/svg"><defs
   id="defs43" /><sodipodi:namedview
   id="namedview43"
   pagecolor="#ffffff"
   bordercolor="#000000"
   borderopacity="0.25"
   inkscape:showpageshadow="2"
   inkscape:pageopacity="0.0"
   inkscape:pagecheckerboard="0"
   inkscape:deskcolor="#d1d1d1"
   inkscape:zoom="1.67"
   inkscape:cx="232.63473"
   inkscape:cy="159.58084"
   inkscape:window-width="1920"
   inkscape:window-height="1009"
   inkscape:window-x="-8"
   inkscape:window-y="-8"
   inkscape:window-maximized="1"
   inkscape:current-layer="Capa_1" />
<style
   type="text/css"
   id="style1">
	.st0{fill:url(#XMLID_00000103954503274752773290000017474154514518893244_);}
	.st1{filter:url(#Adobe_OpacityMaskFilter);}
	.st2{fill:url(#XMLID_00000103226640891274346920000013969320288040046002_);}
	.st3{mask:url(#XMLID_00000157268662702938674000000010535813434868806053_);fill:#A7DBF7;}
	.st4{filter:url(#Adobe_OpacityMaskFilter_00000178188046259125314520000010639423597444016058_);}
	.st5{fill:url(#XMLID_00000026843977556029403500000001620152802895299773_);}
	.st6{mask:url(#XMLID_00000052085347064430523030000005606228759790358186_);fill:#A7DBF7;}
	.st7{opacity:0.39;}
	.st8{fill:#004D95;}
	.st9{fill:#FFFFFF;}
	.st10{fill:url(#XMLID_00000173119010645873147780000011124550243201821101_);}
	.st11{fill:url(#XMLID_00000124141388095858986180000015705183136847279238_);}
	.st12{fill:url(#XMLID_00000043437729091793362900000002056436978019260315_);}
	.st13{fill:url(#XMLID_00000063626095800042866970000002352914448257163402_);}
	.st14{fill:url(#XMLID_00000023246395841314404320000006707116545238040253_);}
	.st15{fill:url(#XMLID_00000158014258851415994660000003182771207366616194_);}
	.st16{fill:url(#XMLID_00000151507797601058495680000017102297878260908949_);}
	.st17{fill:url(#XMLID_00000065061834260990878200000012888854646267166906_);}
	.st18{fill:url(#XMLID_00000052813360797709751130000009953790164450401950_);}
	.st19{fill:url(#XMLID_00000105400606100986157930000014044428190566238615_);}
	.st20{fill:url(#XMLID_00000118374629426925646590000005566049571429587857_);}
	.st21{fill:url(#XMLID_00000043456722209073290140000008191395733832181136_);}
	.st22{fill:url(#XMLID_00000139251943264824892440000010480677342353658295_);}
	.st23{fill:url(#XMLID_00000106865537553774011320000009396091997212610195_);}
	.st24{opacity:0.4;}
	.st25{fill:url(#XMLID_00000034791298219324674660000008284547870007467687_);}
	.st26{fill:#C99D66;}
	.st27{filter:url(#Adobe_OpacityMaskFilter_00000086653361960069310650000012546265224543656616_);}
	.st28{fill:url(#XMLID_00000074435782880102451110000004557447157928778161_);}
	.st29{mask:url(#XMLID_00000005228574710150706330000008472523012325801619_);fill:#FFF0DB;}
	.st30{opacity:0.8;}
	.st31{fill:#FFFFFF;stroke:#FFFFFF;stroke-width:0.2892;stroke-miterlimit:10;}
</style>
<g
   id="g43"
   transform="translate(-23.156101,-11.500473)">
	<g
   id="XMLID_261_">
		<g
   id="XMLID_262_">
			<g
   id="XMLID_270_">
				<g
   id="XMLID_323_">
					<g
   id="XMLID_324_">
						<g
   id="XMLID_328_">
							<g
   id="XMLID_329_">
								<g
   id="XMLID_335_">
									<g
   id="XMLID_336_">
										<g
   id="XMLID_352_">
											<g
   id="XMLID_353_">
												
													<radialGradient
   id="XMLID_00000030467302966817694420000014335315103172463513_"
   cx="254.576"
   cy="171"
   r="275.97189"
   gradientTransform="matrix(1,0,0,0.6277,0,63.6664)"
   gradientUnits="userSpaceOnUse">
													<stop
   offset="0"
   style="stop-color:#0078AF"
   id="stop1" />
													<stop
   offset="0.5897"
   style="stop-color:#0052A0"
   id="stop2" />
												</radialGradient>
												<path
   id="XMLID_366_"
   style="fill:url(#XMLID_00000030467302966817694420000014335315103172463513_)"
   d="M 286.41,327.95 C 412.81,312.36 501.49,229.28 483.74,142.62 465.99,55.92 348.55,-1.56 222.15,14.06 95.78,29.64 7.68,112.55 25.43,199.23 43.17,285.91 160.01,343.55 286.41,327.95 Z" />
												<g
   id="XMLID_364_">
													<defs
   id="defs2">
														<path
   id="XMLID_365_"
   d="M 286.34,321.29 C 408.54,306.22 493.71,227.75 476.55,143.97 459.39,60.14 346.42,4.42 224.21,19.52 102.03,34.58 16.86,114.75 34.02,198.55 51.17,282.36 164.13,336.36 286.34,321.29 Z" />
													</defs>
													<clipPath
   id="XMLID_00000028282935953627035530000007175232722803682223_">
														<use
   xlink:href="#XMLID_365_"
   style="overflow:visible"
   id="use2" />
													</clipPath>
												</g>
												<defs
   id="defs3">
													
														<filter
   id="Adobe_OpacityMaskFilter"
   filterUnits="userSpaceOnUse"
   x="31.860001"
   y="17.450001"
   width="446.60001"
   height="306.44">
														<feColorMatrix
   type="matrix"
   values="1 0 0 0 0  0 1 0 0 0  0 0 1 0 0  0 0 0 1 0"
   id="feColorMatrix2" />
													</filter>
												</defs>
												
													<mask
   maskUnits="userSpaceOnUse"
   x="31.86"
   y="17.45"
   width="446.6"
   height="306.44"
   id="XMLID_00000109022789302630092070000015843568691316758706_">
													<g
   id="XMLID_00000152256540342426665480000001187489034085759149_"
   class="st1">
														
															<linearGradient
   id="XMLID_00000124862947751001186820000001817439050880984229_"
   gradientUnits="userSpaceOnUse"
   x1="238.0981"
   y1="40.8517"
   x2="178.45"
   y2="-110.096"
   gradientTransform="matrix(0.9858,0.1982,-0.1993,0.9802,24.6149,48.5196)">
															<stop
   offset="0.15"
   style="stop-color:#1D1D1B"
   id="stop3" />
															<stop
   offset="1"
   style="stop-color:#FFFFFF"
   id="stop4" />
														</linearGradient>
														
															<polygon
   id="XMLID_00000135672795330272075850000003588981575953328058_"
   style="fill:url(#XMLID_00000124862947751001186820000001817439050880984229_)"
   points="36.12,-82.98 565.37,23.41 481.17,437.47 -48.07,331.1 " />
													</g>
												</mask>
												<path
   id="XMLID_359_"
   style="fill:#a7dbf7"
   d="M 286.18,321.44 C 408.3,306.46 493.43,226.82 476.26,143.54 459.13,60.3 346.23,4.91 224.12,19.9 102.01,34.9 16.9,114.51 34.06,197.8 51.19,281.07 164.09,336.44 286.18,321.44 Z"
   mask="url(#XMLID_00000109022789302630092070000015843568691316758706_)" />
												<defs
   id="defs4">
													
														<filter
   id="Adobe_OpacityMaskFilter_00000024718176299253427870000015072603959166025136_"
   filterUnits="userSpaceOnUse"
   x="28.530001"
   y="17.450001"
   width="451.59"
   height="306.44">
														<feColorMatrix
   type="matrix"
   values="1 0 0 0 0  0 1 0 0 0  0 0 1 0 0  0 0 0 1 0"
   id="feColorMatrix4" />
													</filter>
												</defs>
												
													<mask
   maskUnits="userSpaceOnUse"
   x="28.53"
   y="17.45"
   width="451.59"
   height="306.44"
   id="XMLID_00000119106155287488581920000008158733250876353718_">
													
														<g
   id="XMLID_00000017514621784276910520000002979592282099678638_"
   style="filter:url(#Adobe_OpacityMaskFilter_00000024718176299253427870000015072603959166025136_)">
														
															<linearGradient
   id="XMLID_00000167368182131977955400000006091277829028453260_"
   gradientUnits="userSpaceOnUse"
   x1="-7818.3101"
   y1="1110.9384"
   x2="-7877.957"
   y2="959.9928"
   gradientTransform="matrix(-0.9968,-0.1982,0.2016,-0.9802,-7758.9204,-238.452)">
															<stop
   offset="0.15"
   style="stop-color:#1D1D1B"
   id="stop5" />
															<stop
   offset="0.2297"
   style="stop-color:#282826"
   id="stop6" />
															<stop
   offset="0.3691"
   style="stop-color:#444443"
   id="stop7" />
															<stop
   offset="0.5517"
   style="stop-color:#737372"
   id="stop8" />
															<stop
   offset="0.7705"
   style="stop-color:#B4B4B3"
   id="stop9" />
															<stop
   offset="1"
   style="stop-color:#FFFFFF"
   id="stop10" />
														</linearGradient>
														
															<polygon
   id="XMLID_00000077307516150219407330000013776686306461222547_"
   style="fill:url(#XMLID_00000167368182131977955400000006091277829028453260_)"
   points="475.8,440.92 -59.35,334.55 25.79,-79.51 560.95,26.84 " />
													</g>
												</mask>
												<path
   id="XMLID_354_"
   style="fill:#a7dbf7"
   d="M 222.97,19.9 C 99.49,34.89 13.4,114.53 30.76,197.8 48.07,281.05 162.24,336.43 285.71,321.44 409.19,306.43 495.25,226.82 477.9,143.54 460.58,60.27 346.42,4.91 222.97,19.9 Z"
   mask="url(#XMLID_00000119106155287488581920000008158733250876353718_)" />
											</g>
										</g>
									</g>
								</g>
							</g>
						</g>
					</g>
				</g>
				<g
   id="XMLID_278_">
					<g
   id="XMLID_311_"
   class="st7">
						<path
   id="XMLID_320_"
   class="st8"
   d="m 351.8,145.85 c -24.22,0.05 -44.44,17.55 -48.55,41.27 -4.1,23.73 8.54,41.45 36.62,41.36 36.75,-0.1 47.92,-31.24 49.66,-41.22 3.5,-20.12 -4.76,-41.51 -37.73,-41.41 z m 17.85,41.48 c -1.56,8.27 -9.06,31.13 -29.49,30.84 -16.31,-0.26 -20,-16.28 -17.14,-31.14 2.27,-11.97 11.57,-31.07 28.85,-30.83 18.11,0.26 20.47,17.15 17.78,31.13 z" />
						<path
   id="XMLID_319_"
   class="st8"
   d="m 139.49,210.37 c 1.7,5.54 -29.7,-92.85 -29.7,-92.85 -9.02,0 -15.9,11.34 -19.1,15.97 l -53.21,89.07 1.25,1.76 9.29,-0.04 47.3,-80.46 20.3,67.45 c 6.19,16.14 17.25,17.02 22,16.59 3.14,0 9.06,-3.58 9.24,-9.13 -5.02,-2.59 -7.37,-8.36 -7.37,-8.36 z" />
						<path
   id="XMLID_318_"
   class="st8"
   d="m 308.11,157.35 c 0,-3.14 -1.49,-4.74 -2.65,-5.51 -0.22,-0.13 -0.44,-0.26 -0.67,-0.39 -0.41,-0.2 -0.69,-0.27 -0.69,-0.27 l 0.11,-0.06 c -7.05,-3.91 -14.68,-5.55 -22.05,-5.53 -29.06,0.06 -48.41,21.08 -51.81,40.82 -2.69,15.37 2.05,39.93 40.69,40.96 8.2,0.22 15.59,-1.09 20.89,-2.37 1.93,-0.78 5.4,-3.03 6.1,-9.25 0.03,-1.44 -0.98,-1.71 -1.94,-1.65 -4.55,1.47 -11.01,3.12 -19.82,3.12 -15.67,0.06 -26.33,-12.26 -22.97,-31.63 2.01,-11.56 8.6,-30.97 30.29,-31.07 5.56,0 10.78,1.55 15.58,3.99 v -0.03 c 0.01,0.02 6.87,3.62 8.94,-1.13 z" />
						<path
   id="XMLID_315_"
   class="st8"
   d="m 198.99,146.71 -8.82,0.02 c -1.07,0.08 -2.3,0.11 -3.71,0.11 -18.16,0 -22.72,9.24 -23.83,13.02 l -9.49,54.79 c -1.1,12.56 8.29,12.06 8.29,12.06 l -0.04,0.04 11.04,-0.03 5.81,-33.32 c 1.87,-0.01 6.66,2.26 9.12,7.74 l 4.95,15.19 c 4.48,10.16 9.73,11.22 20.58,11.18 0.62,0 1.28,-0.01 1.96,-0.04 3.02,-0.3 8.94,-1.69 8.95,-7.9 -0.11,-0.02 -11.04,-4.08 -18,-28.21 6.92,-2 20.83,-7.74 23.29,-21.83 2.76,-15.88 -13.22,-22.87 -30.1,-22.82 z m 9.56,22.16 c -1.03,6.05 -5.27,16.2 -21.68,16.23 l -7.24,0.02 5.17,-29.39 7.54,-0.02 c 11.88,-0.03 17.66,4.79 16.21,13.16 z" />
						<path
   id="XMLID_312_"
   class="st8"
   d="m 465.61,169.53 c 2.73,-15.88 -13.24,-22.87 -30.12,-22.82 l -8.82,0.02 c -1.07,0.08 -2.3,0.11 -3.72,0.11 -18.16,0 -22.72,9.24 -23.82,13.02 l -9.49,54.79 c -1.11,12.56 8.29,12.06 8.29,12.06 l -0.04,0.04 11.04,-0.03 5.81,-33.32 c 1.87,-0.01 6.66,2.26 9.12,7.74 l 4.95,15.19 c 4.47,10.16 9.73,11.22 20.58,11.18 0.62,0 1.28,-0.01 1.97,-0.04 3.02,-0.3 8.95,-1.69 8.95,-7.9 -0.11,-0.02 -11.04,-4.08 -17.99,-28.21 6.92,-2 20.82,-7.73 23.29,-21.83 z m -20.55,-0.66 c -1.04,6.05 -5.27,16.2 -21.68,16.23 l -7.25,0.02 5.17,-29.39 7.54,-0.02 c 11.89,-0.03 17.66,4.79 16.22,13.16 z" />
					</g>
					<g
   id="XMLID_299_">
						<path
   id="XMLID_308_"
   class="st9"
   d="m 353.95,141.54 c -24.22,0.05 -44.44,17.55 -48.55,41.26 -4.1,23.74 8.54,41.45 36.61,41.37 36.75,-0.11 47.92,-31.25 49.66,-41.22 3.52,-20.12 -4.74,-41.51 -37.72,-41.41 z m 17.85,41.48 c -1.56,8.28 -9.05,31.13 -29.49,30.84 -16.31,-0.26 -20,-16.28 -17.14,-31.15 2.27,-11.96 11.57,-31.06 28.85,-30.82 18.11,0.26 20.48,17.16 17.78,31.13 z" />
						<path
   id="XMLID_307_"
   class="st9"
   d="m 141.65,206.06 c 1.7,5.54 -29.7,-92.85 -29.7,-92.85 -9.01,0 -15.9,11.34 -19.1,15.97 l -55.35,92.25 11.6,-0.02 48.37,-81.9 20.31,67.45 c 6.18,16.14 17.25,17.02 22,16.59 3.14,0 9.06,-3.58 9.24,-9.14 -5.02,-2.58 -7.37,-8.35 -7.37,-8.35 z" />
						<path
   id="XMLID_306_"
   class="st9"
   d="m 310.26,153.04 c 0.79,-3.63 -3.89,-6.22 -3.89,-6.22 -7.05,-3.91 -14.68,-5.55 -22.05,-5.53 -29.06,0.06 -48.41,21.08 -51.81,40.82 -2.69,15.37 2.05,39.93 40.7,40.96 8.2,0.22 15.59,-1.09 20.89,-2.36 1.93,-0.77 5.39,-3.03 6.1,-9.25 0.03,-1.44 -0.98,-1.71 -1.95,-1.65 -4.54,1.47 -11.01,3.12 -19.81,3.12 -15.67,0.05 -26.33,-12.26 -22.97,-31.63 2.01,-11.56 8.6,-30.97 30.29,-31.07 5.56,0 10.79,1.55 15.59,3.99 v -0.03 c -0.01,0 6.85,3.6 8.91,-1.15 z" />
						<path
   id="XMLID_303_"
   class="st9"
   d="m 201.15,142.41 -8.82,0.02 c -1.08,0.07 -2.3,0.12 -3.72,0.12 -18.16,0 -22.72,9.23 -23.83,13.01 l -9.49,54.79 c -1.11,12.56 8.25,12.09 8.25,12.09 l 11.04,-0.02 5.81,-33.33 c 1.87,0 6.65,2.28 9.11,7.75 l 4.95,15.19 c 4.47,10.16 9.73,11.22 20.59,11.19 0.61,-0.01 1.28,-0.02 1.97,-0.04 3.02,-0.3 8.94,-1.69 8.95,-7.9 -0.11,-0.02 -11.04,-4.08 -17.99,-28.22 6.92,-2 20.82,-7.74 23.29,-21.83 2.74,-15.89 -13.23,-22.87 -30.11,-22.82 z m 9.56,22.15 c -1.04,6.05 -5.27,16.2 -21.68,16.23 l -7.24,0.02 5.17,-29.4 7.54,-0.02 c 11.88,-0.02 17.66,4.8 16.21,13.17 z" />
						<path
   id="XMLID_300_"
   class="st9"
   d="m 467.77,165.22 c 2.74,-15.88 -13.23,-22.87 -30.11,-22.82 l -8.82,0.02 c -1.07,0.07 -2.3,0.12 -3.71,0.12 -18.17,0 -22.72,9.23 -23.83,13.01 l -9.49,54.79 c -1.11,12.56 8.29,12.05 8.29,12.05 l -0.04,0.04 11.04,-0.02 5.81,-33.33 c 1.87,0 6.66,2.28 9.12,7.75 l 4.95,15.19 c 4.47,10.16 9.73,11.22 20.59,11.19 0.61,-0.01 1.27,-0.02 1.96,-0.04 3.01,-0.3 8.94,-1.69 8.95,-7.9 -0.1,-0.02 -11.04,-4.08 -17.99,-28.22 6.9,-2 20.81,-7.73 23.28,-21.83 z m -20.56,-0.66 c -1.03,6.05 -5.27,16.2 -21.68,16.23 l -7.24,0.02 5.17,-29.4 7.54,-0.02 c 11.88,-0.02 17.66,4.8 16.21,13.17 z" />
					</g>
					<g
   id="XMLID_279_">
						<g
   id="XMLID_296_">
							
								<linearGradient
   id="XMLID_00000029014496681152031820000014345732489700718995_"
   gradientUnits="userSpaceOnUse"
   x1="356.0195"
   y1="216.94769"
   x2="356.0195"
   y2="202.11301">
								<stop
   offset="0"
   style="stop-color:#9C9B9B"
   id="stop11" />
								<stop
   offset="1"
   style="stop-color:#D9D9D9"
   id="stop12" />
							</linearGradient>
							<path
   id="XMLID_298_"
   style="fill:url(#XMLID_00000029014496681152031820000014345732489700718995_)"
   d="m 360.84,205.55 c 7.96,-7.34 11.49,-18.88 12.51,-24.26 2.7,-13.98 0.33,-30.86 -17.78,-31.13 -7.37,-0.1 -13.28,3.31 -17.81,8.18 4.29,-3.94 9.63,-6.56 16.1,-6.47 18.11,0.27 20.48,17.16 17.78,31.13 -0.94,4.98 -4.03,15.23 -10.8,22.55 z" />
							
								<linearGradient
   id="XMLID_00000016037092991761752540000007853363400109269407_"
   gradientUnits="userSpaceOnUse"
   x1="341.43781"
   y1="217.09309"
   x2="341.43781"
   y2="202.2579">
								<stop
   offset="0"
   style="stop-color:#9C9B9B"
   id="stop13" />
								<stop
   offset="1"
   style="stop-color:#D9D9D9"
   id="stop14" />
							</linearGradient>
							<path
   id="XMLID_297_"
   style="fill:url(#XMLID_00000016037092991761752540000007853363400109269407_)"
   d="m 343.86,222.59 c -28.08,0.08 -40.72,-17.63 -36.62,-41.37 1.75,-10.09 6.43,-19.05 13.08,-26.02 -7.56,7.19 -12.89,16.8 -14.79,27.74 -4.1,23.74 8.54,41.45 36.62,41.37 16.84,-0.05 28.3,-6.62 35.95,-14.68 -7.61,7.24 -18.61,12.91 -34.24,12.96 z" />
						</g>
						<g
   id="XMLID_293_">
							
								<linearGradient
   id="XMLID_00000104693795712562903170000015825785227119373198_"
   gradientUnits="userSpaceOnUse"
   x1="69.564697"
   y1="216.99741"
   x2="69.564697"
   y2="202.16251">
								<stop
   offset="0"
   style="stop-color:#9C9B9B"
   id="stop15" />
								<stop
   offset="1"
   style="stop-color:#D9D9D9"
   id="stop16" />
							</linearGradient>
							<path
   id="XMLID_295_"
   style="fill:url(#XMLID_00000104693795712562903170000015825785227119373198_)"
   d="m 39.2,219.74 55.34,-92.25 c 1.55,-2.25 3.98,-6.08 7.1,-9.43 -3.95,3.66 -6.98,8.5 -8.81,11.14 l -55.35,92.25 11.61,-0.02 1.01,-1.71 z" />
							
								<linearGradient
   id="XMLID_00000103264445287149539890000010585118997249658547_"
   gradientUnits="userSpaceOnUse"
   x1="122.2242"
   y1="217.0273"
   x2="122.2242"
   y2="202.0419">
								<stop
   offset="0"
   style="stop-color:#9C9B9B"
   id="stop17" />
								<stop
   offset="1"
   style="stop-color:#D9D9D9"
   id="stop18" />
							</linearGradient>
							<path
   id="XMLID_294_"
   style="fill:url(#XMLID_00000103264445287149539890000010585118997249658547_)"
   d="m 141.47,221.96 c -4.74,0.43 -15.82,-0.45 -22,-16.58 l -20.57,-68.33 -1.47,2.5 20.34,67.53 c 6.18,16.14 17.25,17.02 22,16.59 2.03,0 5.21,-1.5 7.26,-4.06 -1.87,1.5 -4.04,2.35 -5.56,2.35 z" />
						</g>
						<g
   id="XMLID_290_">
							
								<linearGradient
   id="XMLID_00000139291023395347366460000014729368317514418873_"
   gradientUnits="userSpaceOnUse"
   x1="264.83881"
   y1="216.9493"
   x2="264.83881"
   y2="202.1145">
								<stop
   offset="0"
   style="stop-color:#9C9B9B"
   id="stop19" />
								<stop
   offset="1"
   style="stop-color:#D9D9D9"
   id="stop20" />
							</linearGradient>
							<path
   id="XMLID_292_"
   style="fill:url(#XMLID_00000139291023395347366460000014729368317514418873_)"
   d="m 295.79,218.97 c -5.3,1.28 -12.7,2.58 -20.9,2.37 -38.64,-1.04 -43.38,-25.6 -40.69,-40.96 1.46,-8.51 5.9,-17.25 12.79,-24.45 -7.87,7.5 -12.92,16.97 -14.5,26.16 -2.69,15.37 2.05,39.93 40.69,40.97 8.2,0.21 15.6,-1.09 20.89,-2.37 1.03,-0.41 2.48,-1.24 3.73,-2.87 -0.73,0.55 -1.44,0.92 -2.01,1.15 z" />
							
								<linearGradient
   id="XMLID_00000155134811402264974840000003770082958614945676_"
   gradientUnits="userSpaceOnUse"
   x1="288.61331"
   y1="216.9404"
   x2="288.61331"
   y2="202.10741">
								<stop
   offset="0"
   style="stop-color:#9C9B9B"
   id="stop21" />
								<stop
   offset="1"
   style="stop-color:#D9D9D9"
   id="stop22" />
							</linearGradient>
							<path
   id="XMLID_291_"
   style="fill:url(#XMLID_00000155134811402264974840000003770082958614945676_)"
   d="m 303.03,152.46 v 0.03 c -4.8,-2.45 -10.02,-3.99 -15.59,-3.99 -9.24,0.04 -15.73,3.59 -20.31,8.55 4.45,-4.04 10.46,-6.8 18.6,-6.84 5.56,0 10.78,1.55 15.58,4 v -0.03 c 0,0 6.54,3.42 8.77,-0.87 -2.81,1.36 -7.05,-0.85 -7.05,-0.85 z" />
						</g>
						<g
   id="XMLID_285_">
							
								<linearGradient
   id="XMLID_00000122687228958152282930000015187650260129268376_"
   gradientUnits="userSpaceOnUse"
   x1="216.7773"
   y1="216.9854"
   x2="216.7773"
   y2="202.15559">
								<stop
   offset="0"
   style="stop-color:#9C9B9B"
   id="stop23" />
								<stop
   offset="1"
   style="stop-color:#D9D9D9"
   id="stop24" />
							</linearGradient>
							<path
   id="XMLID_289_"
   style="fill:url(#XMLID_00000122687228958152282930000015187650260129268376_)"
   d="m 225.48,176.97 c -5.16,4.74 -13.33,7.87 -17.41,9.05 0.1,0.37 0.21,0.71 0.32,1.08 4.56,-1.55 12.48,-5.08 17.09,-10.13 z" />
							
								<linearGradient
   id="XMLID_00000136369082008445353780000018163019008165335708_"
   gradientUnits="userSpaceOnUse"
   x1="199.9057"
   y1="216.998"
   x2="199.9057"
   y2="202.1626">
								<stop
   offset="0"
   style="stop-color:#9C9B9B"
   id="stop25" />
								<stop
   offset="1"
   style="stop-color:#D9D9D9"
   id="stop26" />
							</linearGradient>
							<path
   id="XMLID_288_"
   style="fill:url(#XMLID_00000136369082008445353780000018163019008165335708_)"
   d="m 206.4,174.16 c 3.96,-3.44 5.49,-7.97 6.06,-11.28 1.45,-8.37 -4.33,-13.19 -16.22,-13.18 l -8.79,0.02 -0.3,1.71 7.39,-0.02 c 11.88,-0.02 17.66,4.8 16.21,13.17 -0.49,2.79 -1.64,6.44 -4.35,9.58 z" />
							
								<linearGradient
   id="XMLID_00000005235576952152026800000014121232913942298763_"
   gradientUnits="userSpaceOnUse"
   x1="165.0753"
   y1="216.9953"
   x2="165.0753"
   y2="202.1606">
								<stop
   offset="0"
   style="stop-color:#9C9B9B"
   id="stop27" />
								<stop
   offset="1"
   style="stop-color:#D9D9D9"
   id="stop28" />
							</linearGradient>
							<path
   id="XMLID_287_"
   style="fill:url(#XMLID_00000005235576952152026800000014121232913942298763_)"
   d="m 165.33,220.71 c 0,0 -9.72,0.31 -8.29,-12.06 l 9.49,-54.79 c 0.41,-1.39 1,-3.52 2.84,-5.66 -3.06,2.65 -4.04,5.6 -4.55,7.37 l -9.49,54.79 c -1.1,12.56 8.25,12.1 8.25,12.1 l 11.04,-0.03 0.3,-1.71 z" />
							
								<linearGradient
   id="XMLID_00000101079770977848547520000017349381523982258367_"
   gradientUnits="userSpaceOnUse"
   x1="202.7258"
   y1="216.9942"
   x2="202.7258"
   y2="202.16071">
								<stop
   offset="0"
   style="stop-color:#9C9B9B"
   id="stop29" />
								<stop
   offset="1"
   style="stop-color:#D9D9D9"
   id="stop30" />
							</linearGradient>
							<path
   id="XMLID_286_"
   style="fill:url(#XMLID_00000101079770977848547520000017349381523982258367_)"
   d="m 218.76,221.49 c -0.69,0.02 -1.35,0.04 -1.96,0.04 -10.86,0.03 -16.11,-1.03 -20.59,-11.18 l -4.95,-15.19 c -2.46,-5.47 -8.35,-7.97 -10.21,-7.96 l -0.36,2.06 c 2.26,0.73 6.87,3.19 8.87,7.62 l 4.95,15.19 c 4.47,10.16 9.73,11.22 20.59,11.18 0.62,0 1.28,-0.01 1.96,-0.04 2.17,-0.22 5.83,-1.01 7.72,-3.73 -1.94,1.36 -4.4,1.84 -6.02,2.01 z" />
						</g>
						<g
   id="XMLID_280_">
							
								<linearGradient
   id="XMLID_00000176750381399596569700000017432895492272569218_"
   gradientUnits="userSpaceOnUse"
   x1="452.99469"
   y1="220.3243"
   x2="452.99469"
   y2="204.4017">
								<stop
   offset="0"
   style="stop-color:#9C9B9B"
   id="stop31" />
								<stop
   offset="1"
   style="stop-color:#D9D9D9"
   id="stop32" />
							</linearGradient>
							<path
   id="XMLID_284_"
   style="fill:url(#XMLID_00000176750381399596569700000017432895492272569218_)"
   d="m 461.79,177.36 c -5.16,4.74 -13.51,7.8 -17.59,8.98 0.11,0.37 0.29,0.83 0.4,1.19 4.56,-1.54 12.58,-5.12 17.19,-10.17 z" />
							
								<linearGradient
   id="XMLID_00000005231222596857949990000009273764865942501311_"
   gradientUnits="userSpaceOnUse"
   x1="436.19141"
   y1="216.9492"
   x2="436.19141"
   y2="202.1138">
								<stop
   offset="0"
   style="stop-color:#9C9B9B"
   id="stop33" />
								<stop
   offset="1"
   style="stop-color:#D9D9D9"
   id="stop34" />
							</linearGradient>
							<path
   id="XMLID_283_"
   style="fill:url(#XMLID_00000005231222596857949990000009273764865942501311_)"
   d="m 442.71,174.11 c 3.95,-3.44 5.49,-7.97 6.05,-11.28 1.45,-8.37 -4.33,-13.19 -16.21,-13.18 l -8.84,0.02 -0.3,1.71 7.43,-0.02 c 11.88,-0.02 17.66,4.8 16.21,13.17 -0.47,2.79 -1.64,6.45 -4.34,9.58 z" />
							
								<linearGradient
   id="XMLID_00000018198712203376051970000004059540723715529637_"
   gradientUnits="userSpaceOnUse"
   x1="439.13089"
   y1="216.87849"
   x2="439.13089"
   y2="201.8858">
								<stop
   offset="0"
   style="stop-color:#9C9B9B"
   id="stop35" />
								<stop
   offset="1"
   style="stop-color:#D9D9D9"
   id="stop36" />
							</linearGradient>
							<path
   id="XMLID_282_"
   style="fill:url(#XMLID_00000018198712203376051970000004059540723715529637_)"
   d="m 455.21,221.44 c -0.69,0.02 -1.35,0.04 -1.97,0.04 -10.86,0.03 -16.11,-1.03 -20.58,-11.18 l -4.95,-15.19 c -2.46,-5.47 -8.58,-8.13 -10.45,-8.13 l -0.23,2.22 c 2.26,0.73 6.98,3.2 8.97,7.62 l 4.95,15.19 c 4.47,10.16 9.73,11.22 20.58,11.18 0.62,0 1.28,-0.01 1.97,-0.04 2.17,-0.22 5.83,-1.01 7.73,-3.73 -1.94,1.37 -4.39,1.86 -6.02,2.02 z" />
							
								<linearGradient
   id="XMLID_00000052806060935973228790000007815412905098737318_"
   gradientUnits="userSpaceOnUse"
   x1="401.5314"
   y1="216.9409"
   x2="401.5314"
   y2="202.091">
								<stop
   offset="0"
   style="stop-color:#9C9B9B"
   id="stop37" />
								<stop
   offset="1"
   style="stop-color:#D9D9D9"
   id="stop38" />
							</linearGradient>
							<path
   id="XMLID_281_"
   style="fill:url(#XMLID_00000052806060935973228790000007815412905098737318_)"
   d="m 401.75,220.71 0.04,-0.04 c 0,0 -9.4,0.5 -8.29,-12.06 l 9.5,-54.79 c 0.41,-1.39 1.08,-3.6 2.92,-5.73 -3.06,2.65 -4.12,5.68 -4.64,7.45 l -9.49,54.79 c -1.1,12.56 8.3,12.06 8.3,12.06 l -0.04,0.04 11.04,-0.03 0.3,-1.71 z" />
						</g>
					</g>
				</g>
				<g
   id="XMLID_271_">
					<g
   id="XMLID_276_"
   class="st24">
						<path
   id="XMLID_277_"
   class="st8"
   d="M 447.97,77.17 C 420.16,61.6 394.46,60.61 364.53,59.94 251.37,57.5 106.55,128.6 48.06,224.28 c 0.9,-0.09 3.63,0.05 4.24,-0.05 l 0.65,-0.69 c 58.9,-66.72 213.62,-141.64 356.11,-113.12 7.88,1.58 96.46,13.52 68.51,96.76 23.86,-59.2 -4.58,-116 -29.6,-130.01 z" />
					</g>
					<g
   id="XMLID_274_">
						
							<radialGradient
   id="XMLID_00000125564924681980292220000000527492273363870635_"
   cx="-2356.9534"
   cy="-1527.2094"
   r="100.5984"
   gradientTransform="matrix(1.6453,-0.0043,0.0043,1.6595,4166.1216,2663.0625)"
   gradientUnits="userSpaceOnUse">
							<stop
   offset="0.2386"
   style="stop-color:#FFD98C"
   id="stop39" />
							<stop
   offset="1"
   style="stop-color:#FBBA07"
   id="stop40" />
						</radialGradient>
						<path
   id="XMLID_275_"
   style="fill:url(#XMLID_00000125564924681980292220000000527492273363870635_)"
   d="M 450.63,72.62 C 422.82,57.04 397.12,56.05 367.19,55.38 252.99,52.92 106.77,125.04 49.53,221.23 h 3.6 C 109.73,154.6 267.04,76.9 411.72,105.86 c 7.88,1.58 95.78,13.09 67.83,96.33 C 503.41,143 475.65,86.63 450.63,72.62 Z" />
					</g>
					<path
   id="XMLID_272_"
   class="st26"
   d="M 412.51,102.46 C 267.85,73.5 110.52,151.19 53.75,218.67 v 0 c -0.55,0.74 -1.4,1.22 -2.33,1.28 -0.76,0.06 -1.39,0.17 -1.89,1.28 l 3.59,0.08 c 57.06,-67.22 214.03,-144.33 358.69,-115.37 7.37,1.47 84.33,11.33 71.77,80.52 15.85,-72.31 -63.58,-82.5 -71.07,-84 z" />
				</g>
			</g>
			<g
   id="XMLID_266_">
				<defs
   id="defs40">
					
						<filter
   id="Adobe_OpacityMaskFilter_00000001647569977125905090000003631629387964866475_"
   filterUnits="userSpaceOnUse"
   x="49.610001"
   y="54.439999"
   width="439.23001"
   height="166.55">
						<feColorMatrix
   type="matrix"
   values="1 0 0 0 0  0 1 0 0 0  0 0 1 0 0  0 0 0 1 0"
   id="feColorMatrix40" />
					</filter>
				</defs>
				
					<mask
   maskUnits="userSpaceOnUse"
   x="49.61"
   y="54.44"
   width="439.23"
   height="166.55"
   id="XMLID_00000121977345607292451140000008286281485673461422_">
					
						<g
   id="XMLID_00000020380693644751886860000005286638754467886985_"
   style="filter:url(#Adobe_OpacityMaskFilter_00000001647569977125905090000003631629387964866475_)">
						
							<linearGradient
   id="XMLID_00000151527527207777315360000009008489042689186701_"
   gradientUnits="userSpaceOnUse"
   x1="140.18201"
   y1="226.535"
   x2="210.2469"
   y2="191.71809">
							<stop
   offset="0.0245"
   style="stop-color:#1D1D1B"
   id="stop41" />
							<stop
   offset="1"
   style="stop-color:#FFFFFF"
   id="stop42" />
						</linearGradient>
						
							<rect
   id="XMLID_00000032625786753564576610000012242870450778590601_"
   x="-20.219999"
   y="3.4400001"
   style="fill:url(#XMLID_00000151527527207777315360000009008489042689186701_)"
   width="538.54999"
   height="337.98999" />
					</g>
				</mask>
				<path
   id="XMLID_267_"
   style="fill:#fff0db"
   d="m 367.36,57.13 c 29.86,0.67 55.51,1.66 83.25,17.24 21.58,12.11 44.94,55.01 35.59,105.09 C 496.91,128.31 473.09,84.06 451.13,71.73 423.39,56.16 397.75,55.17 367.88,54.5 253.94,52.04 108.07,124.16 49.61,220.99 h 1.08 C 110.21,125.49 254.46,54.7 367.36,57.13 Z"
   mask="url(#XMLID_00000121977345607292451140000008286281485673461422_)" />
			</g>
		</g>
	</g>
	<g
   id="XMLID_127_"
   class="st30">
		<path
   id="XMLID_138_"
   class="st8"
   d="m 112.4,71.69 c 0,-1.15 0.49,-1.75 1.35,-1.75 0.87,0 1.36,0.61 1.36,1.75 v 17.85 c 0,6.3 -4.33,9.21 -8.73,9.21 -3.99,0 -7.68,-2.29 -7.68,-3.67 0,-0.8 0.42,-1.42 1.36,-1.42 1.09,0 2.9,2.56 6.06,2.56 3.2,0 6.29,-1.87 6.29,-6.46 v -2.14 h -0.08 c -1.16,2.06 -3.16,3.1 -5.57,3.1 -5.76,0 -8.62,-4.66 -8.62,-10.4 0,-5.12 2.75,-10.39 8.55,-10.39 2.37,0 4.52,1.33 5.65,2.98 h 0.08 v -1.22 z m -5.65,16.74 c 3.65,0 5.68,-3.33 5.68,-6.15 v -3.9 c 0,-2.87 -2.03,-6.15 -5.68,-6.15 -4.22,0 -5.68,4.39 -5.68,8.1 0,3.71 1.47,8.1 5.68,8.1 z" />
		<path
   id="XMLID_136_"
   class="st8"
   d="m 122.53,88.97 c 0,1.15 -0.49,1.76 -1.36,1.76 -0.87,0 -1.36,-0.61 -1.36,-1.76 V 71.69 c 0,-1.15 0.49,-1.75 1.36,-1.75 0.87,0 1.36,0.61 1.36,1.75 v 1.91 h 0.08 c 0.98,-2.26 2.71,-3.67 4.41,-3.67 1.28,0 1.81,0.73 1.81,1.49 0,0.76 -0.53,1.18 -1.84,1.49 -1.51,0.35 -4.44,1.64 -4.44,6.15 v 9.91 z" />
		<path
   id="XMLID_134_"
   class="st8"
   d="m 131.42,71.69 c 0,-1.15 0.49,-1.75 1.36,-1.75 0.87,0 1.36,0.61 1.36,1.75 v 11.43 c 0,3.48 1.84,5.31 4.89,5.31 3.05,0 4.89,-1.83 4.89,-5.31 V 71.69 c 0,-1.15 0.49,-1.75 1.36,-1.75 0.87,0 1.36,0.61 1.36,1.75 v 12.12 c 0,4.39 -3.31,6.92 -7.61,6.92 -4.29,0 -7.61,-2.52 -7.61,-6.92 z" />
		<path
   id="XMLID_131_"
   class="st8"
   d="m 151.34,71.69 c 0,-1.15 0.49,-1.75 1.36,-1.75 0.87,0 1.36,0.61 1.36,1.75 v 1.26 h 0.11 c 1.2,-1.99 3.2,-3.02 5.53,-3.02 5.76,0 8.62,4.66 8.62,10.39 0,5.12 -2.75,10.4 -8.55,10.4 -2.33,0 -4.07,-1 -5.61,-3.02 h -0.11 v 9.29 c 0,1.15 -0.49,1.76 -1.36,1.76 -0.87,0 -1.36,-0.61 -1.36,-1.76 v -25.3 z m 8.36,16.74 c 4.22,0 5.68,-4.39 5.68,-8.1 0,-3.71 -1.47,-8.1 -5.68,-8.1 -4.22,0 -5.69,4.39 -5.69,8.1 0,3.71 1.47,8.1 5.69,8.1 z" />
		<path
   id="XMLID_128_"
   class="st8"
   d="m 179.62,90.73 c -5.76,0 -8.62,-4.66 -8.62,-10.4 0,-5.12 2.75,-10.39 8.62,-10.39 5.91,0 8.62,5.27 8.62,10.39 0,5.74 -2.86,10.4 -8.62,10.4 z m 0,-2.3 c 4.22,0 5.68,-4.39 5.68,-8.1 0,-3.71 -1.47,-8.1 -5.68,-8.1 -4.21,0 -5.68,4.39 -5.68,8.1 0,3.71 1.46,8.1 5.68,8.1 z" />
	</g>
	<g
   id="XMLID_7_">
		<g
   id="g42">
			<path
   id="XMLID_00000170246005628149927060000013867314115142442389_"
   class="st31"
   d="m 113.34,69.4 c 0,-1.15 0.49,-1.75 1.35,-1.75 0.87,0 1.36,0.61 1.36,1.75 v 17.85 c 0,6.3 -4.33,9.21 -8.73,9.21 -3.99,0 -7.68,-2.29 -7.68,-3.67 0,-0.8 0.42,-1.42 1.36,-1.42 1.09,0 2.9,2.56 6.06,2.56 3.2,0 6.29,-1.87 6.29,-6.46 v -2.14 h -0.08 c -1.17,2.06 -3.16,3.1 -5.57,3.1 -5.76,0 -8.62,-4.66 -8.62,-10.4 0,-5.12 2.75,-10.39 8.55,-10.39 2.37,0 4.52,1.33 5.65,2.98 h 0.08 V 69.4 Z m -5.64,16.74 c 3.65,0 5.68,-3.33 5.68,-6.15 v -3.9 c 0,-2.87 -2.03,-6.15 -5.68,-6.15 -4.22,0 -5.68,4.39 -5.68,8.1 -0.01,3.71 1.46,8.1 5.68,8.1 z" />
			<path
   id="XMLID_00000119802782881995593850000006997699383822974902_"
   class="st31"
   d="m 123.48,86.68 c 0,1.15 -0.49,1.76 -1.36,1.76 -0.87,0 -1.36,-0.61 -1.36,-1.76 V 69.4 c 0,-1.15 0.49,-1.75 1.36,-1.75 0.87,0 1.36,0.61 1.36,1.75 v 1.91 h 0.07 c 0.98,-2.26 2.71,-3.67 4.41,-3.67 1.28,0 1.81,0.73 1.81,1.49 0,0.76 -0.53,1.18 -1.84,1.49 -1.51,0.35 -4.44,1.64 -4.44,6.15 v 9.91 z" />
			<path
   id="XMLID_00000181054890342551596230000015367964669773594013_"
   class="st31"
   d="m 132.36,69.4 c 0,-1.15 0.49,-1.75 1.36,-1.75 0.87,0 1.36,0.61 1.36,1.75 v 11.43 c 0,3.48 1.84,5.31 4.89,5.31 3.05,0 4.89,-1.83 4.89,-5.31 V 69.4 c 0,-1.15 0.49,-1.75 1.36,-1.75 0.87,0 1.36,0.61 1.36,1.75 v 12.12 c 0,4.39 -3.31,6.92 -7.61,6.92 -4.29,0 -7.61,-2.52 -7.61,-6.92 z" />
			<path
   id="XMLID_00000149348840598412305540000009622420795601098426_"
   class="st31"
   d="m 152.28,69.4 c 0,-1.15 0.49,-1.75 1.36,-1.75 0.87,0 1.36,0.61 1.36,1.75 v 1.26 h 0.11 c 1.2,-1.99 3.2,-3.02 5.53,-3.02 5.76,0 8.62,4.66 8.62,10.39 0,5.12 -2.75,10.4 -8.55,10.4 -2.33,0 -4.07,-1 -5.61,-3.02 h -0.11 v 9.29 c 0,1.15 -0.49,1.76 -1.36,1.76 -0.87,0 -1.36,-0.61 -1.36,-1.76 V 69.4 Z m 8.36,16.74 c 4.22,0 5.68,-4.39 5.68,-8.1 0,-3.71 -1.47,-8.1 -5.68,-8.1 -4.22,0 -5.69,4.39 -5.69,8.1 0.01,3.71 1.48,8.1 5.69,8.1 z" />
			<path
   id="XMLID_00000161626903303736674730000000975866137633830828_"
   class="st31"
   d="m 180.56,88.44 c -5.76,0 -8.62,-4.66 -8.62,-10.4 0,-5.12 2.75,-10.39 8.62,-10.39 5.91,0 8.62,5.27 8.62,10.39 0,5.73 -2.86,10.4 -8.62,10.4 z m 0,-2.3 c 4.22,0 5.68,-4.39 5.68,-8.1 0,-3.71 -1.47,-8.1 -5.68,-8.1 -4.22,0 -5.68,4.39 -5.68,8.1 0,3.71 1.47,8.1 5.68,8.1 z" />
		</g>
	</g>
</g>
</svg>
