<?xml version="1.0" encoding="UTF-8" standalone="no"?>
<!-- Generator: Adobe Illustrator 25.2.3, SVG Export Plug-In . SVG Version: 6.00 Build 0)  -->

<svg
   version="1.1"
   id="Layer_1"
   x="0px"
   y="0px"
   viewBox="0 0 7708.1 7802.1005"
   xml:space="preserve"
   sodipodi:docname="cafe-3-coracoes.svg"
   width="7708.1001"
   height="7802.1001"
   inkscape:version="1.4 (86a8ad7, 2024-10-11)"
   xmlns:inkscape="http://www.inkscape.org/namespaces/inkscape"
   xmlns:sodipodi="http://sodipodi.sourceforge.net/DTD/sodipodi-0.dtd"
   xmlns:xlink="http://www.w3.org/1999/xlink"
   xmlns="http://www.w3.org/2000/svg"
   xmlns:svg="http://www.w3.org/2000/svg"><defs
   id="defs13" /><sodipodi:namedview
   id="namedview13"
   pagecolor="#ffffff"
   bordercolor="#000000"
   borderopacity="0.25"
   inkscape:showpageshadow="2"
   inkscape:pageopacity="0.0"
   inkscape:pagecheckerboard="0"
   inkscape:deskcolor="#d1d1d1"
   inkscape:zoom="0.098389442"
   inkscape:cx="3846.9575"
   inkscape:cy="3897.776"
   inkscape:window-width="1920"
   inkscape:window-height="1009"
   inkscape:window-x="-8"
   inkscape:window-y="-8"
   inkscape:window-maximized="1"
   inkscape:current-layer="Layer_1" />
<style
   type="text/css"
   id="style1">
	.st0{clip-path:url(#SVGID_2_);fill:#E43D30;}
	.st1{clip-path:url(#SVGID_2_);fill:#774D28;}
	.st2{clip-path:url(#SVGID_2_);fill:#F5B335;}
	.st3{clip-path:url(#SVGID_2_);fill:#FFFFFF;}
</style>
<g
   id="g13"
   transform="translate(-170.8,-200)">
	<defs
   id="defs1">
		<rect
   id="SVGID_1_"
   y="0"
   width="8049.6001"
   height="8202.0996"
   x="0" />
	</defs>
	<clipPath
   id="SVGID_2_">
		<use
   xlink:href="#SVGID_1_"
   style="overflow:visible"
   id="use1" />
	</clipPath>
	<path
   class="st0"
   d="M 4024.9,8002.1 C 1899.7,8002.1 170.8,6252.1 170.8,4101.1 170.7,1950 1899.7,200 4024.9,200 c 2125.1,0 3854,1750 3854,3901.1 -0.1,2151 -1728.9,3901 -3854,3901"
   clip-path="url(#SVGID_2_)"
   id="path1" />
	<path
   class="st1"
   d="m 5984.8,3901.9 c -0.4,0.4 -0.8,0.9 -1.1,1.3 L 4127,5956.9 c -25.7,28.5 -62.3,44.7 -100.6,44.7 -38.3,0 -74.9,-16.1 -100.6,-44.5 L 2065.9,3903.2 c -0.5,-0.5 -0.9,-0.9 -1.3,-1.4 -243.9,-276.9 -378.2,-642 -378.2,-1028.1 0,-810.9 598,-1470.7 1332.9,-1470.7 387.5,0 750.7,184.9 1003.9,503 253.3,-318.1 617.7,-503 1007.1,-503 735.1,0 1333,659.7 1333,1470.7 0,386.1 -134.4,751.2 -378.5,1028.2"
   clip-path="url(#SVGID_2_)"
   id="path2" />
	<path
   class="st2"
   d="m 2308.3,3085.3 c -78,-88.5 -126.4,-210.2 -126.4,-344.6 0,-270.8 196.9,-490.2 439.8,-490.2 154.6,0 289.6,89 368.8,222.3 78.9,-133.3 215,-222.3 369.9,-222.3 242.9,0 439.8,219.4 439.8,490.2 0,134.4 -48.7,256.1 -126.8,344.6 l -681.8,754.4 z m 2393.6,1338.2 c 0,0 -675.3,747.8 -678.6,751.6 -4.7,-5.5 -680.1,-751.6 -680.1,-751.6 -77.5,-88.1 -125.5,-209.1 -125.5,-342.6 0,-269 195.3,-487 436.2,-487 153.1,0 287.6,87.6 366.3,220.1 15.3,-25.8 34.5,-47.1 53.9,-69.2 18.5,-21.1 40.6,-42.9 62.4,-59.9 71.4,-57.4 160.1,-91 254.8,-91 241,0 436.3,218 436.3,487 0.1,133.6 -48.1,254.6 -125.7,342.6 m 1027.5,-1339 c 0,0 -675.3,747.8 -678.6,751.6 -4.7,-5.4 -680,-751.6 -680,-751.5 -77.5,-88.1 -125.5,-209.1 -125.5,-342.6 0,-269 195.2,-487 436.1,-487 153.2,0 287.7,87.7 366.4,220.1 15.3,-25.8 34.5,-47.2 53.8,-69.2 18.6,-21.1 40.6,-42.8 62.5,-59.9 71.4,-57.4 160.1,-91 254.8,-91 241,0 436.3,218 436.3,487 0,133.5 -48.3,254.5 -125.8,342.5"
   clip-path="url(#SVGID_2_)"
   id="path3" />
	<path
   class="st3"
   d="m 2753.5,6215.1 c -229.6,-157.3 -500.9,-50.6 -636.8,167.8 -150.9,242.6 -103.1,480.4 122.5,635 231.6,158.7 500.9,54.9 636.8,-163.5 151.1,-242.9 102.8,-484.9 -122.5,-639.3 m -87.4,538.4 c -100.9,152.6 -240,205.4 -336.8,137.8 -114.9,-80.3 -114.4,-238.2 -2.7,-407.4 100.8,-152.6 240,-205.4 336.8,-137.8 114.9,80.3 114.4,238.2 2.7,407.4"
   clip-path="url(#SVGID_2_)"
   id="path4" />
	<path
   class="st3"
   d="m 5248.9,6176.9 c 20.7,-4.5 43.6,-20.5 55.4,-33.5 -22.1,-41.6 -20.3,-68.5 -5.4,-79.3 42.3,-30.7 121.7,-25.2 175.5,-59.4 72.3,-46 94.8,-128.7 58.9,-199 -13.9,-27.2 -36.7,-44.4 -65.4,-38.2 -20.7,4.5 -43.6,20.5 -55.4,33.5 22.1,41.6 20.3,68.5 5.4,79.3 -42.3,30.7 -121.7,25.2 -175.4,59.4 -72.3,46 -94.8,128.7 -58.9,199 13.8,27.2 36.6,44.4 65.3,38.2"
   clip-path="url(#SVGID_2_)"
   id="path5" />
	<path
   class="st3"
   d="m 2034.8,5911 c 39.6,32.8 58.3,62 79.4,108.2 16.7,36.5 40.5,59.7 73.1,59.4 37,-0.3 81.6,-28.6 109.3,-62.6 -9.9,-76.5 -52.4,-144.3 -125.6,-211.2 -165.3,-151.2 -449.5,-166.2 -639.8,42.9 -197,216.6 -127.5,478.3 29.6,627.1 53.9,51 113,86.2 167.4,94.2 69.7,10.3 133.3,-16.7 168.6,-55.9 -84.4,-41.7 -121.6,-64.7 -179.2,-115.9 -85.6,-76 -136.7,-246.1 1.7,-409.6 110.8,-130.3 222.8,-153.6 315.5,-76.6"
   clip-path="url(#SVGID_2_)"
   id="path6" />
	<path
   class="st3"
   d="m 1560.1,5149.6 c 94.4,94.5 194.1,137.5 327,93.2 83.3,-27.8 239.4,-162.3 150.4,-408.1 -35.2,-97.3 -123.1,-210.4 -243.6,-267.4 -27.2,5.9 -64.3,21.4 -80.8,39.5 -28.8,31.7 -20.7,55.1 16.4,83.4 52.7,40.1 94.4,86.6 120.1,153.6 32.8,85.6 -1.9,179.4 -80,204.7 -130.2,42.2 -232.2,-79.8 -282.4,-191.2 -27.5,-12.1 -116.7,-29.1 -174.5,-6.9 16.8,31.8 35.3,87 49.8,131.2 56,169.8 29.2,285.3 -84.2,325.9 -126.9,45.4 -256.2,-46.8 -320.7,-227.8 -36.1,-101.4 -43.8,-195.7 -45.8,-252 -70.1,20.8 -133.5,61.6 -142.7,133.9 -6.4,50.9 3.7,106.6 32.3,199.4 80.6,261 311.3,447.7 557,359.7 147.2,-52.7 237.3,-171.7 201.7,-371.1"
   clip-path="url(#SVGID_2_)"
   id="path7" />
	<path
   class="st3"
   d="m 3565.6,6604.5 c -76.2,0.4 -140.8,27.2 -209.7,112.6 47.2,-112.5 56.5,-181.1 -29.7,-230.7 -45,-25.9 -87.5,-35.9 -124.5,-22.2 -38.3,14.1 -63.8,41.9 -80,92.5 48.1,13.5 60.7,56.5 38.3,110 l -271.7,649.6 c 60.3,32.3 114.9,55.5 171.4,70.6 37.7,6 59.2,-0.8 70.1,-34.5 l 158.8,-388.9 c 43.4,-106.3 79.5,-153 162,-153.8 46.5,-0.5 65.9,13.3 99.6,41.1 26.4,21.8 65.7,16.3 94.1,-4.9 49.6,-37.1 90.2,-131.4 97.2,-159.3 -22,-38.6 -82.5,-82.7 -175.9,-82.1"
   clip-path="url(#SVGID_2_)"
   id="path8" />
	<path
   class="st3"
   d="m 7112.4,4846.9 c -116.9,-42.2 -237.2,-4.7 -324.9,92.6 -40,44.4 -91.4,96.5 -152.5,80.7 -48.4,-12.5 -68.2,-59.6 -53.6,-116 7.9,-30.5 32.5,-70.6 49,-94 24.1,-34.1 27.2,-64.4 2.6,-86.1 -25.2,-22.4 -58.9,-34.1 -98.4,-47 -12.9,8.9 -72.8,71.1 -112.3,193.9 -53.1,165.2 28.3,318.6 187,362.1 121.6,33.3 191.5,-13.1 260.5,-86.9 83.9,-89.7 118,-119.7 179.1,-106.3 48.9,10.8 74.3,78.2 59,147.1 -21.3,95.5 -103.1,197.3 -150.4,244 52.3,38.5 124,48.1 182.4,-8.4 43.5,-42 89.2,-94.3 120.5,-196.2 56.6,-183.6 1.7,-325.4 -148,-379.5"
   clip-path="url(#SVGID_2_)"
   id="path9" />
	<path
   class="st3"
   d="m 4518.1,7410.1 c -36.3,-2.3 -52.1,-26.8 -52,-59.6 l 0.8,-422.8 c 0.4,-211 -94.8,-311.4 -299,-324.2 -130.3,-8.2 -310.4,80.3 -369.1,136.3 8.2,69.6 44.3,119 84.8,121.6 19.4,1.2 39.6,-7.6 60.1,-18.6 44.8,-23.9 124.1,-64.7 183.7,-61 82.3,5.2 119.8,54.5 121.3,150.6 l 0.8,52.3 c -231.4,13.8 -468.7,130.4 -476.6,331.5 -5.6,142.7 99.6,243.9 245.7,243.4 75.8,-0.3 191.2,-38 246.5,-125.5 16.7,69.6 63.1,123.5 155.9,124.8 92.7,1.3 158.4,-62.8 176.9,-99.5 l 2,-57.8 c -12.7,3.6 -62.7,9.7 -81.8,8.5 M 4202,7348.2 c -33.2,23.3 -72.7,46.4 -115.7,47.8 -60.6,1.8 -88.5,-53.7 -89.1,-114.1 -0.9,-89.6 86.3,-153.8 249.6,-172.1 l 0.2,132.8 c 0,51.9 -17.4,86.2 -45,105.6"
   clip-path="url(#SVGID_2_)"
   id="path10" />
	<path
   class="st3"
   d="m 6855.7,5632.3 c -17.5,71.3 -55.8,166.6 -85.6,212 -80.2,122 -218,188.4 -372.2,87.2 70.1,-93.3 193.3,-248.6 218.9,-296.2 38.6,-71.8 59,-100.3 49.9,-171.3 l -73.5,-57.7 c -134.7,-105.6 -339.6,-126.8 -487.5,62.5 -158.2,202.5 -88.7,489 151.6,645.5 220.2,143.4 464.3,109.3 620.1,-133.9 47.2,-73.6 72.5,-137.2 70.9,-191 -1.9,-62 -37.5,-118.2 -92.6,-157.1 m -638,-56.4 c 59.9,-83.3 155.5,-76.3 229.7,-18.6 10.6,8.2 14.3,41.4 8.6,52.3 -21.5,41 -104.5,156.4 -171.3,235.4 -85.5,-80.2 -114.6,-203 -67,-269.1"
   clip-path="url(#SVGID_2_)"
   id="path11" />
	<path
   class="st3"
   d="m 5415.8,6976.2 c -61.9,58.2 -86.3,87 -155.1,123.3 -173.3,91.6 -297.4,46.7 -389.4,-127.8 -84.1,-159.5 -60.7,-284 54.9,-349.7 60.3,-34.3 100.5,-39.6 151.3,-44.9 39.8,-4.1 71.5,-12.1 81.9,-40.4 12.1,-32.7 1.4,-80.5 -21.5,-122.8 -63.7,-8.6 -187.3,8.2 -284,57.7 -223.7,114.6 -315.6,386.3 -180.2,632.9 99.9,182 268.3,241.5 429,220.5 l -2.7,96.6 c 98.9,-8.1 126.5,-3 133.3,24.9 5.5,22.5 -15.9,49.8 -61.2,60.5 -26.6,6.2 -63,13.5 -96.2,7.1 -2.7,100.7 95.7,103.2 195.7,65.4 76.6,-29 118.9,-86.7 102.6,-160.1 -9.5,-42.5 -70.6,-91.7 -176.6,-71.3 l 1.6,-45.6 c 25.5,-8.6 50.4,-19.2 74.3,-31.6 66.4,-34.4 132.5,-83.3 158.3,-130 29.1,-52.6 29.6,-98.5 -2.5,-163.6 z"
   clip-path="url(#SVGID_2_)"
   id="path12" />
	<path
   class="st3"
   d="m 5481.7,6107.7 c -207,162.3 -229.8,438.1 -59.4,659.3 175.9,228.3 428.5,260.6 637.2,97.1 207,-162.3 229.8,-438.1 59.4,-659.3 -176,-228.3 -428.6,-260.6 -637.2,-97.1 m 479.6,631.1 c -108.1,83.2 -239.8,39.4 -365.1,-132.8 -106,-145.6 -112.3,-303.6 -20.3,-374.3 108.1,-83.2 243.7,-37.9 369,134.2 106,145.6 108.3,302.1 16.4,372.9"
   clip-path="url(#SVGID_2_)"
   id="path13" />
</g>
</svg>
