<?xml version="1.0" encoding="utf-8"?>
<!-- Generator: Adobe Illustrator 25.2.3, SVG Export Plug-In . SVG Version: 6.00 Build 0)  -->
<svg version="1.1" id="Layer_1" xmlns="http://www.w3.org/2000/svg" xmlns:xlink="http://www.w3.org/1999/xlink" x="0px" y="0px"
	 viewBox="0 0 8049.6 8202.1" style="enable-background:new 0 0 8049.6 8202.1;" xml:space="preserve">
<style type="text/css">
	.st0{clip-path:url(#SVGID_2_);fill:#E43D30;}
	.st1{clip-path:url(#SVGID_2_);fill:#774D28;}
	.st2{clip-path:url(#SVGID_2_);fill:#F5B335;}
	.st3{clip-path:url(#SVGID_2_);fill:#FFFFFF;}
</style>
<g>
	<defs>
		<rect id="SVGID_1_" y="0" width="8049.6" height="8202.1"/>
	</defs>
	<clipPath id="SVGID_2_">
		<use xlink:href="#SVGID_1_"  style="overflow:visible;"/>
	</clipPath>
	<path class="st0" d="M4024.9,8002.1c-2125.2,0-3854.1-1750-3854.1-3901C170.7,1950,1899.7,200,4024.9,200
		c2125.1,0,3854,1750,3854,3901.1C7878.8,6252.1,6150,8002.1,4024.9,8002.1"/>
	<path class="st1" d="M5984.8,3901.9c-0.4,0.4-0.8,0.9-1.1,1.3L4127,5956.9c-25.7,28.5-62.3,44.7-100.6,44.7
		c-38.3,0-74.9-16.1-100.6-44.5L2065.9,3903.2c-0.5-0.5-0.9-0.9-1.3-1.4c-243.9-276.9-378.2-642-378.2-1028.1
		c0-810.9,598-1470.7,1332.9-1470.7c387.5,0,750.7,184.9,1003.9,503c253.3-318.1,617.7-503,1007.1-503
		c735.1,0,1333,659.7,1333,1470.7C6363.3,3259.8,6228.9,3624.9,5984.8,3901.9"/>
	<path class="st2" d="M2308.3,3085.3c-78-88.5-126.4-210.2-126.4-344.6c0-270.8,196.9-490.2,439.8-490.2
		c154.6,0,289.6,89,368.8,222.3c78.9-133.3,215-222.3,369.9-222.3c242.9,0,439.8,219.4,439.8,490.2c0,134.4-48.7,256.1-126.8,344.6
		l-681.8,754.4L2308.3,3085.3z M4701.9,4423.5c0,0-675.3,747.8-678.6,751.6c-4.7-5.5-680.1-751.6-680.1-751.6
		c-77.5-88.1-125.5-209.1-125.5-342.6c0-269,195.3-487,436.2-487c153.1,0,287.6,87.6,366.3,220.1c15.3-25.8,34.5-47.1,53.9-69.2
		c18.5-21.1,40.6-42.9,62.4-59.9c71.4-57.4,160.1-91,254.8-91c241,0,436.3,218,436.3,487C4827.7,4214.5,4779.5,4335.5,4701.9,4423.5
		 M5729.4,3084.5c0,0-675.3,747.8-678.6,751.6c-4.7-5.4-680-751.6-680-751.5c-77.5-88.1-125.5-209.1-125.5-342.6
		c0-269,195.2-487,436.1-487c153.2,0,287.7,87.7,366.4,220.1c15.3-25.8,34.5-47.2,53.8-69.2c18.6-21.1,40.6-42.8,62.5-59.9
		c71.4-57.4,160.1-91,254.8-91c241,0,436.3,218,436.3,487C5855.2,2875.5,5806.9,2996.5,5729.4,3084.5"/>
	<path class="st3" d="M2753.5,6215.1c-229.6-157.3-500.9-50.6-636.8,167.8c-150.9,242.6-103.1,480.4,122.5,635
		c231.6,158.7,500.9,54.9,636.8-163.5C3027.1,6611.5,2978.8,6369.5,2753.5,6215.1 M2666.1,6753.5
		c-100.9,152.6-240,205.4-336.8,137.8c-114.9-80.3-114.4-238.2-2.7-407.4c100.8-152.6,240-205.4,336.8-137.8
		C2778.3,6426.4,2777.8,6584.3,2666.1,6753.5"/>
	<path class="st3" d="M5248.9,6176.9c20.7-4.5,43.6-20.5,55.4-33.5c-22.1-41.6-20.3-68.5-5.4-79.3c42.3-30.7,121.7-25.2,175.5-59.4
		c72.3-46,94.8-128.7,58.9-199c-13.9-27.2-36.7-44.4-65.4-38.2c-20.7,4.5-43.6,20.5-55.4,33.5c22.1,41.6,20.3,68.5,5.4,79.3
		c-42.3,30.7-121.7,25.2-175.4,59.4c-72.3,46-94.8,128.7-58.9,199C5197.4,6165.9,5220.2,6183.1,5248.9,6176.9"/>
	<path class="st3" d="M2034.8,5911c39.6,32.8,58.3,62,79.4,108.2c16.7,36.5,40.5,59.7,73.1,59.4c37-0.3,81.6-28.6,109.3-62.6
		c-9.9-76.5-52.4-144.3-125.6-211.2c-165.3-151.2-449.5-166.2-639.8,42.9c-197,216.6-127.5,478.3,29.6,627.1
		c53.9,51,113,86.2,167.4,94.2c69.7,10.3,133.3-16.7,168.6-55.9c-84.4-41.7-121.6-64.7-179.2-115.9c-85.6-76-136.7-246.1,1.7-409.6
		C1830.1,5857.3,1942.1,5834,2034.8,5911"/>
	<path class="st3" d="M1560.1,5149.6c94.4,94.5,194.1,137.5,327,93.2c83.3-27.8,239.4-162.3,150.4-408.1
		c-35.2-97.3-123.1-210.4-243.6-267.4c-27.2,5.9-64.3,21.4-80.8,39.5c-28.8,31.7-20.7,55.1,16.4,83.4
		c52.7,40.1,94.4,86.6,120.1,153.6c32.8,85.6-1.9,179.4-80,204.7c-130.2,42.2-232.2-79.8-282.4-191.2
		c-27.5-12.1-116.7-29.1-174.5-6.9c16.8,31.8,35.3,87,49.8,131.2c56,169.8,29.2,285.3-84.2,325.9
		c-126.9,45.4-256.2-46.8-320.7-227.8c-36.1-101.4-43.8-195.7-45.8-252c-70.1,20.8-133.5,61.6-142.7,133.9
		c-6.4,50.9,3.7,106.6,32.3,199.4c80.6,261,311.3,447.7,557,359.7C1505.6,5468,1595.7,5349,1560.1,5149.6"/>
	<path class="st3" d="M3565.6,6604.5c-76.2,0.4-140.8,27.2-209.7,112.6c47.2-112.5,56.5-181.1-29.7-230.7
		c-45-25.9-87.5-35.9-124.5-22.2c-38.3,14.1-63.8,41.9-80,92.5c48.1,13.5,60.7,56.5,38.3,110l-271.7,649.6
		c60.3,32.3,114.9,55.5,171.4,70.6c37.7,6,59.2-0.8,70.1-34.5l158.8-388.9c43.4-106.3,79.5-153,162-153.8
		c46.5-0.5,65.9,13.3,99.6,41.1c26.4,21.8,65.7,16.3,94.1-4.9c49.6-37.1,90.2-131.4,97.2-159.3
		C3719.5,6648,3659,6603.9,3565.6,6604.5"/>
	<path class="st3" d="M7112.4,4846.9c-116.9-42.2-237.2-4.7-324.9,92.6c-40,44.4-91.4,96.5-152.5,80.7
		c-48.4-12.5-68.2-59.6-53.6-116c7.9-30.5,32.5-70.6,49-94c24.1-34.1,27.2-64.4,2.6-86.1c-25.2-22.4-58.9-34.1-98.4-47
		c-12.9,8.9-72.8,71.1-112.3,193.9c-53.1,165.2,28.3,318.6,187,362.1c121.6,33.3,191.5-13.1,260.5-86.9
		c83.9-89.7,118-119.7,179.1-106.3c48.9,10.8,74.3,78.2,59,147.1c-21.3,95.5-103.1,197.3-150.4,244c52.3,38.5,124,48.1,182.4-8.4
		c43.5-42,89.2-94.3,120.5-196.2C7317,5042.8,7262.1,4901,7112.4,4846.9"/>
	<path class="st3" d="M4518.1,7410.1c-36.3-2.3-52.1-26.8-52-59.6l0.8-422.8c0.4-211-94.8-311.4-299-324.2
		c-130.3-8.2-310.4,80.3-369.1,136.3c8.2,69.6,44.3,119,84.8,121.6c19.4,1.2,39.6-7.6,60.1-18.6c44.8-23.9,124.1-64.7,183.7-61
		c82.3,5.2,119.8,54.5,121.3,150.6l0.8,52.3c-231.4,13.8-468.7,130.4-476.6,331.5c-5.6,142.7,99.6,243.9,245.7,243.4
		c75.8-0.3,191.2-38,246.5-125.5c16.7,69.6,63.1,123.5,155.9,124.8c92.7,1.3,158.4-62.8,176.9-99.5l2-57.8
		C4587.2,7405.2,4537.2,7411.3,4518.1,7410.1 M4202,7348.2c-33.2,23.3-72.7,46.4-115.7,47.8c-60.6,1.8-88.5-53.7-89.1-114.1
		c-0.9-89.6,86.3-153.8,249.6-172.1l0.2,132.8C4247,7294.5,4229.6,7328.8,4202,7348.2"/>
	<path class="st3" d="M6855.7,5632.3c-17.5,71.3-55.8,166.6-85.6,212c-80.2,122-218,188.4-372.2,87.2
		c70.1-93.3,193.3-248.6,218.9-296.2c38.6-71.8,59-100.3,49.9-171.3l-73.5-57.7c-134.7-105.6-339.6-126.8-487.5,62.5
		c-158.2,202.5-88.7,489,151.6,645.5c220.2,143.4,464.3,109.3,620.1-133.9c47.2-73.6,72.5-137.2,70.9-191
		C6946.4,5727.4,6910.8,5671.2,6855.7,5632.3 M6217.7,5575.9c59.9-83.3,155.5-76.3,229.7-18.6c10.6,8.2,14.3,41.4,8.6,52.3
		c-21.5,41-104.5,156.4-171.3,235.4C6199.2,5764.8,6170.1,5642,6217.7,5575.9"/>
	<path class="st3" d="M5415.8,6976.2c-61.9,58.2-86.3,87-155.1,123.3c-173.3,91.6-297.4,46.7-389.4-127.8
		c-84.1-159.5-60.7-284,54.9-349.7c60.3-34.3,100.5-39.6,151.3-44.9c39.8-4.1,71.5-12.1,81.9-40.4c12.1-32.7,1.4-80.5-21.5-122.8
		c-63.7-8.6-187.3,8.2-284,57.7c-223.7,114.6-315.6,386.3-180.2,632.9c99.9,182,268.3,241.5,429,220.5l-2.7,96.6
		c98.9-8.1,126.5-3,133.3,24.9c5.5,22.5-15.9,49.8-61.2,60.5c-26.6,6.2-63,13.5-96.2,7.1c-2.7,100.7,95.7,103.2,195.7,65.4
		c76.6-29,118.9-86.7,102.6-160.1c-9.5-42.5-70.6-91.7-176.6-71.3l1.6-45.6c25.5-8.6,50.4-19.2,74.3-31.6
		c66.4-34.4,132.5-83.3,158.3-130c29.1-52.6,29.6-98.5-2.5-163.6L5415.8,6976.2z"/>
	<path class="st3" d="M5481.7,6107.7c-207,162.3-229.8,438.1-59.4,659.3c175.9,228.3,428.5,260.6,637.2,97.1
		c207-162.3,229.8-438.1,59.4-659.3C5942.9,5976.5,5690.3,5944.2,5481.7,6107.7 M5961.3,6738.8c-108.1,83.2-239.8,39.4-365.1-132.8
		c-106-145.6-112.3-303.6-20.3-374.3c108.1-83.2,243.7-37.9,369,134.2C6050.9,6511.5,6053.2,6668,5961.3,6738.8"/>
</g>
</svg>
