<?xml version="1.0" encoding="UTF-8" standalone="no"?>
<svg
   height="192.80019"
   width="923.0769"
   viewBox="-9.581055 -3.335275 63.8737 13.3411"
   version="1.1"
   id="svg2"
   sodipodi:docname="cushman-e-wakefield.svg"
   inkscape:version="1.4 (86a8ad7, 2024-10-11)"
   xmlns:inkscape="http://www.inkscape.org/namespaces/inkscape"
   xmlns:sodipodi="http://sodipodi.sourceforge.net/DTD/sodipodi-0.dtd"
   xmlns="http://www.w3.org/2000/svg"
   xmlns:svg="http://www.w3.org/2000/svg">
  <defs
     id="defs2" />
  <sodipodi:namedview
     id="namedview2"
     pagecolor="#ffffff"
     bordercolor="#000000"
     borderopacity="0.25"
     inkscape:showpageshadow="2"
     inkscape:pageopacity="0.0"
     inkscape:pagecheckerboard="0"
     inkscape:deskcolor="#d1d1d1"
     inkscape:zoom="1.00875"
     inkscape:cx="459.47955"
     inkscape:cy="31.226766"
     inkscape:window-width="1920"
     inkscape:window-height="1009"
     inkscape:window-x="-8"
     inkscape:window-y="-8"
     inkscape:window-maximized="1"
     inkscape:current-layer="svg2" />
  <path
     d="m -0.187755,-3.293749 v 13.3411 h 3.9527 V -0.3289489 Z m -1.5656,1.1705 v 12.1706 h 0.8219 v -12.7947 z m -1.5655,12.1706 h 0.8218 v -11.5855 l -0.8218,0.58500002 z m -1.5656,0 h 0.8219 V -0.3677489 l -0.8219,0.6241001 z m 9.393,-7.3725997 v 7.3725997 h 3.9535 V 5.6393513 Z m -10.9586,1.1703 v 6.2022997 h 0.822 V 3.2598513 Z m -1.5655,6.2022997 h 0.8219 V 4.4302513 l -0.8219,0.5852 z m -1.5655,0 h 0.8219 V 5.6003513 l -0.8219,0.6242 z"
     fill="#eb0029"
     id="path1" />
  <path
     d="m 18.637145,4.1180513 c -1.173,0 -1.9167,-0.6631 -1.9167,-1.9504 v -2.4966002 h 0.9775 v 2.4966002 c 0,0.702 0.3527,1.0922 0.9788,1.0922 0.5865,0 0.9392,-0.3901 0.9392,-1.0922 v -2.4966002 h 0.9788 v 2.4576002 c 0,1.3653 -0.7833,1.9894 -1.9576,1.9894 z m 4.853,0 c -0.6644,0 -1.3301,-0.234 -1.8387,-0.702 l 0.5482,-0.6632 c 0.391,0.312 0.8216,0.507 1.3302,0.507 0.391,0 0.626,-0.156 0.626,-0.3901 v -0.039 c 0,-0.234 -0.1558,-0.3511 -0.8995,-0.5461 -0.8612,-0.234 -1.449,-0.5071 -1.449,-1.36520002 0,-0.81930012 0.626,-1.32630018 1.527,-1.32630018 0.6657,0 1.2126,0.19500002 1.6432,0.54600008 l -0.5086,0.7412001 c -0.3513,-0.27310004 -0.7437,-0.42910006 -1.1346,-0.42910006 -0.3527,0 -0.5482,0.15600002 -0.5482,0.39000006 0,0.27310002 0.1955,0.39020002 0.9391,0.58520002 0.901,0.234 1.4095,0.5462 1.4095,1.3264 0,0.897 -0.6658,1.3652 -1.6446,1.3652 z m 5.7143,-0.0389 v -1.7945 h -1.8004 v 1.7946 h -0.9775 v -4.4080002 h 0.9775 v 1.7163002 h 1.8004 v -1.7165002 h 0.9788 v 4.4080002 z m 16.8298,0 -2.0738,-2.7696 v 2.7696 h -0.9392 v -4.4080002 h 0.8996 l 2.0751,2.8085002 v -2.8086002 h 0.9392 v 4.4080002 z m -18.9816,5.9681997 -1.3698,-1.8724 -0.5085,0.5461 v 1.3263 h -0.9788 V 5.6393513 h 0.9788 v 1.9504 l 1.8004,-1.9504 h 1.173 l -1.8004,1.8725 1.8796,2.5354997 z m 2.2693,0 V 5.6393513 h 3.2878 v 0.8582 h -2.3486 v 0.8973 h 2.0752 V 8.252851 h -2.0752 v 0.9363 h 2.3883 v 0.8582 z m 9.3931,0 h 0.9393 V 5.6394513 h -0.9393 z m 2.3882,0 V 5.6393513 h 3.2878 v 0.8582 h -2.309 v 0.8973 h 2.0342 V 8.252851 h -2.0342 v 0.9363 h 2.3473 v 0.8582 z m 4.7752,0 V 5.6393513 h 0.9774 V 9.189151 h 2.1928 v 0.8582 z m 6.0656,0 h -1.7225 V 5.6393513 h 1.7225 c 1.4094,0 2.3486,0.9753 2.3486,2.1844997 v 0.039 c 0,1.2483 -0.9392,2.1845 -2.3486,2.1845 z m 1.3315,-2.1845 c 0,-0.7801997 -0.5482,-1.3262997 -1.3315,-1.3262997 h -0.7437 V 9.189151 h 0.7437 c 0.7833,0 1.3315,-0.5461 1.3315,-1.3263 z m -39.4122,-4.6029997 c -0.823,0 -1.3698,-0.624 -1.3698,-1.3653 v -0.039 c 0,-0.7412 0.5085,-1.36530008 1.2905,-1.36530008 0.4306,-0.039 0.823,0.15610002 1.0964,0.46810006 l 0.6261,-0.7412001 c -0.4306,-0.39000006 -1.0171,-0.66310008 -1.7225,-0.62400008 -1.3698,0 -2.3472,1.05320014 -2.309,2.3014002 0.0397,1.2873 1.0185,2.2625 2.3883,2.2235 0.704,0 1.3301,-0.312 1.7211,-0.7802 l -0.6644,-0.6241 c -0.2351,0.3121 -0.6261,0.507 -1.0567,0.546 z m 21.2509,-3.5888002 h 1.0567 v 4.4080002 h -0.9391 v -2.8865 l -1.2523,1.8724 h -0.0383 l -1.2535,-1.8724 v 2.8867 h -0.8996 v -4.4080002 h 1.0171 l 1.1743,1.8334002 z m 3.9931,0 -1.8796,4.4080002 h 1.0184 l 0.391,-1.0142 h 1.8783 l 0.3923,1.0143 h 1.0171 l -1.8783,-4.4080002 z m -0.1175,2.5356002 0.5865,-1.40430002 0.5878,1.40430002 z m -18.6699,3.4326 -1.8783,4.4080997 h 0.9788 l 0.4306,-0.9752 h 1.84 l 0.4293,0.9752 h 0.9788 l -1.8783,-4.4079997 z m -0.1558,2.5746997 0.5864,-1.4432997 0.5879,1.4432997 z m 14.8338,-1.6773997 v 0.9362 h 2.0739 V 8.369951 h -2.0739 v 1.6774 h -0.9788 V 5.6393513 h 3.3657 v 0.8972 z m -17.613,-0.8973 -1.0172,3.0817997 -1.017,-3.0816997 h -0.9406 l -1.017,3.0816997 -1.0172,-3.0816997 h -1.0567 l 1.6036,4.4079997 h 0.9788 l 0.9788,-3.0036997 1.017,3.0036997 h 0.9393 l 1.6049,-4.4079997 z m 35.7334,-2.6525 0.5086,-0.585 -0.5865,-0.6242 -0.4703,0.5071 -0.5482,-0.6631 c 0.3527,-0.1951 0.5878,-0.5852 0.5878,-0.97520006 -0.0396,-0.62410008 -0.5085,-1.05320014 -1.1346,-1.05320014 -0.313,0 -0.5878,0.11700002 -0.7833,0.31200004 -0.1955,0.19500002 -0.313,0.46800006 -0.313,0.78020012 0.0395,0.35100004 0.235,0.62420004 0.3909,0.81920004 -0.5085,0.195 -0.8995,0.7412 -0.8612,1.2873 0.0396,0.741 0.6657,1.3652 1.449,1.3652 0.4306,0 0.8996,-0.234 1.2126,-0.585 l 0.3923,0.507 h 1.1347 z m -1.0567,-0.039 c -0.2352,0.273 -0.469,0.3901 -0.704,0.3901 -0.3131,0 -0.5879,-0.234 -0.5879,-0.585 -0.0383,-0.1952 0.1176,-0.4682 0.5482,-0.6633 z m -0.5482,-1.8334 c -0.1176,-0.11700002 -0.2734,-0.27300002 -0.313,-0.42900004 0,-0.15600002 0.0778,-0.31220006 0.313,-0.35110006 0.1955,0 0.313,0.15600002 0.313,0.35100006 0,0.19500002 -0.1955,0.35100004 -0.313,0.42910004 z"
     fill="#717271"
     id="path2" />
</svg>
