<?xml version="1.0" encoding="UTF-8" standalone="no"?>
<svg
   version="1.0"
   width="448.31421pt"
   height="108.4723pt"
   viewBox="0 0 448.31422 108.47226"
   preserveAspectRatio="xMidYMid"
   id="svg16"
   sodipodi:docname="picsvg.svg"
   inkscape:version="1.4 (86a8ad7, 2024-10-11)"
   xmlns:inkscape="http://www.inkscape.org/namespaces/inkscape"
   xmlns:sodipodi="http://sodipodi.sourceforge.net/DTD/sodipodi-0.dtd"
   xmlns="http://www.w3.org/2000/svg"
   xmlns:svg="http://www.w3.org/2000/svg">
  <defs
     id="defs16">
    <rect
       x="450.08461"
       y="25.225981"
       width="13.276832"
       height="61.073429"
       id="rect17" />
  </defs>
  <sodipodi:namedview
     id="namedview16"
     pagecolor="#ffffff"
     bordercolor="#000000"
     borderopacity="0.25"
     inkscape:showpageshadow="2"
     inkscape:pageopacity="0.0"
     inkscape:pagecheckerboard="0"
     inkscape:deskcolor="#d1d1d1"
     inkscape:document-units="pt"
     inkscape:clip-to-page="false"
     inkscape:zoom="0.75319171"
     inkscape:cx="321.96318"
     inkscape:cy="306.03098"
     inkscape:window-width="1920"
     inkscape:window-height="1009"
     inkscape:window-x="-8"
     inkscape:window-y="-8"
     inkscape:window-maximized="1"
     inkscape:current-layer="g16" />
  <g
     transform="matrix(0.05,0,0,-0.05,-1.2472932,624.65008)"
     fill="#ff9117"
     stroke="none"
     id="g16">
    <path
       d="M 783,11416 C 362,10823 20,10333 25,10328 c 5,-4 698,-6 1540,-3 l 1532,5 -95,130 c -53,72 -320,445 -593,830 -497,701 -851,1198 -856,1203 -2,1 -348,-483 -770,-1077 z m 717,324 c 0,-394 -5,-480 -28,-480 -43,0 -79,-56 -91,-144 l -11,-80 -528,-248 c -568,-266 -577,-269 -487,-154 57,73 929,1298 1062,1491 36,52 69,95 74,95 5,0 9,-216 9,-480 z m 224,334 c 46,-68 308,-438 581,-821 274,-384 493,-701 489,-706 -5,-4 -89,32 -186,80 -208,103 -805,382 -847,396 -18,6 -30,39 -32,87 -2,61 -17,89 -66,130 l -63,53 v 465 c 0,306 7,460 20,452 11,-7 58,-68 104,-136 z m 456,-1368 c 259,-120 486,-225 505,-232 128,-47 -23,-54 -1135,-54 -1143,0 -1242,6 -1105,62 36,14 270,122 522,239 615,287 566,287 1213,-15 z"
       id="path1" />
    <path
       d="m 5750,12199 c -219,-18 -281,-79 -279,-281 1,-189 54,-228 353,-259 271,-29 300,-41 292,-124 l -6,-65 -165,-6 c -161,-5 -166,-4 -185,45 -18,48 -27,51 -162,51 h -143 l 10,-94 c 19,-166 115,-206 491,-206 372,0 464,57 464,290 0,211 -54,249 -415,288 -218,24 -225,27 -225,101 0,68 27,81 171,81 83,0 113,-9 134,-38 26,-38 276,-68 306,-37 32,31 -35,176 -97,209 -74,41 -332,62 -544,45 z"
       id="path2"
       style="fill:#000000" />
    <path
       d="m 3220,11730 v -470 h 150 150 v 175 175 l 220,-7 220,-7 v 107 107 l -220,-6 -220,-6 v 101 101 h 235 235 v 100 100 h -385 -385 z"
       id="path3"
       style="fill:#000000;fill-opacity:1" />
    <path
       d="m 4480,12193 c 0,-4 -72,-208 -160,-453 -88,-245 -160,-454 -160,-463 0,-9 71,-17 158,-17 h 159 l 28,85 28,85 h 187 186 l 23,-80 22,-80 165,-6 c 90,-3 164,0 164,6 0,10 -125,371 -272,785 l -52,145 h -238 c -131,0 -238,-3 -238,-7 z m 298,-328 c 22,-74 46,-160 53,-190 l 13,-55 h -131 c -129,0 -132,1 -115,46 10,25 37,110 61,190 53,178 69,179 119,9 z"
       id="path4"
       style="fill:#000000" />
    <path
       d="m 6846,12161 c -133,-61 -156,-123 -156,-431 0,-420 45,-460 520,-460 441,0 491,39 506,398 15,330 -33,455 -194,509 -118,40 -577,29 -676,-16 z m 510,-192 c 41,-29 44,-47 44,-238 0,-251 -6,-259 -204,-259 -185,0 -196,14 -196,271 0,233 19,257 200,257 68,0 128,-12 156,-31 z"
       id="path5"
       style="fill:#000000" />
    <path
       d="m 8034,11735 4,-465 151,-6 151,-6 v 141 141 h 126 c 156,0 174,-17 174,-164 v -116 h 160 160 l -1,135 c 0,156 -22,194 -131,233 -66,24 -72,30 -38,41 149,52 170,84 170,264 0,216 -120,267 -626,267 h -304 z m 595,221 c 83,-120 8,-216 -169,-216 h -120 v 130 130 h 129 c 110,0 133,-6 160,-44 z"
       id="path6"
       style="fill:#000000" />
    <text
       xml:space="preserve"
       style="font-weight:bold;font-size:560px;line-height:0;font-family:'0xProto Nerd Font';-inkscape-font-specification:'0xProto Nerd Font Bold';text-align:start;letter-spacing:222.45px;writing-mode:lr-tb;direction:ltr;text-anchor:start;white-space:pre;inline-size:7074.95;fill:#000000;fill-opacity:1;stroke-width:15"
       x="3151.6399"
       y="-10441.731"
       id="text16"
       transform="matrix(1,0,0,-1,79.660994,39.830497)"><tspan
         x="3151.6399"
         y="-10441.731"
         id="tspan2"><tspan
           dx="0 0 0 0 0 0 0 0.00028991699"
           style="font-weight:normal;font-family:'TT Lakes';-inkscape-font-specification:'TT Lakes'"
           id="tspan1">ENGENHARIA</tspan></tspan></text>
    <text
       xml:space="preserve"
       transform="matrix(15,0,0,-15,24.945864,12493.002)"
       id="text17"
       style="fill:#000000;text-orientation:auto;font-size:58.66666667px;-inkscape-font-specification:'0xProto Nerd Font Bold';font-family:'0xProto Nerd Font';font-weight:bold;text-align:start;writing-mode:lr-tb;direction:ltr;fill-opacity:1;white-space:pre;shape-inside:url(#rect17)" />
  </g>
</svg>
