<?xml version="1.0" encoding="UTF-8" standalone="no"?>
<svg
   version="1.1"
   id="Layer_1"
   x="0px"
   y="0px"
   width="100%"
   viewBox="0 0 107 112"
   enable-background="new 0 0 107 112"
   xml:space="preserve"
   sodipodi:docname="file.svg"
   inkscape:version="1.4 (86a8ad7, 2024-10-11)"
   xmlns:inkscape="http://www.inkscape.org/namespaces/inkscape"
   xmlns:sodipodi="http://sodipodi.sourceforge.net/DTD/sodipodi-0.dtd"
   xmlns="http://www.w3.org/2000/svg"
   xmlns:svg="http://www.w3.org/2000/svg"><defs
   id="defs11" /><sodipodi:namedview
   id="namedview11"
   pagecolor="#ffffff"
   bordercolor="#000000"
   borderopacity="0.25"
   inkscape:showpageshadow="2"
   inkscape:pageopacity="0.0"
   inkscape:pagecheckerboard="0"
   inkscape:deskcolor="#d1d1d1"
   inkscape:zoom="7.2053571"
   inkscape:cx="45.174721"
   inkscape:cy="27.687732"
   inkscape:window-width="1920"
   inkscape:window-height="1009"
   inkscape:window-x="-8"
   inkscape:window-y="-8"
   inkscape:window-maximized="1"
   inkscape:current-layer="Layer_1" />

<path
   fill="#253589"
   opacity="1.000000"
   stroke="none"
   d=" M39.088383,59.874813   C39.088383,59.874813 39.499870,59.969940 40.173935,59.968086   C45.261459,59.935760 49.674919,59.905289 54.088379,59.874813   C54.392315,58.377701 54.954025,56.881683 54.960388,55.383308   C55.025410,40.069706 55.000187,24.755718 55.000187,8.133217   C57.195305,10.056707 58.568188,11.504476 60.170822,12.623080   C68.619492,18.520063 71.269424,26.486158 70.161995,36.614090   C69.338493,44.145370 69.999825,51.839008 70.766006,59.464005   C70.766006,50.559616 70.766006,41.655224 70.766006,31.441822   C74.271172,35.849655 77.078979,39.380535 79.886787,42.911415   C80.497253,42.483936 81.107719,42.056458 81.718185,41.628979   C81.718185,38.960735 81.718185,36.292488 81.718185,33.624245   C82.173706,33.282677 82.629234,32.941109 83.084755,32.599537   C84.055519,33.576313 85.846153,34.534046 85.869354,35.532829   C86.085167,44.824989 85.997040,54.124210 85.997040,63.709530   C64.991898,63.709530 44.276409,63.709530 23.000172,63.709530   C23.000172,43.104977 23.000172,22.521145 23.000086,1.468657   C33.020893,1.000000 43.041790,1.000000 53.531342,1.000000   C54.000000,2.160418 54.000000,3.320836 54.000000,4.871981   C45.102444,4.871981 36.354084,4.871981 27.014204,4.871981   C27.014204,17.162518 27.014204,29.072506 27.023397,41.914169   C27.032591,48.434940 27.032591,54.024036 27.032591,59.874813   C31.500654,59.874813 35.294518,59.874813 39.088383,59.874813  z"
   id="path2" />
<path
   fill="#253589"
   opacity="1.000000"
   stroke="none"
   d=" M1.000000,71.468658   C13.119809,71.000000 25.239618,71.000000 37.678913,71.000000   C37.678913,76.618172 37.678913,82.011536 37.678913,87.808815   C35.716499,87.808815 33.656639,87.808815 31.596779,87.808815   C38.181210,90.223289 39.145542,94.908798 37.398762,101.452797   C33.995865,99.859932 30.660851,98.338341 27.361406,96.743164   C24.148045,95.189606 21.077408,93.277771 17.754034,92.029137   C12.327214,89.990173 9.104074,86.966476 11.606819,80.189445   C17.141617,80.189445 23.202974,80.189445 29.264330,80.189445   C29.263048,79.904533 29.261766,79.619614 29.260487,79.334702   C22.705873,79.334702 16.151262,79.334702 9.136280,79.334702   C9.136280,85.332031 9.136280,91.396736 9.136280,97.999840   C6.442414,97.999840 4.175244,97.999840 1.454037,97.999924   C1.000000,89.312439 1.000000,80.624870 1.000000,71.468658  z"
   id="path3" />
<path
   fill="#253589"
   opacity="1.000000"
   stroke="none"
   d=" M108.000000,97.541931   C98.214806,98.000000 88.429611,98.000000 78.323044,98.000000   C78.323044,89.067291 78.323044,80.355240 78.323044,71.319885   C80.620972,71.319885 83.013596,71.319885 85.856750,71.319885   C85.856750,77.302574 85.856750,83.366104 85.856750,89.936874   C90.537918,89.936874 96.111938,91.581383 98.709885,89.504021   C101.690300,87.120850 104.142731,87.220177 107.550797,87.000076   C108.000000,90.361290 108.000000,93.722572 108.000000,97.541931  z"
   id="path4" />
<path
   fill="#97969A"
   opacity="1.000000"
   stroke="none"
   d=" M85.531342,1.000000   C85.999901,9.466962 86.123619,17.937151 85.903084,26.398369   C85.854576,28.259127 84.583290,30.088013 83.875092,31.931574   C83.250160,30.004740 82.150024,28.093477 82.086296,26.148256   C81.864037,19.364578 82.000305,12.569153 82.000305,4.998558   C74.003227,4.998558 66.275703,4.938755 58.550106,5.034738   C56.210545,5.063805 54.576252,4.731450 55.001133,1.432912   C65.020897,1.000000 75.041786,1.000000 85.531342,1.000000  z"
   id="path5" />
<path
   fill="#253589"
   opacity="1.000000"
   stroke="none"
   d=" M61.859840,87.999825   C57.421421,87.999825 53.460323,87.999825 49.254494,87.999825   C49.254494,85.253883 49.254494,82.861862 49.254494,80.232269   C58.111820,80.232269 66.834259,80.232269 75.778458,80.232269   C75.778458,86.030640 75.778458,91.636940 75.778458,97.622597   C63.842236,97.622597 51.791904,97.622597 39.369720,97.622597   C39.369720,89.157547 39.369720,80.435455 39.369720,71.355171   C51.203220,71.355171 63.250942,71.355171 75.650436,71.355171   C75.650436,73.566460 75.650436,75.958038 75.650436,78.811516   C66.751411,78.811516 57.684273,78.811516 48.312004,78.811516   C48.312004,82.631844 48.312004,86.024895 48.312004,89.691635   C54.807976,89.691635 61.324463,89.691635 67.840950,89.691635   C67.887756,89.281898 67.934570,88.872169 67.981377,88.462433   C66.099976,88.308228 64.218567,88.154030 61.859840,87.999825  z"
   id="path6" />
<path
   fill="#97969A"
   opacity="1.000000"
   stroke="none"
   d=" M54.054798,59.415848   C49.674919,59.905289 45.261459,59.935760 40.379688,59.920578   C39.941017,49.381897 40.290405,38.875874 39.864349,28.401390   C39.653782,23.224634 41.066330,19.447887 45.085747,16.376570   C47.924511,14.207410 50.607159,11.833933 54.021214,9.002974   C54.021214,26.145792 54.021214,42.551334 54.054798,59.415848  z"
   id="path7" />
<path
   fill="#97969A"
   opacity="1.000000"
   stroke="none"
   d=" M39.054798,59.415848   C35.294518,59.874813 31.500654,59.874813 27.032591,59.874813   C27.032591,54.024036 27.032591,48.434940 27.076847,42.373917   C30.721664,38.589111 34.322227,35.276230 39.021214,30.952684   C39.021214,41.181770 39.021214,50.069328 39.054798,59.415848  z"
   id="path8" />



<text
   xml:space="preserve"
   style="font-size:16px;line-height:0;font-family:'TT Lakes';-inkscape-font-specification:'TT Lakes';text-align:start;letter-spacing:14.83px;writing-mode:lr-tb;direction:ltr;text-anchor:start;fill:#000000"
   x="7.6332092"
   y="105.33829"
   id="text11"><tspan
     sodipodi:role="line"
     id="tspan11"
     x="7.6332092"
     y="105.33829" /></text><text
   xml:space="preserve"
   style="font-size:14.1593px;line-height:0;font-family:'TT Lakes';-inkscape-font-specification:'TT Lakes';text-align:start;letter-spacing:0px;writing-mode:lr-tb;direction:ltr;text-anchor:start;fill:#97969a;fill-opacity:1;stroke-width:0.884956"
   x="-0.61409545"
   y="124.63321"
   id="text12"
   transform="scale(1.1299994,0.88495622)"><tspan
     sodipodi:role="line"
     id="tspan12"
     x="-0.61409545"
     y="124.63321"
     style="fill:#97969a;fill-opacity:1;stroke-width:0.884956"
     dy="1.0619475">ENGENHARIA</tspan></text></svg>
