<?xml version="1.0" encoding="UTF-8" standalone="no"?>
<svg
   version="1.1"
   style="display:block"
   viewBox="0 0 1810.7132 532.441"
   width="672.82849"
   height="197.93346"
   preserveAspectRatio="none"
   id="svg25"
   sodipodi:docname="stone-equipamentos.svg"
   inkscape:version="1.4 (86a8ad7, 2024-10-11)"
   xmlns:inkscape="http://www.inkscape.org/namespaces/inkscape"
   xmlns:sodipodi="http://sodipodi.sourceforge.net/DTD/sodipodi-0.dtd"
   xmlns="http://www.w3.org/2000/svg"
   xmlns:svg="http://www.w3.org/2000/svg">
  <defs
     id="defs25" />
  <sodipodi:namedview
     id="namedview25"
     pagecolor="#ffffff"
     bordercolor="#000000"
     borderopacity="0.25"
     inkscape:showpageshadow="2"
     inkscape:pageopacity="0.0"
     inkscape:pagecheckerboard="0"
     inkscape:deskcolor="#d1d1d1"
     inkscape:zoom="1.32"
     inkscape:cx="339.77273"
     inkscape:cy="83.712121"
     inkscape:window-width="1920"
     inkscape:window-height="1009"
     inkscape:window-x="-8"
     inkscape:window-y="-8"
     inkscape:window-maximized="1"
     inkscape:current-layer="svg25" />
  <path
     fill="#048462"
     d="m 1143.5352,217.448 c 64.34,-8.977 123.81,35.836 132.9,100.161 9.1,64.326 -35.6,123.871 -99.91,133.087 -64.48,9.24 -124.21,-35.606 -133.34,-100.1 -9.12,-64.494 35.84,-124.146 100.35,-133.148 z m 27.05,190.884 c 40.5,-5.867 68.8,-43.154 63.55,-83.74 -5.26,-40.586 -42.11,-69.443 -82.77,-64.808 -26.86,3.062 -49.98,20.357 -60.51,45.254 -10.52,24.897 -6.82,53.534 9.7,74.932 16.52,21.398 43.28,32.237 70.03,28.362 z"
     id="path1" />
  <path
     fill="#06573e"
     d="m 186.21215,222.146 c -9.287,-6.27 -29.567,-14.61 -33.741,-22.303 -0.091,-1.566 -0.385,-3.879 1.219,-5.006 23.381,-16.411 48.531,-30.904 73.632,-44.635 9.764,-5.341 15.008,-5.543 24.423,-0.069 41.038,23.86 81.13,49.341 121.948,73.577 l 60.712,36.27 c 10.145,6.093 21.626,12.28 30.904,19.516 3.677,2.867 4.2,9.396 4.181,14.051 -0.149,36.843 -1.072,74.409 -2.374,111.159 -8.715,7.31 -30.158,18.307 -41.454,24.19 -17.897,9.321 -44.362,25.51 -62.494,33.154 -13.375,-5.862 -28.598,-15.8 -41.234,-23.435 -12.519,-7.564 -26.199,-15.208 -38.393,-23.104 0.909,-5.477 1.978,-11.138 0.493,-16.488 25.246,-15.418 63.398,-33.629 85.989,-49.507 -0.366,-6.522 -0.203,-11.176 0.115,-17.722 -9.235,-6.224 -20.202,-12.336 -29.931,-18.005 l -99.34,-59.448 c -14.792,-8.956 -39.56,-25.278 -54.655,-32.195 z"
     id="path2" />
  <path
     fill="#15bd99"
     d="m 111.30315,72.892 c 9.942,1.173 29.859,14.998 39.147,21.043 14.805,9.633 37.197,19.267 50.738,29.184 l 0.138,2.443 c -8.026,14.708 -70.224,40.538 -86.155,52.44 -5.238,3.914 -3.745,17.482 -4.248,25.334 8.257,10.292 52.05,31.177 65.997,39.526 l 108.832,65.404 c 13.569,8.267 26.367,17.03 40.164,25.227 -10.369,10.562 -25.605,18.741 -38.475,26.241 -9.311,5.826 -42.958,26.194 -51.871,25.797 -6.064,-0.269 -40.274,-22.491 -48.163,-27.141 L 93.994154,302.68 c -15.353,-9.392 -30.773,-18.673 -46.259,-27.843 -12.821,-7.491 -28.248,-15.881 -40.1680003,-24.459 -5.648,-27.659 0.163,-88.109 0.723,-118.365 0.109,-5.89 91.7439963,-53.204 103.0129963,-59.121 z"
     id="path3" />
  <path
     fill="#048462"
     d="m 1637.0252,216.856 c 35.76,-0.209 71.51,-0.218 107.26,-0.026 10.94,0.012 57.48,-2.18 63.76,3.292 2.15,10.791 3.02,17.005 1.36,28.045 -0.88,3.375 -1.87,6.934 -2.51,10.345 l -13.01,0.751 c -24.57,0.981 -151.91,-2.97 -166.09,2.634 -5.78,4.054 -8.7,7.546 -9.96,14.774 -0.55,3.278 -0.91,6.587 -1.06,9.909 0.25,5.092 0.34,9.311 1.31,14.334 30.55,0.831 62,-0.123 92.6,-0.017 14.17,0.05 40.26,-1.33 53.73,1.062 1.59,8.662 6.78,40.94 -5.96,41.537 -46.23,2.166 -93.81,-0.994 -140.19,1.314 -9.06,71.517 3.59,65.499 65.54,64.763 25.58,-0.31 51.17,-0.455 76.75,-0.436 37.19,-0.044 60.59,-6.49 45.53,41.688 -25.66,3.447 -58.83,0.418 -85.27,0.413 -32.5,-0.006 -68.73,2.488 -100.42,-1.551 -18.13,-2.311 -44.31,-28.985 -45.37,-48.1 -0.8,-14.341 -0.92,-27.542 -0.88,-41.898 0.18,-24.176 0.08,-48.353 -0.29,-72.526 0.05,-27.538 4.07,-42.877 27.42,-59.313 l 5.96,-3.007 c 7.85,-3.812 12.48,-5.608 21.06,-7.009 2.05,-0.032 6.51,-0.709 8.73,-0.978 z"
     id="path4" />
  <path
     fill="#15bd99"
     d="m 240.68415,0 c 7.555,1.607 123.53,74.448 138.557,83.483 l 51.901,30.937 c 13.005,7.636 29.271,14.627 37.67,26.739 1.208,14.844 0.502,32.471 0.336,47.684 -0.182,16.718 0.011,35.508 -1.507,51.964 -20.547,-9.852 -35.678,-21.699 -55.181,-32.108 -4.045,-1.919 -8.08,-4.292 -11.892,-6.642 -23.504,-14.486 -47.25,-28.425 -71.138,-42.249 -46.744,-27.046 -93.152,-54.669 -139.213,-82.862 -12.328,-7.633 -27.715,-15.364 -38.942,-23.118 13.597,-16.058 54.677,-33.15 73.592,-45.075 3.908,-2.464 11.795,-7.441 15.817,-8.753 z"
     id="path5" />
  <path
     fill="#048462"
     d="m 630.73815,407.964 c 21.678,0.8 56.397,2.381 76.024,-4.471 14.911,-5.205 22.405,-28.607 13.886,-41.694 -3.921,-6.023 -8.581,-12.12 -15.986,-13.91 -34.034,-9.537 -82.64,3.161 -115.697,-6.533 -51.663,-15.15 -55.224,-97.131 -5.607,-117.651 23.792,-9.84 47.319,-5.933 72.187,-6.24 16.506,-0.204 34.938,-1.337 50.744,0.209 6.992,0.657 13.865,2.245 20.437,4.722 22.101,8.279 35.533,25.147 38.766,48.47 0.469,3.379 0.717,5.255 -0.531,8.51 -3.266,2.427 -16.234,2.813 -20.695,2.688 -14.86,-0.418 -20.978,-6.553 -30.453,-16.66 -7.584,-7.126 -26.733,-7.058 -36.805,-6.392 -22.667,1.499 -61.996,-3.952 -81.54,5.94 -38.4,58.902 89.142,36.704 117.7,41.853 20.075,6.316 35.904,17.239 45.918,36.09 8.209,15.451 8.399,42.101 3.235,58.003 -10.008,30.813 -40.334,50.14 -72.363,47.881 -14.384,-1.015 -29.815,0.251 -44.252,-0.355 -16.751,-0.067 -34.575,1.755 -50.789,-3.152 -11.931,-3.715 -27.546,-16.03 -34.143,-26.468 -9.031,-12.151 -12.373,-26.334 -11.611,-41.252 7.825,-3.156 27.784,-1.193 36.563,-0.316 5.826,10.167 11.234,23.076 22.27,27.667 7.797,2.212 14.677,2.581 22.742,3.061 z"
     id="path6" />
  <path
     fill="#06573e"
     d="m 1.9241537,299.425 c 4.66,0.379 6.555,0.84 10.6750003,3.174 54.014,30.605 106.968996,62.941 160.421996,94.508 33.589,19.688 66.984,39.704 100.18,60.048 14.849,9.123 33.281,17.132 43.744,30.761 -11.832,5.411 -22.032,10.72 -33.535,16.847 -18.303,8.579 -30.969,19.736 -51.999,27.678 -13.191,-5.536 -31.036,-17.243 -43.789,-24.936 l -75.236,-45.528 C 86.798154,446.571 60.710154,431.972 35.264154,416.33 c -12.107,-7.442 -23.591,-13.66 -34.95200026,-22.408 -0.282,-4.205 -0.38,-8.539 -0.265,-12.753 0.737,-27.083 0.108,-54.736 1.87699996,-81.744 z"
     id="path7" />
  <path
     fill="#048462"
     d="m 1506.2152,220.405 c 10.25,-0.783 20.56,-0.608 30.78,0.521 0.25,1.499 0.47,3.003 0.67,4.511 1.63,12.627 1.3,29.458 1.35,42.503 0.14,20.787 0.16,41.574 0.04,62.36 -0.07,16.712 1.48,110.24 -3.5,116.705 -10.8,-3.239 -51.14,-36.863 -63.51,-46.383 l -93.43,-71.822 c -10.24,-7.741 -19.88,-13.163 -30.24,-20.345 -1.01,24.225 -1.39,48.473 -1.12,72.718 0.03,13.365 0.97,59.971 -1.46,68.839 -2.39,1.298 -6.87,1.069 -9.76,1.143 -9.51,0.062 -17.39,0.04 -26.9,-0.576 -2.21,-21.745 -0.59,-71.56 -0.67,-95.626 l -0.27,-75.992 c -0.06,-17.022 -0.49,-36.996 1.04,-53.811 12.12,6.463 21,14.863 31.96,23.144 l 61.42,47.054 c 30.63,23.685 64.66,47.087 93.89,71.31 2.12,-11.94 1.64,-31.105 1.64,-43.674 0.02,-20.534 -0.07,-41.068 -0.28,-61.601 -0.1,-9.127 -1.09,-29.568 1.6,-37.731 2.86,-2.88 2.33,-2.072 6.75,-3.247 z"
     id="path8" />
  <path
     fill="#048462"
     d="m 803.81815,217.938 c 12.647,-1.404 31.182,-0.895 44.376,-0.868 l 70.731,0.135 71.8,-0.036 c 11.67005,-0.002 30.14005,-0.527 41.43005,0.693 -0.02,13.5 0.28,28.348 -0.13,41.736 -8.86,-0.656 -89.23005,-1.12 -93.56005,1.903 -6.65,19.794 5.34,180.073 -5.17,185.174 -8.99,4.359 -27.51,2.756 -37.67,1.804 -2.87,-30.46 0.49,-66.916 -1.59,-97.742 0.4,-6.644 0.36,-10.821 0.02,-17.48 0.4,-24.475 0.61,-48.952 0.62,-73.43 -19.127,-0.259 -38.25,-0.326 -57.374,-0.204 -9.474,0.04 -25.41,0.557 -34.32,-0.201 -2.243,-17.068 -3.728,-24.673 0.837,-41.484 z"
     id="path9" />
  <path
     fill="#06573e"
     d="m 697.79515,169.189 -0.292,2.353 -1.889,1.011 c -15.996,-1.321 -33.739,4.901 -47.538,-4.685 -15.885,-11.034 -17.145,-41.506 -6.302,-56.15 4.591,-6.172 11.444,-10.27 19.053,-11.397 29.263,-4.331 39.236,12.566 42.544,38.077 -1.653,7.727 -5.479,23.785 -5.576,30.791 z m -27.555,-14.315 c -3.773,-2.453 -3.321,-1.325 -4.253,-4.893 1.411,-4.223 4.802,-6.491 8.702,-8.248 3.971,-1.79 3.552,4.011 8.568,4.54 9.996,-8.29 -0.459,-31.403 -15.756,-32.112 -34.033,5.968 -11.971,56.937 4.929,42.986 l -0.222,-1.672 z"
     id="path10" />
  <path
     fill="#06573e"
     d="m 1419.0052,100.204 c 7.85,-0.637 17.48,-0.859 24.27,3.438 26.44,16.721 23.57,60.652 -8.48,69.26 -7.9,0.869 -14.84,0.76 -22.21,-2.466 -8.39,-3.695 -14.93,-10.606 -18.16,-19.178 -6.24,-16.307 -1.46,-38.5 14.91,-47.066 3.09,-1.615 6.4,-2.784 9.67,-3.988 z m 8.25,59.671 c 29.82,-8.315 15.28,-51.36 -2.39,-45.956 -25.81,7.876 -18.79,46.363 2.39,45.956 z"
     id="path11" />
  <path
     fill="#06573e"
     d="m 1077.2352,150.078 c 9.72,-15.892 13.72,-59.372 37.86,-48.438 2.46,4.901 0.42,59.76 0.64,68.865 0.05,2.039 -3.64,3.251 -5.86,3.626 l -1.13,-0.398 c -3.13,-0.642 -5.27,-0.378 -6.81,-2.765 -4.47,-6.928 -1.29,-33.333 -3.51,-36.774 -8.04,4.287 -9.13,40.613 -22.47,39.373 -11.7,-7.071 -15.13,-41.209 -19.2,-41.269 -2.26,7.602 -2.72,31.802 -2.65,40.408 -4.93,0.071 -10.14,0.278 -15.03,-0.16 -0.11,-11.073 -1.85,-64.258 0.93,-70.544 3.41,-2.754 15.23,-2.342 17.33,1.125 8.85,14.644 11.34,31.867 19.9,46.951 z"
     id="path12" />
  <path
     fill="#06573e"
     d="m 1268.1552,147.897 c 1.52,-11.476 -1.04,-40.463 1.91,-45.546 3.57,-3.266 9.6,-3.695 13.17,-0.265 3.18,6.098 1.86,60.253 1.13,70.641 -15.6,1.672 -19.65,-5.008 -27.23,-17.606 -5.51,-9.151 -11.86,-18.268 -16.38,-27.913 -1.28,7.669 -1.17,41.893 -3.13,45.03 -3.77,1.333 -8.37,1.064 -12.03,-0.574 -3.39,-3.686 -2.83,-58.145 -1.66,-67.329 0.17,-1.307 2.05,-3.258 3.1,-4.24 12.94,-0.858 16.43,6.599 22.92,16.766 6.36,9.976 12.52,20.643 18.2,31.036 z"
     id="path13" />
  <path
     fill="#06573e"
     d="m 869.53715,100.173 c 14.911,-0.137 24.648,-0.483 39.278,3.223 4.56,4.91 6.3,7.164 10.03,12.744 2.14,22.703 -3.46,33.606 -27.76,35.383 l -11.253,-0.083 c -1.456,8.993 1.459,15.476 -3.776,20.765 -3.916,1.529 -9.087,0.487 -13.401,0.012 -0.784,-11.747 -1.543,-58.351 0.177,-67.672 2.637,-3.373 2.161,-2.455 6.705,-4.372 z m 9.248,36.646 c 8.478,0.917 12.62,1.786 20.64,-1.76 10.22,-18.631 -4.1,-22.011 -20.17,-20.032 -1.334,7.94 -1.456,13.724 -0.47,21.792 z"
     id="path14" />
  <path
     fill="#06573e"
     d="m 561.14115,100.19 c 12.466,-0.013 35.501,-0.663 47.231,1.828 -0.15,4.176 -0.247,8.354 -0.291,12.532 -11.463,0.363 -23.565,0.315 -35.083,0.458 l -0.004,14.778 c 9.242,0.378 19.067,0.154 28.354,0.105 0.918,3.283 2.108,6.157 0.888,9.331 -8.909,8.386 -20.609,-3.998 -30.267,9.213 l 3.986,10.057 c 8.338,0.303 16.601,-0.769 24.979,0.027 6.769,0.643 10.812,6.899 6.832,12.778 -9.159,3.027 -40.104,1.752 -50.655,1.036 -1.741,-20.328 -0.665,-41.695 -0.757,-62.127 -0.024,-5.498 0.255,-7.162 4.787,-10.016 z"
     id="path15" />
  <path
     fill="#06573e"
     d="m 972.63515,99.756 c 3.09,0.37 10.94,1.078 12.83,3.982 2.83,4.553 7.71,15.749 8.75,20.723 1.64,7.871 18.24005,42.612 17.84005,46.104 -1.21,1.559 -1.81,2.407 -3.27,3.258 -7.22,4.196 -16.06005,-8.265 -18.59005,-13.707 -1.19,-0.374 -2.23,-0.7 -3.11,-0.978 -6.99,0.481 -14.68,0.443 -21.73,0.549 -2.6,7.412 -4.81,13.434 -13.43,13.051 -2.56,-0.114 -4.41,0.248 -6.41,-1.62 -0.76,-5.72 22.61,-64.853 27.12,-71.362 z m 4.2,47.459 c 2.78,-0.178 7.31,-0.022 9.13,-1.853 -0.52,-3.665 -3.4,-18.561 -5.9,-20.741 -2.79,4.781 -10.04,14.749 -9.35,20.47 0.24,2.065 4.34,2.082 6.12,2.124 z"
     id="path16" />
  <path
     fill="#06573e"
     fill-opacity="0.988235"
     d="m 1149.0852,100.167 c 2.5,-0.091 10.71,-0.407 12.76,0.041 7.5,1.638 45.11,-5.36 34.55,12.393 -9.43,5.998 -27.29,-2.732 -35.68,5.323 -1.08,1.993 -2.05,5.865 -1.12,7.846 5.59,11.811 27.36,-4.279 31.67,11.858 -2.97,11.594 -21.8,0.811 -31.11,7.753 -5.59,24.984 27.97,5.33 37.8,17.231 1.01,3.691 0.73,4.516 -0.16,8.297 -4.81,4.04 -44.09,2.088 -52.46,1.543 0.13,-21.12 -0.5,-42.278 -0.21,-63.366 0.07,-5.016 0.68,-5.933 3.96,-8.919 z"
     id="path17" />
  <path
     fill="#06573e"
     d="m 1503.4052,171.401 c -7.67,-4 -16.13,-10.582 -13.9,-20.122 8.79,-9.884 28.63,22.956 39.85,1.354 0.72,-13.702 -61.82,-10.687 -34.07,-45.661 13.27,-16.73 49.36,-1.881 47.34,12.583 l -1.99,1.378 c -8.95,1.101 -16.45,-3.987 -24.29,-8.062 l -11.67,2.626 c 0.73,3.924 1.2,8.207 1.72,12.188 11.35,2.21 27.1,3.787 35.25,12.639 10.15,11.027 2.74,21.032 -5.83,28.868 -9.96,4.99 -21.79,4.986 -32.41,2.209 z"
     id="path18" />
  <path
     fill="#06573e"
     fill-opacity="0.988235"
     d="m 1316.3952,100.279 c 8.42,0.14 44.78,-0.725 49.94,1.74 1.57,3.41 0.81,8.761 0.59,12.691 l -20.86,0.31 0.21,41.029 0.2,16.745 c -4.45,0.115 -8.88,0.592 -13.02,-0.956 -6.44,-6.061 -0.03,-41.383 -2.75,-54.048 -3.98,-4.12 -13.19,-3.31 -19.28,-3.427 -0.45,-3.629 -1.15,-7.448 -0.54,-11.025 2.18,-2.963 1.29,-2.086 5.51,-3.059 z"
     id="path19" />
  <path
     fill="#06573e"
     d="m 769.43015,172.694 c -46.53,5.277 -40.745,-28.722 -41.147,-62.161 -0.198,-16.416 16.939,-12.723 17.063,-1.552 0.169,15.205 -1.715,30.134 1.275,45.277 l 0.471,0.293 c 8.273,5.054 9.92,4.852 18.959,2.679 1.754,4.25 2.794,10.815 3.379,15.464 z"
     id="path20" />
  <path
     fill="#06573e"
     d="m 820.23715,100.189 c 4.734,-0.274 12.842,-1.333 13.421,5.322 1.291,14.867 -0.741,29.862 -0.467,44.851 0.105,5.779 0.687,18.559 -2.247,22.916 -16.424,0.892 -13.586,-3.37 -13.84,-18.229 -0.284,-16.582 -0.063,-33.432 0.383,-49.979 0.058,-2.179 1.437,-3.318 2.75,-4.881 z"
     id="path21" />
  <path
     fill="#06573e"
     d="m 773.11115,104.055 c 3.062,3.286 9.738,11.622 13.409,12.58 l 2.141,-0.785 c -0.055,22.239 5.5,45.971 -19.231,56.844 -0.585,-4.649 -1.625,-11.214 -3.379,-15.464 5.059,-3.675 6.445,-5.783 7.009,-12.196 1.169,-13.309 0.932,-27.635 0.051,-40.979 z"
     id="path22" />
  <path
     fill="#06573e"
     fill-opacity="0.988235"
     d="m 773.11115,104.055 c 4.065,-7.242 10.21,-7.069 14.591,-0.113 2.252,3.576 1.24,7.759 0.959,11.908 l -2.141,0.785 c -3.671,-0.958 -10.347,-9.294 -13.409,-12.58 z"
     id="path23" />
  <path
     fill="#048462"
     fill-opacity="0.984314"
     d="m 284.03415,399.023 c 1.485,5.35 0.416,11.011 -0.493,16.488 -2.663,-2.012 -8.238,-8.011 -10.851,-10.699 3.009,-1.83 8.059,-4.152 11.344,-5.789 z"
     id="path24" />
  <path
     fill="#06573e"
     fill-opacity="0.133333"
     d="m 792.01215,109.49 c 2.402,4.713 1.039,20.908 0.533,26.405 -1.764,-7.423 -1.866,-18.919 -0.533,-26.405 z"
     id="path25" />
</svg>
