<svg version="1.1" xmlns="http://www.w3.org/2000/svg" style="display: block;" viewBox="0 0 2048 807" width="761" height="300" preserveAspectRatio="none">
<path transform="translate(0,0)" fill="rgb(4,132,98)" d="M 1253.53 394.548 C 1317.87 385.571 1377.34 430.384 1386.43 494.709 C 1395.53 559.035 1350.83 618.58 1286.52 627.796 C 1222.04 637.036 1162.31 592.19 1153.18 527.696 C 1144.06 463.202 1189.02 403.55 1253.53 394.548 z M 1280.58 585.432 C 1321.08 579.565 1349.38 542.278 1344.13 501.692 C 1338.87 461.106 1302.02 432.249 1261.36 436.884 C 1234.5 439.946 1211.38 457.241 1200.85 482.138 C 1190.33 507.035 1194.03 535.672 1210.55 557.07 C 1227.07 578.468 1253.83 589.307 1280.58 585.432 z"/>
<path transform="translate(0,0)" fill="rgb(6,87,62)" d="M 296.207 399.246 C 286.92 392.976 266.64 384.636 262.466 376.943 C 262.375 375.377 262.081 373.064 263.685 371.937 C 287.066 355.526 312.216 341.033 337.317 327.302 C 347.081 321.961 352.325 321.759 361.74 327.233 C 402.778 351.093 442.87 376.574 483.688 400.81 L 544.4 437.08 C 554.545 443.173 566.026 449.36 575.304 456.596 C 578.981 459.463 579.504 465.992 579.485 470.647 C 579.336 507.49 578.413 545.056 577.111 581.806 C 568.396 589.116 546.953 600.113 535.657 605.996 C 517.76 615.317 491.295 631.506 473.163 639.15 C 459.788 633.288 444.565 623.35 431.929 615.715 C 419.41 608.151 405.73 600.507 393.536 592.611 C 394.445 587.134 395.514 581.473 394.029 576.123 C 419.275 560.705 457.427 542.494 480.018 526.616 C 479.652 520.094 479.815 515.44 480.133 508.894 C 470.898 502.67 459.931 496.558 450.202 490.889 L 350.862 431.441 C 336.07 422.485 311.302 406.163 296.207 399.246 z"/>
<path transform="translate(0,0)" fill="rgb(21,189,153)" d="M 221.298 249.992 C 231.24 251.165 251.157 264.99 260.445 271.035 C 275.25 280.668 297.642 290.302 311.183 300.219 L 311.321 302.662 C 303.295 317.37 241.097 343.2 225.166 355.102 C 219.928 359.016 221.421 372.584 220.918 380.436 C 229.175 390.728 272.968 411.613 286.915 419.962 L 395.747 485.366 C 409.316 493.633 422.114 502.396 435.911 510.593 C 425.542 521.155 410.306 529.334 397.436 536.834 C 388.125 542.66 354.478 563.028 345.565 562.631 C 339.501 562.362 305.291 540.14 297.402 535.49 L 203.989 479.78 C 188.636 470.388 173.216 461.107 157.73 451.937 C 144.909 444.446 129.482 436.056 117.562 427.478 C 111.914 399.819 117.725 339.369 118.285 309.113 C 118.394 303.223 210.029 255.909 221.298 249.992 z"/>
<path transform="translate(0,0)" fill="rgb(4,132,98)" d="M 1747.02 393.956 C 1782.78 393.747 1818.53 393.738 1854.28 393.93 C 1865.22 393.942 1911.76 391.75 1918.04 397.222 C 1920.19 408.013 1921.06 414.227 1919.4 425.267 C 1918.52 428.642 1917.53 432.201 1916.89 435.612 L 1903.88 436.363 C 1879.31 437.344 1751.97 433.393 1737.79 438.997 C 1732.01 443.051 1729.09 446.543 1727.83 453.771 C 1727.28 457.049 1726.92 460.358 1726.77 463.68 C 1727.02 468.772 1727.11 472.991 1728.08 478.014 C 1758.63 478.845 1790.08 477.891 1820.68 477.997 C 1834.85 478.047 1860.94 476.667 1874.41 479.059 C 1876 487.721 1881.19 519.999 1868.45 520.596 C 1822.22 522.762 1774.64 519.602 1728.26 521.91 C 1719.2 593.427 1731.85 587.409 1793.8 586.673 C 1819.38 586.363 1844.97 586.218 1870.55 586.237 C 1907.74 586.193 1931.14 579.747 1916.08 627.925 C 1890.42 631.372 1857.25 628.343 1830.81 628.338 C 1798.31 628.332 1762.08 630.826 1730.39 626.787 C 1712.26 624.476 1686.08 597.802 1685.02 578.687 C 1684.22 564.346 1684.1 551.145 1684.14 536.789 C 1684.32 512.613 1684.22 488.436 1683.85 464.263 C 1683.9 436.725 1687.92 421.386 1711.27 404.95 L 1717.23 401.943 C 1725.08 398.131 1729.71 396.335 1738.29 394.934 C 1740.34 394.902 1744.8 394.225 1747.02 393.956 z"/>
<path transform="translate(0,0)" fill="rgb(21,189,153)" d="M 350.679 177.1 C 358.234 178.707 474.209 251.548 489.236 260.583 L 541.137 291.52 C 554.142 299.156 570.408 306.147 578.807 318.259 C 580.015 333.103 579.309 350.73 579.143 365.943 C 578.961 382.661 579.154 401.451 577.636 417.907 C 557.089 408.055 541.958 396.208 522.455 385.799 C 518.41 383.88 514.375 381.507 510.563 379.157 C 487.059 364.671 463.313 350.732 439.425 336.908 C 392.681 309.862 346.273 282.239 300.212 254.046 C 287.884 246.413 272.497 238.682 261.27 230.928 C 274.867 214.87 315.947 197.778 334.862 185.853 C 338.77 183.389 346.657 178.412 350.679 177.1 z"/>
<path transform="translate(0,0)" fill="rgb(4,132,98)" d="M 740.733 585.064 C 762.411 585.864 797.13 587.445 816.757 580.593 C 831.668 575.388 839.162 551.986 830.643 538.899 C 826.722 532.876 822.062 526.779 814.657 524.989 C 780.623 515.452 732.017 528.15 698.96 518.456 C 647.297 503.306 643.736 421.325 693.353 400.805 C 717.145 390.965 740.672 394.872 765.54 394.565 C 782.046 394.361 800.478 393.228 816.284 394.774 C 823.276 395.431 830.149 397.019 836.721 399.496 C 858.822 407.775 872.254 424.643 875.487 447.966 C 875.956 451.345 876.204 453.221 874.956 456.476 C 871.69 458.903 858.722 459.289 854.261 459.164 C 839.401 458.746 833.283 452.611 823.808 442.504 C 816.224 435.378 797.075 435.446 787.003 436.112 C 764.336 437.611 725.007 432.16 705.463 442.052 C 667.063 500.954 794.605 478.756 823.163 483.905 C 843.238 490.221 859.067 501.144 869.081 519.995 C 877.29 535.446 877.48 562.096 872.316 577.998 C 862.308 608.811 831.982 628.138 799.953 625.879 C 785.569 624.864 770.138 626.13 755.701 625.524 C 738.95 625.457 721.126 627.279 704.912 622.372 C 692.981 618.657 677.366 606.342 670.769 595.904 C 661.738 583.753 658.396 569.57 659.158 554.652 C 666.983 551.496 686.942 553.459 695.721 554.336 C 701.547 564.503 706.955 577.412 717.991 582.003 C 725.788 584.215 732.668 584.584 740.733 585.064 z"/>
<path transform="translate(0,0)" fill="rgb(6,87,62)" d="M 111.919 476.525 C 116.579 476.904 118.474 477.365 122.594 479.699 C 176.608 510.304 229.563 542.64 283.016 574.207 C 316.605 593.895 350 613.911 383.196 634.255 C 398.045 643.378 416.477 651.387 426.94 665.016 C 415.108 670.427 404.908 675.736 393.405 681.863 C 375.102 690.442 362.436 701.599 341.406 709.541 C 328.215 704.005 310.37 692.298 297.617 684.605 L 222.381 639.077 C 196.793 623.671 170.705 609.072 145.259 593.43 C 133.152 585.988 121.668 579.77 110.307 571.022 C 110.025 566.817 109.927 562.483 110.042 558.269 C 110.779 531.186 110.15 503.533 111.919 476.525 z"/>
<path transform="translate(0,0)" fill="rgb(4,132,98)" d="M 1616.21 397.505 C 1626.46 396.722 1636.77 396.897 1646.99 398.026 C 1647.24 399.525 1647.46 401.029 1647.66 402.537 C 1649.29 415.164 1648.96 431.995 1649.01 445.04 C 1649.15 465.827 1649.17 486.614 1649.05 507.4 C 1648.98 524.112 1650.53 617.64 1645.55 624.105 C 1634.75 620.866 1594.41 587.242 1582.04 577.722 L 1488.61 505.9 C 1478.37 498.159 1468.73 492.737 1458.37 485.555 C 1457.36 509.78 1456.98 534.028 1457.25 558.273 C 1457.28 571.638 1458.22 618.244 1455.79 627.112 C 1453.4 628.41 1448.92 628.181 1446.03 628.255 C 1436.52 628.317 1428.64 628.295 1419.13 627.679 C 1416.92 605.934 1418.54 556.119 1418.46 532.053 L 1418.19 456.061 C 1418.13 439.039 1417.7 419.065 1419.23 402.25 C 1431.35 408.713 1440.23 417.113 1451.19 425.394 L 1512.61 472.448 C 1543.24 496.133 1577.27 519.535 1606.5 543.758 C 1608.62 531.818 1608.14 512.653 1608.14 500.084 C 1608.16 479.55 1608.07 459.016 1607.86 438.483 C 1607.76 429.356 1606.77 408.915 1609.46 400.752 C 1612.32 397.872 1611.79 398.68 1616.21 397.505 z"/>
<path transform="translate(0,0)" fill="rgb(4,132,98)" d="M 913.813 395.038 C 926.46 393.634 944.995 394.143 958.189 394.17 L 1028.92 394.305 L 1100.72 394.269 C 1112.39 394.267 1130.86 393.742 1142.15 394.962 C 1142.13 408.462 1142.43 423.31 1142.02 436.698 C 1133.16 436.042 1052.79 435.578 1048.46 438.601 C 1041.81 458.395 1053.8 618.674 1043.29 623.775 C 1034.3 628.134 1015.78 626.531 1005.62 625.579 C 1002.75 595.119 1006.11 558.663 1004.03 527.837 C 1004.43 521.193 1004.39 517.016 1004.05 510.357 C 1004.45 485.882 1004.66 461.405 1004.67 436.927 C 985.543 436.668 966.42 436.601 947.296 436.723 C 937.822 436.763 921.886 437.28 912.976 436.522 C 910.733 419.454 909.248 411.849 913.813 395.038 z"/>
<path transform="translate(0,0)" fill="rgb(6,87,62)" d="M 807.79 346.289 L 807.498 348.642 L 805.609 349.653 C 789.613 348.332 771.87 354.554 758.071 344.968 C 742.186 333.934 740.926 303.462 751.769 288.818 C 756.36 282.646 763.213 278.548 770.822 277.421 C 800.085 273.09 810.058 289.987 813.366 315.498 C 811.713 323.225 807.887 339.283 807.79 346.289 z M 780.235 331.974 C 776.462 329.521 776.914 330.649 775.982 327.081 C 777.393 322.858 780.784 320.59 784.684 318.833 C 788.655 317.043 788.236 322.844 793.252 323.373 C 803.248 315.083 792.793 291.97 777.496 291.261 C 743.463 297.229 765.525 348.198 782.425 334.247 L 782.203 332.575 L 780.235 331.974 z"/>
<path transform="translate(0,0)" fill="rgb(6,87,62)" d="M 1529 277.304 C 1536.85 276.667 1546.48 276.445 1553.27 280.742 C 1579.71 297.463 1576.84 341.394 1544.79 350.002 C 1536.89 350.871 1529.95 350.762 1522.58 347.536 C 1514.19 343.841 1507.65 336.93 1504.42 328.358 C 1498.18 312.051 1502.96 289.858 1519.33 281.292 C 1522.42 279.677 1525.73 278.508 1529 277.304 z M 1537.25 336.975 C 1567.07 328.66 1552.53 285.615 1534.86 291.019 C 1509.05 298.895 1516.07 337.382 1537.25 336.975 z"/>
<path transform="translate(0,0)" fill="rgb(6,87,62)" d="M 1187.23 327.178 C 1196.95 311.286 1200.95 267.806 1225.09 278.74 C 1227.55 283.641 1225.51 338.5 1225.73 347.605 C 1225.78 349.644 1222.09 350.856 1219.87 351.231 L 1218.74 350.833 C 1215.61 350.191 1213.47 350.455 1211.93 348.068 C 1207.46 341.14 1210.64 314.735 1208.42 311.294 C 1200.38 315.581 1199.29 351.907 1185.95 350.667 C 1174.25 343.596 1170.82 309.458 1166.75 309.398 C 1164.49 317 1164.03 341.2 1164.1 349.806 C 1159.17 349.877 1153.96 350.084 1149.07 349.646 C 1148.96 338.573 1147.22 285.388 1150 279.102 C 1153.41 276.348 1165.23 276.76 1167.33 280.227 C 1176.18 294.871 1178.67 312.094 1187.23 327.178 z"/>
<path transform="translate(0,0)" fill="rgb(6,87,62)" d="M 1378.15 324.997 C 1379.67 313.521 1377.11 284.534 1380.06 279.451 C 1383.63 276.185 1389.66 275.756 1393.23 279.186 C 1396.41 285.284 1395.09 339.439 1394.36 349.827 C 1378.76 351.499 1374.71 344.819 1367.13 332.221 C 1361.62 323.07 1355.27 313.953 1350.75 304.308 C 1349.47 311.977 1349.58 346.201 1347.62 349.338 C 1343.85 350.671 1339.25 350.402 1335.59 348.764 C 1332.2 345.078 1332.76 290.619 1333.93 281.435 C 1334.1 280.128 1335.98 278.177 1337.03 277.195 C 1349.97 276.337 1353.46 283.794 1359.95 293.961 C 1366.31 303.937 1372.47 314.604 1378.15 324.997 z"/>
<path transform="translate(0,0)" fill="rgb(6,87,62)" d="M 979.532 277.273 C 994.443 277.136 1004.18 276.79 1018.81 280.496 C 1023.37 285.406 1025.11 287.66 1028.84 293.24 C 1030.98 315.943 1025.38 326.846 1001.08 328.623 L 989.827 328.54 C 988.371 337.533 991.286 344.016 986.051 349.305 C 982.135 350.834 976.964 349.792 972.65 349.317 C 971.866 337.57 971.107 290.966 972.827 281.645 C 975.464 278.272 974.988 279.19 979.532 277.273 z M 988.78 313.919 C 997.258 314.836 1001.4 315.705 1009.42 312.159 C 1019.64 293.528 1005.32 290.148 989.25 292.127 C 987.916 300.067 987.794 305.851 988.78 313.919 z"/>
<path transform="translate(0,0)" fill="rgb(6,87,62)" d="M 671.136 277.29 C 683.602 277.277 706.637 276.627 718.367 279.118 C 718.217 283.294 718.12 287.472 718.076 291.65 C 706.613 292.013 694.511 291.965 682.993 292.108 L 682.989 306.886 C 692.231 307.264 702.056 307.04 711.343 306.991 C 712.261 310.274 713.451 313.148 712.231 316.322 C 703.322 324.708 691.622 312.324 681.964 325.535 L 685.95 335.592 C 694.288 335.895 702.551 334.823 710.929 335.619 C 717.698 336.262 721.741 342.518 717.761 348.397 C 708.602 351.424 677.657 350.149 667.106 349.433 C 665.365 329.105 666.441 307.738 666.349 287.306 C 666.325 281.808 666.604 280.144 671.136 277.29 z"/>
<path transform="translate(0,0)" fill="rgb(6,87,62)" d="M 1082.63 276.856 C 1085.72 277.226 1093.57 277.934 1095.46 280.838 C 1098.29 285.391 1103.17 296.587 1104.21 301.561 C 1105.85 309.432 1122.45 344.173 1122.05 347.665 C 1120.84 349.224 1120.24 350.072 1118.78 350.923 C 1111.56 355.119 1102.72 342.658 1100.19 337.216 C 1099 336.842 1097.96 336.516 1097.08 336.238 C 1090.09 336.719 1082.4 336.681 1075.35 336.787 C 1072.75 344.199 1070.54 350.221 1061.92 349.838 C 1059.36 349.724 1057.51 350.086 1055.51 348.218 C 1054.75 342.498 1078.12 283.365 1082.63 276.856 z M 1086.83 324.315 C 1089.61 324.137 1094.14 324.293 1095.96 322.462 C 1095.44 318.797 1092.56 303.901 1090.06 301.721 C 1087.27 306.502 1080.02 316.47 1080.71 322.191 C 1080.95 324.256 1085.05 324.273 1086.83 324.315 z"/>
<path transform="translate(0,0)" fill="rgb(6,87,62)" fill-opacity="0.988235" d="M 1259.08 277.267 C 1261.58 277.176 1269.79 276.86 1271.84 277.308 C 1279.34 278.946 1316.95 271.948 1306.39 289.701 C 1296.96 295.699 1279.1 286.969 1270.71 295.024 C 1269.63 297.017 1268.66 300.889 1269.59 302.87 C 1275.18 314.681 1296.95 298.591 1301.26 314.728 C 1298.29 326.322 1279.46 315.539 1270.15 322.481 C 1264.56 347.465 1298.12 327.811 1307.95 339.712 C 1308.96 343.403 1308.68 344.228 1307.79 348.009 C 1302.98 352.049 1263.7 350.097 1255.33 349.552 C 1255.46 328.432 1254.83 307.274 1255.12 286.186 C 1255.19 281.17 1255.8 280.253 1259.08 277.267 z"/>
<path transform="translate(0,0)" fill="rgb(6,87,62)" d="M 1613.4 348.501 C 1605.73 344.501 1597.27 337.919 1599.5 328.379 C 1608.29 318.495 1628.13 351.335 1639.35 329.733 C 1640.07 316.031 1577.53 319.046 1605.28 284.072 C 1618.55 267.342 1654.64 282.191 1652.62 296.655 L 1650.63 298.033 C 1641.68 299.134 1634.18 294.046 1626.34 289.971 L 1614.67 292.597 C 1615.4 296.521 1615.87 300.804 1616.39 304.785 C 1627.74 306.995 1643.49 308.572 1651.64 317.424 C 1661.79 328.451 1654.38 338.456 1645.81 346.292 C 1635.85 351.282 1624.02 351.278 1613.4 348.501 z"/>
<path transform="translate(0,0)" fill="rgb(6,87,62)" fill-opacity="0.988235" d="M 1426.39 277.379 C 1434.81 277.519 1471.17 276.654 1476.33 279.119 C 1477.9 282.529 1477.14 287.88 1476.92 291.81 L 1456.06 292.12 L 1456.27 333.149 L 1456.47 349.894 C 1452.02 350.009 1447.59 350.486 1443.45 348.938 C 1437.01 342.877 1443.42 307.555 1440.7 294.89 C 1436.72 290.77 1427.51 291.58 1421.42 291.463 C 1420.97 287.834 1420.27 284.015 1420.88 280.438 C 1423.06 277.475 1422.17 278.352 1426.39 277.379 z"/>
<path transform="translate(0,0)" fill="rgb(6,87,62)" d="M 879.425 349.794 C 832.895 355.071 838.68 321.072 838.278 287.633 C 838.08 271.217 855.217 274.91 855.341 286.081 C 855.51 301.286 853.626 316.215 856.616 331.358 L 857.087 331.651 C 865.36 336.705 867.007 336.503 876.046 334.33 C 877.8 338.58 878.84 345.145 879.425 349.794 z"/>
<path transform="translate(0,0)" fill="rgb(6,87,62)" d="M 930.232 277.289 C 934.966 277.015 943.074 275.956 943.653 282.611 C 944.944 297.478 942.912 312.473 943.186 327.462 C 943.291 333.241 943.873 346.021 940.939 350.378 C 924.515 351.27 927.353 347.008 927.099 332.149 C 926.815 315.567 927.036 298.717 927.482 282.17 C 927.54 279.991 928.919 278.852 930.232 277.289 z"/>
<path transform="translate(0,0)" fill="rgb(6,87,62)" d="M 883.106 281.155 C 886.168 284.441 892.844 292.777 896.515 293.735 L 898.656 292.95 C 898.601 315.189 904.156 338.921 879.425 349.794 C 878.84 345.145 877.8 338.58 876.046 334.33 C 881.105 330.655 882.491 328.547 883.055 322.134 C 884.224 308.825 883.987 294.499 883.106 281.155 z"/>
<path transform="translate(0,0)" fill="rgb(6,87,62)" fill-opacity="0.988235" d="M 883.106 281.155 C 887.171 273.913 893.316 274.086 897.697 281.042 C 899.949 284.618 898.937 288.801 898.656 292.95 L 896.515 293.735 C 892.844 292.777 886.168 284.441 883.106 281.155 z"/>
<path transform="translate(0,0)" fill="rgb(4,132,98)" fill-opacity="0.984314" d="M 394.029 576.123 C 395.514 581.473 394.445 587.134 393.536 592.611 C 390.873 590.599 385.298 584.6 382.685 581.912 C 385.694 580.082 390.744 577.76 394.029 576.123 z"/>
<path transform="translate(0,0)" fill="rgb(6,87,62)" fill-opacity="0.133333" d="M 902.007 286.59 C 904.409 291.303 903.046 307.498 902.54 312.995 C 900.776 305.572 900.674 294.076 902.007 286.59 z"/>
</svg>