<?xml version="1.0" encoding="UTF-8" standalone="no"?>
<svg
   version="1.1"
   id="Layer_1"
   x="0px"
   y="0px"
   width="789.52393"
   viewBox="0 0 789.52393 470.77811"
   enable-background="new 0 0 827 551"
   xml:space="preserve"
   sodipodi:docname="vilma-alimentos.svg"
   inkscape:version="1.4 (86a8ad7, 2024-10-11)"
   height="470.77811"
   xmlns:inkscape="http://www.inkscape.org/namespaces/inkscape"
   xmlns:sodipodi="http://sodipodi.sourceforge.net/DTD/sodipodi-0.dtd"
   xmlns="http://www.w3.org/2000/svg"
   xmlns:svg="http://www.w3.org/2000/svg"><defs
   id="defs22" /><sodipodi:namedview
   id="namedview22"
   pagecolor="#ffffff"
   bordercolor="#000000"
   borderopacity="0.25"
   inkscape:showpageshadow="2"
   inkscape:pageopacity="0.0"
   inkscape:pagecheckerboard="0"
   inkscape:deskcolor="#d1d1d1"
   inkscape:zoom="1.1"
   inkscape:cx="394.09091"
   inkscape:cy="243.18182"
   inkscape:window-width="1920"
   inkscape:window-height="1009"
   inkscape:window-x="-8"
   inkscape:window-y="-8"
   inkscape:window-maximized="1"
   inkscape:current-layer="Layer_1" />
<path
   fill="#000000"
   opacity="1"
   stroke="none"
   d="m 513.46396,519.09697 c -177.66666,0 -354.83333,0 -531.999996,0 0,-183.66666 0,-367.33333 0,-550.999998 275.666656,0 551.333306,0 826.999996,0 0,183.666668 0,367.333338 0,550.999998 -98.16669,0 -196.33331,0 -295,0 M 742.98874,5.9993345 C 733.44803,2.1277065 723.67368,-0.55287347 713.23337,0.09714353 696.91678,1.1130195 680.59543,2.0566125 664.28391,3.1474325 c -7.89002,0.527637 -15.76691,1.271107 -23.6416,2.004089 -13.75965,1.280754 -27.50855,2.678383 -41.2707,3.930611 -8.53234,0.776363 -17.08813,1.2943695 -25.62042,2.0715415 -13.76221,1.253555 -27.5105,2.660679 -41.27106,3.933727 -8.20855,0.759411 -16.43603,1.315128 -24.643,2.089737 -13.26734,1.25222 -26.51788,2.68444 -39.78873,3.896061 -9.03152,0.824573 -18.0936,1.312031 -27.12771,2.11137 -13.93586,1.233032 -27.85703,2.630237 -41.78916,3.906593 -8.20752,0.751904 -16.43039,1.338127 -24.63507,2.117703 -13.10098,1.2448 -26.18478,2.674362 -39.29077,3.861236 -9.19971,0.833123 -18.43445,1.278641 -27.63529,2.101029 -13.59017,1.214714 -27.16018,2.652855 -40.74642,3.913582 -8.37482,0.77713 -16.76978,1.337127 -25.14515,2.108696 -13.59825,1.252716 -27.18417,2.638999 -40.78247,3.891105 -8.37643,0.771294 -16.77165,1.337792 -25.14865,2.103447 -13.76668,1.258263 -27.52344,2.624535 -41.28821,3.904114 -7.87111,0.731689 -15.75544,1.32299 -23.62373,2.082268 -13.099256,1.264061 -26.169596,2.907364 -39.291507,3.831901 -10.520347,0.741242 -20.424232,3.583725 -29.566467,8.386811 -13.916485,7.311368 -25.202293,17.854658 -32.8903665,31.668378 -7.054883,12.676028 -10.90546,26.748898 -8.23765099,40.941188 3.91830999,20.84475 9.65080849,41.3642 15.00589749,61.91921 7.007546,26.89783 14.278996,53.72879 21.673798,80.52313 4.41473,15.99634 7.198795,32.53952 16.023624,47.09479 10.801483,17.81552 26.336762,29.30969 46.311676,34.42377 9.797566,2.50839 19.953086,3.72686 30.004296,5.10992 13.66748,1.88071 27.37599,3.492 41.09367,4.97028 11.13362,1.19977 22.29704,2.16241 33.46449,3.00027 19.24959,1.44428 38.50991,2.74997 57.77101,4.03485 11.20377,0.74738 22.41224,1.46268 33.62848,1.97562 17.03742,0.77911 34.08307,1.91833 51.12583,1.92883 38.10537,0.0234 76.2117,-0.50043 114.31634,-0.91919 13.10904,-0.14407 26.21613,-0.57867 39.32038,-0.99753 6.44396,-0.20596 12.8905,-0.54159 19.31659,-1.05847 15.27038,-1.22824 30.52856,-2.60818 45.79315,-3.90957 8.21631,-0.70047 16.47412,-1.06501 24.64477,-2.11432 13.48517,-1.73181 26.89014,-4.08753 40.37409,-5.83002 17.98077,-2.32355 35.40564,-5.97409 51.17053,-15.7334 15.83026,-9.79977 27.49121,-22.85306 33.49036,-40.5253 13.15551,-38.75342 26.11321,-77.57409 39.09875,-116.38508 8.82135,-26.36498 17.36053,-52.82611 26.39246,-79.11834 5.97186,-17.384528 10.81774,-34.745108 7.65716,-53.443513 C 786.63101,51.730464 782.79282,41.374018 776.04422,32.285273 767.55704,20.85525 757.00028,11.795756 742.98874,5.9993345 M 326.46469,460.83904 c 0,-1.89191 0,-3.78382 0,-7.05561 2.24939,3.38336 3.63315,5.55313 5.10599,7.66068 2.67493,3.82766 7.15533,3.80786 9.81506,-0.0171 1.48612,-2.13712 2.94239,-4.29499 4.41208,-6.44354 0.30847,0.13644 0.61695,0.27291 0.92542,0.40936 0,4.76904 0,9.53808 0,14.2926 3.42532,0 6.46264,0 9.44244,0 0,-12.67346 0,-24.93326 0,-37.103 -4.7934,-1.36886 -7.84994,-0.27172 -10.22015,4.23612 -2.52549,4.80313 -6.09479,9.05743 -9.50922,13.98559 -3.5426,-5.14105 -6.97644,-9.36602 -9.54007,-14.06564 -2.38998,-4.38129 -5.41232,-5.62784 -10.09061,-4.09537 0,12.33823 0,24.71695 0,37.01954 3.39679,0 6.43213,0 9.65909,0 0,-2.92597 0,-5.4191 -3e-5,-8.82367 m 107.47812,-12.7598 c -3.14325,-3.60108 -6.68997,-6.93265 -9.323,-10.87454 -2.99066,-4.47742 -6.49511,-6.23352 -11.82956,-4.58844 0,12.3399 0,24.71301 0,37.0639 3.37192,0 6.40802,0 9.97144,0 0,-6.2439 0,-12.07324 0,-18.43573 4.53506,5.13199 8.7688,9.51395 12.51041,14.28214 3.19262,4.06857 6.74163,5.88821 11.81387,3.98745 0,-12.40698 0,-24.77597 0,-37.12628 -3.30722,0 -6.23258,0 -9.73276,0 0,6.42801 0,12.58765 0,19.24152 -1.33227,-1.39972 -2.12048,-2.22779 -3.4104,-3.55002 m 87.92679,-15.98184 c -14.6731,-1.82611 -24.52777,12.46933 -19.26062,26.31097 2.85895,7.51291 7.83484,12.36612 19.99951,11.7793 10.06629,-0.4856 17.74933,-7.50702 17.85455,-17.27701 0.14167,-13.15567 -6.15283,-20.56238 -18.59344,-20.81326 m -122.40842,34.42132 c 0,-1.73337 0,-3.46676 0,-5.60421 -6.44259,0 -12.03964,0 -18.00253,0 0.14716,-1.81491 0.25836,-3.18628 0.40198,-4.95713 5.30322,0 10.22931,0 15.2301,0 0,-3.14459 0,-5.84488 0,-8.961 -5.29376,0 -10.22607,0 -15.27423,0 0,-2.13208 0,-3.83453 0,-6.13775 6.04181,0 11.75842,0 17.3161,0 0,-3.19834 0,-5.78723 0,-8.34693 -9.69324,0 -19.051,0 -28.66934,0 0,6.55243 0,12.69254 0,18.83264 0,6.09653 0,12.19309 0,18.73905 9.19675,0 17.80514,0.0762 26.40759,-0.11548 0.87927,-0.0196 1.72278,-1.64542 2.59033,-3.44919 m 184.99076,-5.41244 c 0.0304,-9.37458 -1.50086,-11.41382 -10.52369,-13.76486 -2.20935,-0.57566 -4.53979,-0.74393 -6.68798,-1.47269 -1.05182,-0.35681 -2.69165,-1.85211 -2.53479,-2.33917 0.40222,-1.24875 1.56335,-3.00223 2.59912,-3.1319 1.80365,-0.22583 4.92077,0.0519 5.42694,1.10687 2.80798,5.85297 7.41882,3.04938 12.90008,3.43591 -1.60363,-3.31881 -2.34185,-6.03762 -3.97796,-8.0126 -5.20356,-6.28128 -12.35236,-5.612 -19.2132,-4.17721 -5.81152,1.21533 -8.9422,5.49649 -8.97546,10.63778 -0.04,6.19843 2.27984,9.14585 8.95996,11.17163 2.65429,0.80494 5.44702,1.20957 8.01898,2.20435 1.18329,0.45764 1.98669,1.8974 2.96234,2.89188 -1.28827,0.80493 -2.54785,2.20159 -3.87219,2.26593 -1.6778,0.0815 -4.33588,-0.40912 -4.95905,-1.54084 -3.06945,-5.574 -7.76458,-2.53479 -11.841,-3.19909 0.0814,6.41372 4.35828,11.78094 9.9184,12.89398 10.72796,2.14749 18.10546,-0.61319 21.7995,-8.96997 M 213.59445,434.60115 c -4.80775,11.56049 -9.61549,23.12097 -14.46922,34.79202 9.13863,1.74558 9.74947,1.49265 13.37282,-5.12646 4.83087,0 9.63421,0 14.37146,0 2.50856,6.63742 3.5825,7.07513 13.16748,4.99524 -5.1429,-11.93262 -10.13204,-23.77118 -15.38269,-35.49259 -1.20015,-2.67917 -7.8136,-2.36929 -11.05985,0.83179 m 274.1868,-2.50436 c -9.28341,0 -18.56686,0 -27.94327,0 0,3.28674 0,5.99243 0,9.13238 3.63147,0 6.89585,0 10.75882,0 0,9.82016 0,19.21268 0,28.57532 3.55014,0 6.47803,0 10.0148,0 0,-9.66843 0,-19.05933 0,-28.86298 4.21912,0 7.82062,0 12.29578,0 -2.12515,-3.18646 3.24854,-8.51178 -5.12613,-8.84472 m -216.8746,38.001 c 2.76123,0 5.52246,0 8.26938,0 0,-3.34115 0,-5.93548 0,-9.14047 -5.9892,0 -11.71039,0 -17.85062,0 0,-9.87924 0,-19.14084 0,-28.47742 -3.48981,0 -6.52804,0 -9.5658,0 0,12.63779 0,24.89054 0,37.61789 6.24329,0 12.20179,0 19.14704,0 m 30.55725,-14.50674 c 0,-7.75461 0,-15.50919 0,-23.16824 -3.71137,0 -6.63336,0 -9.60266,0 0,12.70056 0,25.07135 0,37.36062 3.32931,0 6.25729,0 9.60266,0 0,-4.60132 0,-8.8988 0,-14.19238 z"
   id="path1"
   style="fill:none" />
<path
   fill="#ce142f"
   opacity="1"
   stroke="none"
   d="m 743.36527,6.0872215 c 13.63501,5.7085345 24.19177,14.7680285 32.67895,26.1980515 6.7486,9.088745 10.58679,19.445191 12.48291,30.663284 3.16058,18.698405 -1.6853,36.058985 -7.65716,53.443513 -9.03193,26.29223 -17.57111,52.75336 -26.39246,79.11834 -12.98554,38.81099 -25.94324,77.63166 -39.09875,116.38508 -5.99915,17.67224 -17.6601,30.72553 -33.49036,40.5253 -15.76489,9.75931 -33.18976,13.40985 -51.17053,15.7334 -13.48395,1.74249 -26.88892,4.09821 -40.37409,5.83002 -8.17065,1.04931 -16.42846,1.41385 -24.64477,2.11432 -15.26459,1.30139 -30.52277,2.68133 -45.79315,3.90957 -6.42609,0.51688 -12.87263,0.85251 -19.31659,1.05847 -13.10425,0.41886 -26.21134,0.85346 -39.32038,0.99753 -38.10464,0.41876 -76.21097,0.94263 -114.31634,0.91919 -17.04276,-0.0105 -34.08841,-1.14972 -51.12583,-1.92883 -11.21624,-0.51294 -22.42471,-1.22824 -33.62848,-1.97562 -19.2611,-1.28488 -38.52142,-2.59057 -57.77101,-4.03485 -11.16745,-0.83786 -22.33087,-1.8005 -33.46449,-3.00027 -13.71768,-1.47828 -27.42619,-3.08957 -41.09367,-4.97028 -10.05121,-1.38306 -20.20673,-2.60153 -30.004296,-5.10992 C 79.88986,356.84944 64.354581,345.35527 53.553098,327.53975 44.728269,312.98448 41.944204,296.4413 37.529474,280.44496 30.134672,253.65062 22.863222,226.81966 15.855676,199.92183 10.500587,179.36682 4.7680885,158.84737 0.84977851,138.00262 -1.8180305,123.81033 2.0325465,109.73746 9.0874295,97.061432 16.775503,83.247712 28.061311,72.704422 41.977796,65.393054 c 9.142235,-4.803086 19.04612,-7.645569 29.566467,-8.386811 13.121911,-0.924537 26.192251,-2.56784 39.291507,-3.831901 7.86829,-0.759278 15.75262,-1.350579 23.62373,-2.082268 13.76477,-1.279579 27.52153,-2.645851 41.28821,-3.904114 8.377,-0.765655 16.77222,-1.332153 25.14865,-2.103447 13.5983,-1.252106 27.18422,-2.638389 40.78247,-3.891105 8.37537,-0.771569 16.77033,-1.331566 25.14515,-2.108696 13.58624,-1.260727 27.15625,-2.698868 40.74642,-3.913582 9.20084,-0.822388 18.43558,-1.267906 27.63529,-2.101029 13.10599,-1.186874 26.18979,-2.616436 39.29077,-3.861236 8.20468,-0.779576 16.42755,-1.365799 24.63507,-2.117703 13.93213,-1.276356 27.8533,-2.673561 41.78916,-3.906593 9.03411,-0.799339 18.09619,-1.286797 27.12771,-2.11137 13.27085,-1.211621 26.52139,-2.643841 39.78873,-3.896061 8.20697,-0.774609 16.43445,-1.330326 24.643,-2.089737 13.76056,-1.273048 27.50885,-2.680172 41.27106,-3.933727 8.53229,-0.777172 17.08808,-1.2951785 25.62042,-2.0715415 13.76215,-1.252228 27.51105,-2.649857 41.2707,-3.930611 7.87469,-0.732982 15.75158,-1.476452 23.6416,-2.004089 16.31152,-1.09082 32.63287,-2.034413 48.94946,-3.05028897 10.44031,-0.650017 20.21466,2.03056297 30.1319,5.99007797 M 20.414495,166.69589 c 11.696896,44.19776 23.334702,88.41124 35.111229,132.58776 7.986145,29.95788 26.95176,48.4198 57.943026,52.81869 25.33077,3.59543 50.78674,6.46036 76.26308,8.83536 24.85232,2.3168 49.78346,3.92648 74.71135,5.26105 34.5899,1.85183 69.19925,4.08178 103.81842,4.45227 39.46872,0.42236 78.96304,-0.7901 118.43481,-1.75837 17.96951,-0.44076 35.94229,-1.63824 53.85831,-3.14846 22.03302,-1.85727 44.05737,-4.01065 65.99206,-6.77668 15.78669,-1.99072 31.74244,-4.00018 47.04841,-8.13018 23.96734,-6.46708 42.29919,-20.43671 50.5578,-45.12253 22.64489,-67.68753 45.30554,-135.36977 67.98724,-203.04492 4.13239,-12.329658 5.88654,-24.928798 3.79883,-37.80713 C 770.05588,28.570654 734.762,8.3499735 701.95804,12.614367 c -16.31995,2.121532 -32.79846,3.026699 -49.20679,4.464504 -16.57379,1.452301 -33.1524,2.85133 -49.72375,4.330853 -20.87757,1.863983 -41.74897,3.795673 -62.6247,5.679706 -16.23797,1.465481 -32.48016,2.885025 -48.71762,4.356999 -20.54397,1.862373 -41.08313,3.777931 -61.62787,5.631454 -16.40365,1.479935 -32.81555,2.868378 -49.21838,4.357147 -20.37741,1.849518 -40.74625,3.793389 -61.1243,5.635651 -20.04809,1.812424 -40.10675,3.508125 -60.15399,5.329834 -20.21216,1.836685 -40.41222,3.80658 -60.62448,5.641983 -20.0475,1.82045 -40.10639,3.51548 -60.15521,5.321602 -20.87432,1.880478 -41.730256,3.978462 -62.617989,5.691612 -13.209518,1.08341 -25.47274,4.60914 -36.188545,12.56885 -18.163299,13.4917 -28.670253,31.088818 -26.375221,54.240288 1.003975,10.12776 4.368263,20.02153 6.8153,30.83104 z"
   id="path2" />
<path
   fill="#ce122d"
   opacity="1"
   stroke="none"
   d="m 326.46469,461.29472 c 3e-5,2.94889 3e-5,5.44202 3e-5,8.36799 -3.22696,0 -6.2623,0 -9.65909,0 0,-12.30259 0,-24.68131 0,-37.01954 4.67829,-1.53247 7.70063,-0.28592 10.09061,4.09537 2.56363,4.69962 5.99747,8.92459 9.54007,14.06564 3.41443,-4.92816 6.98373,-9.18246 9.50922,-13.98559 2.37021,-4.50784 5.42675,-5.60498 10.22015,-4.23612 0,12.16974 0,24.42954 0,37.103 -2.9798,0 -6.01712,0 -9.44244,0 0,-4.75452 0,-9.52356 0,-14.2926 -0.30847,-0.13645 -0.61695,-0.27292 -0.92542,-0.40936 -1.46969,2.14855 -2.92596,4.30642 -4.41208,6.44354 -2.65973,3.82492 -7.14013,3.84472 -9.81506,0.0171 -1.47284,-2.10755 -2.8566,-4.27732 -5.10599,-7.66068 0,3.27179 0,5.1637 0,7.51129 z"
   id="path3" />
<path
   fill="#ce122d"
   opacity="1"
   stroke="none"
   d="m 434.1937,448.32634 c 1.03903,1.07513 1.82724,1.9032 3.15951,3.30292 0,-6.65387 0,-12.81351 0,-19.24152 3.50018,0 6.42554,0 9.73276,0 0,12.35031 0,24.7193 0,37.12628 -5.07224,1.90076 -8.62125,0.0811 -11.81387,-3.98745 -3.74161,-4.76819 -7.97535,-9.15015 -12.51041,-14.28214 0,6.36249 0,12.19183 0,18.43573 -3.56342,0 -6.59952,0 -9.97144,0 0,-12.35089 0,-24.724 0,-37.0639 5.33445,-1.64508 8.8389,0.11102 11.82956,4.58844 2.63303,3.94189 6.17975,7.27346 9.57389,11.12164 z"
   id="path4" />
<path
   fill="#ce122d"
   opacity="1"
   stroke="none"
   d="m 522.32248,432.09746 c 11.98773,0.25082 18.28223,7.65753 18.14056,20.8132 -0.10522,9.76999 -7.78826,16.79141 -17.85455,17.27701 -12.16467,0.58682 -17.14056,-4.26639 -19.99951,-11.7793 -5.26715,-13.84164 4.58752,-28.13708 19.7135,-26.31091 m 7.24915,22.38089 c 1.96356,-6.22058 -0.0756,-10.55365 -6.03248,-12.81903 -4.42034,-1.681 -8.98175,0.71997 -11.20819,5.8996 -2.10662,4.90121 -0.25238,9.87319 4.59235,12.31353 5.06549,2.55155 9.3634,0.95532 12.64832,-5.3941 z"
   id="path5" />
<path
   fill="#ce122d"
   opacity="1"
   stroke="none"
   d="m 399.45746,466.98039 c -0.86383,1.3421 -1.70734,2.96793 -2.58661,2.98752 -8.60245,0.19165 -17.21084,0.11548 -26.40759,0.11548 0,-6.54596 0,-12.64252 0,-18.73905 0,-6.1401 0,-12.28021 0,-18.83264 9.61834,0 18.9761,0 28.66934,0 0,2.5597 0,5.14859 0,8.34693 -5.55768,0 -11.27429,0 -17.3161,0 0,2.30322 0,4.00567 0,6.13775 5.04816,0 9.98047,0 15.27423,0 0,3.11612 0,5.81641 0,8.961 -5.00079,0 -9.92688,0 -15.2301,0 -0.14362,1.77085 -0.25482,3.14222 -0.40198,4.95713 5.96289,0 11.55994,0 18.00253,0 0,2.13745 0,3.87084 -0.004,6.06588 z"
   id="path6" />
<path
   fill="#ce122d"
   opacity="1"
   stroke="none"
   d="m 584.43124,461.52031 c -3.67334,7.94275 -11.05084,10.70343 -21.7788,8.55594 -5.56012,-1.11304 -9.83704,-6.48026 -9.9184,-12.89398 4.07642,0.6643 8.77155,-2.37491 11.841,3.19909 0.62317,1.13172 3.28125,1.62232 4.95905,1.54084 1.32434,-0.0643 2.58392,-1.461 3.87219,-2.26597 -0.97565,-0.99444 -1.77905,-2.4342 -2.96234,-2.89184 -2.57196,-0.99478 -5.36469,-1.39941 -8.01898,-2.20435 -6.68012,-2.02578 -8.99994,-4.9732 -8.95996,-11.17163 0.0333,-5.14129 3.16394,-9.42245 8.97546,-10.63778 6.86084,-1.43479 14.00964,-2.10407 19.2132,4.17721 1.63611,1.97498 2.37433,4.69379 3.97796,8.0126 -5.48126,-0.38653 -10.0921,2.41706 -12.90008,-3.43591 -0.50617,-1.05502 -3.62329,-1.3327 -5.42694,-1.10687 -1.03577,0.12967 -2.1969,1.88315 -2.59912,3.1319 -0.15686,0.48706 1.48297,1.98236 2.53479,2.33917 2.14819,0.72876 4.47863,0.89703 6.68798,1.47269 9.02283,2.35104 10.55408,4.39028 10.50299,14.17889 z"
   id="path7" />
<path
   fill="#ce122d"
   opacity="1"
   stroke="none"
   d="m 213.84473,434.27544 c 2.99597,-2.87537 9.60942,-3.18525 10.80957,-0.50608 5.25065,11.72141 10.23979,23.55997 15.38269,35.49259 -9.58498,2.07989 -10.65892,1.64218 -13.16748,-4.99524 -4.73725,0 -9.54059,0 -14.37146,0 -3.62335,6.61911 -4.23419,6.87204 -13.37282,5.12646 4.85373,-11.67105 9.66147,-23.23153 14.7195,-35.11773 m 4.7592,12.62939 c -0.89374,2.61911 -1.78749,5.23822 -2.73934,8.02759 2.77729,0 4.90378,0 7.88714,0 -1.72704,-3.18717 -3.1948,-5.89581 -5.1478,-8.02759 z"
   id="path8" />
<path
   fill="#ce122d"
   opacity="1"
   stroke="none"
   d="m 488.25766,432.0974 c 7.89826,0.33233 2.52457,5.65765 4.64972,8.84411 -4.47516,0 -8.07666,0 -12.29578,0 0,9.80365 0,19.19455 0,28.86298 -3.53677,0 -6.46466,0 -10.0148,0 0,-9.36264 0,-18.75516 0,-28.57532 -3.86297,0 -7.12735,0 -10.75882,0 0,-3.13995 0,-5.84564 0,-9.13238 9.37641,0 18.65986,0 28.41968,6.1e-4 z"
   id="path9" />
<path
   fill="#ce122d"
   opacity="1"
   stroke="none"
   d="m 270.41327,470.09779 c -6.45187,0 -12.41037,0 -18.65366,0 0,-12.72735 0,-24.9801 0,-37.61789 3.03776,0 6.07599,0 9.5658,0 0,9.33658 0,18.59818 0,28.47742 6.14023,0 11.86142,0 17.85062,0 0,3.20499 0,5.79932 0,9.14047 -2.74692,0 -5.50815,0 -8.76276,0 z"
   id="path10" />
<path
   fill="#ce122d"
   opacity="1"
   stroke="none"
   d="m 301.4639,456.0891 c 0,4.79553 0,9.09301 0,13.69433 -3.34537,0 -6.27335,0 -9.60266,0 0,-12.28927 0,-24.66006 0,-37.36062 2.9693,0 5.89129,0 9.60266,0 0,7.65905 0,15.41363 0,23.66629 z"
   id="path11" />
<path
   fill="#fefbfb"
   opacity="1"
   stroke="none"
   d="m 20.337209,166.29115 c -2.369751,-10.40477 -5.734039,-20.29854 -6.738014,-30.4263 -2.295032,-23.15147 8.211922,-40.748588 26.375221,-54.240288 10.715805,-7.95971 22.979027,-11.48544 36.188545,-12.56885 20.887733,-1.71315 41.743669,-3.811134 62.617989,-5.691612 20.04882,-1.806122 40.10771,-3.501152 60.15521,-5.321602 20.21226,-1.835403 40.41232,-3.805298 60.62448,-5.641983 20.04724,-1.821709 40.1059,-3.51741 60.15399,-5.329834 20.37805,-1.842262 40.74689,-3.786133 61.1243,-5.635651 16.40283,-1.488769 32.81473,-2.877212 49.21838,-4.357147 20.54474,-1.853523 41.0839,-3.769081 61.62787,-5.631454 16.23746,-1.471974 32.47965,-2.891518 48.71762,-4.356999 20.87573,-1.884033 41.74713,-3.815723 62.6247,-5.679706 16.57135,-1.479523 33.14996,-2.878552 49.72375,-4.330853 16.40833,-1.437805 32.88684,-2.342972 49.20679,-4.464504 32.80396,-4.2643935 68.09784,15.956287 73.98102,52.248383 2.08771,12.878332 0.33356,25.477472 -3.79883,37.80713 -22.6817,67.67515 -45.34235,135.35739 -67.98724,203.04492 -8.25861,24.68582 -26.59046,38.65545 -50.5578,45.12253 -15.30597,4.13 -31.26172,6.13946 -47.04841,8.13018 -21.93469,2.76603 -43.95904,4.91941 -65.99206,6.77668 -17.91602,1.51022 -35.8888,2.7077 -53.85831,3.14846 -39.47177,0.96827 -78.96609,2.18073 -118.43481,1.75837 -34.61917,-0.37049 -69.22852,-2.60044 -103.81842,-4.45227 -24.92789,-1.33457 -49.85903,-2.94425 -74.71135,-5.26105 -25.47634,-2.375 -50.93231,-5.23993 -76.26308,-8.83536 C 82.477484,347.70345 63.511869,329.24153 55.525724,299.28365 43.749197,255.10713 32.111391,210.89365 20.337209,166.29115 M 527.83817,354.05409 c 22.55304,-2.06082 45.16314,-3.64435 67.64117,-6.33282 18.14984,-2.17078 36.41138,-4.56012 54.13263,-8.87003 21.83813,-5.31109 37.68195,-18.41968 43.9632,-41.18759 2.07409,-7.518 4.91308,-14.82455 7.39026,-22.23181 19.92571,-59.58217 39.86535,-119.15964 59.75793,-178.752838 3.99347,-11.96323 4.98456,-24.09761 1.20874,-36.327811 -6.98242,-22.616882 -28.53973,-37.099308 -54.17163,-35.335278 -26.74396,1.840577 -53.4242,4.609765 -80.13171,6.978619 -42.63227,3.781296 -85.26844,7.520088 -127.89509,11.363579 -49.75839,4.486534 -99.50561,9.097534 -149.26294,13.596359 -46.10873,4.168938 -92.22793,8.222008 -138.33601,12.398082 -46.60487,4.22109 -93.19141,8.64796 -139.80588,12.75872 -29.492287,2.60082 -52.436062,31.788998 -45.344376,59.478358 13.446392,52.50114 27.485649,104.85234 41.575997,157.18578 5.715339,21.22753 19.494743,34.83248 41.078399,39.90802 6.62406,1.55764 13.40416,2.65863 20.17601,3.34515 28.65788,2.9053 57.29483,6.23636 86.02278,8.18054 45.69864,3.09268 91.43625,6.09805 137.20767,7.50406 57.96915,1.78076 115.94937,0.14844 174.79285,-3.65909 z"
   id="path12" />
<path
   fill="#000000"
   opacity="1"
   stroke="none"
   d="m 529.47421,454.86284 c -3.1875,5.96493 -7.48541,7.56116 -12.5509,5.00961 -4.84473,-2.44034 -6.69897,-7.41232 -4.59235,-12.31353 2.22644,-5.17963 6.78785,-7.5806 11.20819,-5.8996 5.95691,2.26538 7.99604,6.59845 5.93506,13.20352 z"
   id="path13"
   style="fill:none" />
<path
   fill="#000000"
   opacity="1"
   stroke="none"
   d="m 218.84656,446.61638 c 1.71037,2.42023 3.17813,5.12887 4.90517,8.31604 -2.98336,0 -5.10985,0 -7.88714,0 0.95185,-2.78937 1.8456,-5.40848 2.98197,-8.31604 z"
   id="path14"
   style="fill:none" />
<path
   fill="#ce132e"
   opacity="1"
   stroke="none"
   d="m 527.36423,354.07243 c -58.36954,3.78919 -116.34976,5.42151 -174.31891,3.64075 -45.77142,-1.40601 -91.50903,-4.41138 -137.20767,-7.50406 -28.72795,-1.94418 -57.3649,-5.27524 -86.02278,-8.18054 -6.77185,-0.68652 -13.55195,-1.78751 -20.17601,-3.34515 C 88.055204,333.60789 74.2758,320.00294 68.560461,298.77541 54.470113,246.44197 40.430856,194.09077 26.984464,141.58963 19.892778,113.90027 42.836553,84.712092 72.32884,82.111272 c 46.61447,-4.11076 93.20101,-8.53763 139.80588,-12.75872 46.10808,-4.176074 92.22728,-8.229144 138.33601,-12.398082 49.75733,-4.498825 99.50455,-9.109825 149.26294,-13.596359 42.62665,-3.843491 85.26282,-7.582283 127.89509,-11.363579 26.70751,-2.368854 53.38775,-5.138042 80.13171,-6.978619 25.6319,-1.76403 47.18921,12.718396 54.17163,35.335278 3.77582,12.230201 2.78473,24.364581 -1.20874,36.327811 -19.89258,59.593198 -39.83222,119.170668 -59.75793,178.752838 -2.47718,7.40726 -5.31617,14.71381 -7.39026,22.23181 -6.28125,22.76791 -22.12507,35.8765 -43.9632,41.18759 -17.72125,4.30991 -35.98279,6.69925 -54.13263,8.87003 -22.47803,2.68847 -45.08813,4.272 -68.11511,6.35116 M 462.53571,161.76648 c -0.85648,-16.93234 -12.32599,-24.82394 -28.03046,-18.28642 -6.58066,2.73939 -13.24786,6.96789 -17.91443,12.2516 -9.43115,10.67847 -17.51852,22.54335 -26.17023,33.91121 -0.95669,1.25709 -1.97958,2.46388 -3.72815,4.63168 0,-1.99956 -0.0739,-2.47429 0.0108,-2.91881 2.23233,-11.72091 5.05411,-23.36734 6.52524,-35.18214 0.9776,-7.85132 -3.9582,-12.46401 -11.84104,-13.03844 -8.96777,-0.6535 -17.39639,1.6417 -24.5422,4.25778 0,7.3285 1.00665,14.07717 -0.17328,20.419 -5.26062,28.274 -11.18943,56.42315 -16.77628,84.63733 -1.45074,7.32632 -3.00052,14.68347 -3.66003,22.10159 -0.63547,7.14779 2.94653,11.12283 10.02548,12.655 8.89804,1.9259 17.44348,-0.008 26.30948,-2.22122 -3.14471,-9.6865 -1.47836,-18.79984 1.5965,-27.6847 9.83398,-28.41574 25.18963,-53.84668 42.724,-78.06073 1.25662,-1.7353 2.80569,-3.35771 4.51748,-4.63112 1.21841,-0.90638 3.1814,-1.84767 4.35825,-1.44545 0.93563,0.3198 1.52496,2.62036 1.65374,4.09516 0.17112,1.95982 -0.076,4.00624 -0.45172,5.95602 -3.65085,18.94643 -7.39023,37.87578 -11.05429,56.81967 -2.24127,11.58768 -4.82702,23.133 -6.43075,34.81092 -1.00565,7.32272 2.50479,11.1271 9.84362,12.53106 8.53776,1.63327 16.76539,-0.18237 23.93201,-2.06097 0.31738,-7.1344 -0.49887,-13.81162 1.06952,-19.87171 8.48679,-32.79232 26.28146,-60.85908 46.12552,-87.73916 1.64453,-2.22763 5.01294,-3.18257 7.58051,-4.72881 0.30102,2.96694 1.29846,6.05919 0.79071,8.8806 -3.44739,19.15633 -7.68436,38.18149 -10.6984,57.40082 -1.81848,11.59564 -2.50348,23.46292 -2.52988,35.21079 -0.016,7.12777 4.86731,11.28338 11.91657,12.8128 10.49536,2.27707 19.50165,-1.43594 28.19171,-6.67615 -5.60071,-12.31057 -6.86914,-18.71069 -4.95618,-30.83294 2.48932,-15.77542 5.50196,-31.46756 8.17591,-47.21482 2.33691,-13.76207 5.51757,-27.48069 6.4887,-41.34715 1.00019,-14.2814 -8.15948,-21.34633 -22.39141,-19.33292 -9.7273,1.37613 -17.80097,6.43908 -23.85675,13.54259 -9.79032,11.48415 -18.48694,23.90102 -27.63321,35.93328 -1.01032,1.3291 -1.94101,2.71873 -3.45847,4.85401 1.59946,-11.98259 3.03574,-22.74289 4.4614,-34.43925 m 87.82382,51.74826 c -4.69281,15.80388 -6.65045,31.87303 -4.88934,48.34132 2.74023,25.62345 24.30981,35.58414 45.38983,20.6713 4.97778,-3.52151 9.79834,-7.68897 13.52203,-12.46988 7.4444,-9.55783 14.0791,-19.74616 21.05023,-29.67273 0.75421,-1.07394 1.52228,-2.13818 2.284,-3.20694 0.83221,3.74097 0.39099,7.00086 0.26941,10.27264 -0.27167,7.30988 -0.85523,14.65299 -0.43298,21.93158 0.4508,7.77103 3.92413,14.19782 11.82665,16.92969 10.18738,3.52164 19.70606,1.60013 28.36048,-4.55526 0.94385,-0.67127 1.69226,-2.96445 1.27508,-3.99881 -5.70782,-14.15574 -4.75781,-28.78717 -3.01281,-43.36558 3.50073,-29.24696 8.55035,-58.18161 19.70819,-86.32998 -13.44849,-4.72463 -26.59125,-9.43338 -39.58393,0.85383 -9.29974,-5.79905 -19.36627,-7.97676 -30.13409,-7.20233 -17.37286,1.24945 -30.17133,10.53107 -40.65912,23.54125 -11.40448,14.14734 -19.27917,30.21356 -24.97363,48.2599 M 105.37744,115.8775 c -3.87741,-6.35924 -9.665606,-8.96255 -16.916096,-8.2669 -10.744893,1.03093 -19.80647,6.07164 -27.525555,11.34291 3.359039,9.10226 7.372573,17.39009 9.477195,26.13722 8.312699,34.54884 11.21475,69.92041 15.07699,105.13963 1.10538,10.07993 2.40788,20.15894 4.17817,30.13938 1.74756,9.85217 7.12226,13.30761 16.833426,11.19003 4.17998,-0.9115 8.22953,-2.5466 12.2097,-4.16855 1.12104,-0.45682 2.1697,-1.89709 2.59713,-3.11578 2.29858,-6.5539 3.70663,-13.5058 6.6681,-19.72724 16.12456,-33.87439 36.4339,-65.30577 57.03163,-96.56492 8.78119,-13.32633 17.35137,-26.80303 25.61007,-40.45778 4.39444,-7.26564 2.30993,-13.45821 -5.65894,-16.36875 -5.52147,-2.01661 -11.60143,-2.59394 -17.48602,-3.43554 -0.95035,-0.13593 -2.68398,1.48936 -3.19873,2.67312 -2.1174,4.86934 -3.71862,9.96343 -5.84208,14.82982 -15.75598,36.10835 -36.48136,69.4167 -57.86888,102.3456 -0.21293,0.32788 -0.70955,0.47152 -1.33328,0.8649 -0.22943,-0.849 -0.48932,-1.44571 -0.54259,-2.06034 -2.08401,-24.04748 -3.76274,-48.13864 -6.37428,-72.12832 -1.37701,-12.64925 -4.37735,-25.12178 -6.93596,-38.36849 m 221.48639,-6.95372 c -12.01803,-3.45497 -23.20709,-0.009 -32.9743,3.16883 0,8.82858 1.16296,16.88403 -0.19944,24.48693 -6.21527,34.68448 -13.35363,69.20281 -19.6835,103.86792 -1.98898,10.89255 -3.01584,22.03519 -3.46927,33.10489 -0.25729,6.28186 3.90155,10.89521 10.06925,12.86023 12.02563,3.83133 22.69873,0.33271 33.16504,-6.13803 -6.04349,-8.51175 -7.48905,-17.72555 -5.76035,-27.10312 6.14517,-33.33574 12.66699,-66.60243 19.13754,-99.87752 2.05842,-10.58541 4.62891,-21.07499 6.51792,-31.68803 0.93548,-5.25586 -0.638,-9.95413 -6.80289,-12.6821 m -78.46374,82.609 c 2.51724,-11.51709 5.41177,-22.96904 7.41583,-34.57474 1.28305,-7.43002 -2.24204,-12.08069 -9.50229,-13.33522 -11.11598,-1.92081 -21.66634,0.72918 -32.24759,4.8079 4.23889,8.84911 3.42497,17.75286 1.82633,26.39911 -3.625,19.60584 -8.21567,39.03524 -11.72551,58.65947 -2.24636,12.55976 -3.68073,25.30692 -4.66626,38.03302 -0.52695,6.80417 3.00651,12.32084 9.81582,14.68161 12.15782,4.21509 22.97832,0.6045 33.40233,-5.71963 -5.74664,-10.80478 -7.26514,-15.39557 -5.40488,-27.32111 3.17344,-20.34411 7.23542,-40.54962 11.08622,-61.63041 M 264.59412,110.588 c 2.10562,-9.7916 -1.2981,-15.145048 -10.76309,-16.223118 -9.1316,-1.0401 -17.67083,1.53919 -24.85642,4.20372 -0.82172,6.569048 -1.47974,12.095968 -2.21255,17.612958 -0.73664,5.54566 1.26954,8.68897 6.69773,9.78449 2.59383,0.52348 5.30114,0.80054 7.94262,0.71944 14.26406,-0.43787 19.67071,-4.08477 23.19171,-16.09749 z"
   id="path15" />
<path
   fill="#fffdfd"
   opacity="1"
   stroke="none"
   d="m 462.54105,162.23451 c -1.431,11.22833 -2.86728,21.98863 -4.46674,33.97122 1.51746,-2.13528 2.44815,-3.52491 3.45847,-4.85401 9.14627,-12.03226 17.84289,-24.44913 27.63321,-35.93328 6.05578,-7.10351 14.12945,-12.16646 23.85675,-13.54259 14.23193,-2.01341 23.3916,5.05152 22.39141,19.33292 -0.97113,13.86646 -4.15179,27.58508 -6.4887,41.34715 -2.67395,15.74726 -5.68659,31.4394 -8.17591,47.21482 -1.91296,12.12225 -0.64453,18.52237 4.95618,30.83294 -8.69006,5.24021 -17.69635,8.95322 -28.19171,6.67615 -7.04926,-1.52942 -11.93256,-5.68503 -11.91657,-12.8128 0.0264,-11.74787 0.7114,-23.61515 2.52988,-35.21079 3.01404,-19.21933 7.25101,-38.24449 10.6984,-57.40082 0.50775,-2.82141 -0.48969,-5.91366 -0.79071,-8.88061 -2.56757,1.54625 -5.93598,2.50119 -7.58051,4.72882 -19.84406,26.88008 -37.63873,54.94684 -46.12552,87.73916 -1.56839,6.06009 -0.75214,12.73731 -1.06952,19.87171 -7.16662,1.8786 -15.39425,3.69424 -23.93201,2.06097 -7.33883,-1.40396 -10.84927,-5.20834 -9.84362,-12.53106 1.60373,-11.67792 4.18948,-23.22324 6.43075,-34.81092 3.66406,-18.94389 7.40344,-37.87324 11.05429,-56.81967 0.37574,-1.94978 0.62284,-3.9962 0.45172,-5.95602 -0.12878,-1.4748 -0.71811,-3.77536 -1.65374,-4.09516 -1.17685,-0.40222 -3.13984,0.53907 -4.35825,1.44545 -1.71179,1.27341 -3.26086,2.89582 -4.51748,4.63112 -17.53437,24.21405 -32.89002,49.64499 -42.724,78.06073 -3.07486,8.88486 -4.74121,17.9982 -1.5965,27.6847 -8.866,2.21353 -17.41144,4.14712 -26.30948,2.22122 -7.07895,-1.53217 -10.66095,-5.50721 -10.02548,-12.655 0.65951,-7.41812 2.20929,-14.77527 3.66003,-22.10159 5.58685,-28.21418 11.51566,-56.36333 16.77628,-84.63733 1.17993,-6.34183 0.17328,-13.0905 0.17328,-20.419 7.14581,-2.61608 15.57443,-4.91128 24.5422,-4.25778 7.88284,0.57443 12.81864,5.18712 11.84104,13.03844 -1.47113,11.8148 -4.29291,23.46123 -6.52524,35.18214 -0.0847,0.44452 -0.0108,0.91925 -0.0108,2.91881 1.74857,-2.1678 2.77146,-3.37459 3.72815,-4.63168 8.65171,-11.36786 16.73908,-23.23274 26.17023,-33.91121 4.66657,-5.28371 11.33377,-9.51221 17.91443,-12.2516 15.70447,-6.53752 27.17398,1.35408 28.0358,18.75445 z"
   id="path16" />
<path
   fill="#fffdfd"
   opacity="1"
   stroke="none"
   d="m 550.44321,213.11983 c 5.61078,-17.65143 13.48547,-33.71765 24.88995,-47.86499 10.48779,-13.01018 23.28626,-22.2918 40.65912,-23.54125 10.76782,-0.77443 20.83435,1.40328 30.13409,7.20233 12.99268,-10.28721 26.13544,-5.57846 39.58393,-0.85383 -11.15784,28.14837 -16.20746,57.08302 -19.70819,86.32998 -1.745,14.57841 -2.69501,29.20984 3.01281,43.36558 0.41718,1.03436 -0.33123,3.32754 -1.27508,3.99881 -8.65442,6.15539 -18.1731,8.0769 -28.36048,4.55526 -7.90252,-2.73187 -11.37585,-9.15866 -11.82665,-16.92969 -0.42225,-7.27859 0.16131,-14.6217 0.43298,-21.93158 0.12158,-3.27178 0.5628,-6.53167 -0.26941,-10.27264 -0.76172,1.06876 -1.52979,2.133 -2.284,3.20694 -6.97113,9.92657 -13.60583,20.1149 -21.05023,29.67273 -3.72369,4.78091 -8.54425,8.94837 -13.52203,12.46988 -21.08002,14.91284 -42.6496,4.95215 -45.38983,-20.6713 -1.76111,-16.46829 0.19653,-32.53744 4.97302,-48.73623 M 629.27084,202.397 c 2.6908,-5.33889 5.44404,-10.64749 8.05713,-16.02414 3.49298,-7.18708 3.44629,-7.20977 -2.17285,-13.06091 -14.19671,-14.7829 -27.03869,-13.25824 -36.06152,5.14253 -10.36835,21.14492 -15.93305,43.6346 -15.57135,67.35794 0.0375,2.45798 0.47125,5.00318 1.2392,7.33753 1.65698,5.03711 5.62817,6.21811 9.54809,2.64987 3.05029,-2.77661 6.03638,-5.85647 8.20313,-9.33041 8.9638,-14.37177 17.60516,-28.94466 26.75817,-44.07241 z"
   id="path17" />
<path
   fill="#fffdfd"
   opacity="1"
   stroke="none"
   d="m 105.52306,116.22469 c 2.41299,12.89952 5.41333,25.37205 6.79034,38.0213 2.61154,23.98968 4.29027,48.08084 6.37428,72.12832 0.0533,0.61463 0.31316,1.21134 0.54259,2.06034 0.62373,-0.39338 1.12035,-0.53702 1.33328,-0.8649 21.38752,-32.9289 42.1129,-66.23725 57.86888,-102.3456 2.12346,-4.86639 3.72468,-9.96048 5.84208,-14.82982 0.51475,-1.18376 2.24838,-2.80905 3.19873,-2.67312 5.88459,0.8416 11.96455,1.41893 17.48602,3.43554 7.96887,2.91054 10.05338,9.10311 5.65894,16.36875 -8.2587,13.65475 -16.82888,27.13145 -25.61007,40.45778 -20.59773,31.25915 -40.90707,62.69053 -57.03163,96.56492 -2.96147,6.22144 -4.36952,13.17334 -6.6681,19.72724 -0.42743,1.21869 -1.47609,2.65896 -2.59713,3.11578 -3.98017,1.62195 -8.02972,3.25705 -12.2097,4.16855 -9.711166,2.11758 -15.085866,-1.33786 -16.833426,-11.19003 -1.77029,-9.98044 -3.07279,-20.05945 -4.17817,-30.13938 -3.86224,-35.21922 -6.764291,-70.59079 -15.07699,-105.13963 -2.104622,-8.74713 -6.118156,-17.03496 -9.477195,-26.13722 7.719085,-5.27127 16.780662,-10.31198 27.525555,-11.34291 7.25049,-0.69565 13.038686,1.90766 17.061716,8.61409 z"
   id="path18" />
<path
   fill="#fffdfd"
   opacity="1"
   stroke="none"
   d="m 327.23599,109.04295 c 5.79273,2.6088 7.36621,7.30707 6.43073,12.56293 -1.88901,10.61304 -4.4595,21.10262 -6.51792,31.68803 -6.47055,33.27509 -12.99237,66.54178 -19.13754,99.87752 -1.7287,9.37757 -0.28314,18.59137 5.76035,27.10312 -10.46631,6.47074 -21.13941,9.96936 -33.16504,6.13803 -6.1677,-1.96502 -10.32654,-6.57837 -10.06925,-12.86023 0.45343,-11.0697 1.48029,-22.21234 3.46927,-33.10489 6.32987,-34.66511 13.46823,-69.18344 19.6835,-103.86792 1.3624,-7.6029 0.19944,-15.65835 0.19944,-24.48693 9.76721,-3.17814 20.95627,-6.6238 33.34646,-3.04966 z"
   id="path19" />
<path
   fill="#fffdfd"
   opacity="1"
   stroke="none"
   d="m 248.31903,191.9413 c -3.76974,20.67227 -7.83172,40.87778 -11.00516,61.22189 -1.86026,11.92554 -0.34176,16.51633 5.40488,27.32111 -10.42401,6.32413 -21.24451,9.93472 -33.40233,5.71963 -6.80931,-2.36077 -10.34277,-7.87744 -9.81582,-14.68161 0.98553,-12.7261 2.4199,-25.47326 4.66626,-38.03302 3.50984,-19.62423 8.10051,-39.05363 11.72551,-58.65947 1.59864,-8.64625 2.41256,-17.55 -1.82633,-26.39911 10.58125,-4.07872 21.13161,-6.72871 32.24759,-4.8079 7.26025,1.25453 10.78534,5.9052 9.50229,13.33522 -2.00406,11.6057 -4.89859,23.05765 -7.49689,34.98326 z"
   id="path20" />
<path
   fill="#fefbfb"
   opacity="1"
   stroke="none"
   d="m 264.52579,110.99492 c -3.45267,11.6058 -8.85932,15.2527 -23.12338,15.69057 -2.64148,0.0811 -5.34879,-0.19596 -7.94262,-0.71944 -5.42819,-1.09552 -7.43437,-4.23883 -6.69773,-9.78449 0.73281,-5.51699 1.39083,-11.04391 2.21255,-17.612958 7.18559,-2.66453 15.72482,-5.24382 24.85642,-4.20372 9.46499,1.07807 12.86871,6.431518 10.69476,16.630038 z"
   id="path21" />
<path
   fill="#cf142f"
   opacity="1"
   stroke="none"
   d="m 629.07419,202.71138 c -8.95636,14.81337 -17.59772,29.38626 -26.56152,43.75803 -2.16675,3.47394 -5.15284,6.5538 -8.20313,9.33041 -3.91992,3.56824 -7.89111,2.38724 -9.54809,-2.64987 -0.76795,-2.33435 -1.20173,-4.87955 -1.2392,-7.33753 -0.3617,-23.72334 5.203,-46.21302 15.57135,-67.35794 9.02283,-18.40077 21.86481,-19.92543 36.06152,-5.14253 5.61914,5.85114 5.66583,5.87383 2.17285,13.06091 -2.61309,5.37665 -5.36633,10.68525 -8.25378,16.33852 z"
   id="path22" />
</svg>
