<?xml version="1.0" encoding="UTF-8" standalone="no"?>
<svg
   version="1.1"
   id="Layer_1"
   x="0px"
   y="0px"
   width="100%"
   viewBox="0 0 827 551"
   enable-background="new 0 0 827 551"
   xml:space="preserve"
   sodipodi:docname="Vilma-Alimentos-2022_transparente.svg"
   inkscape:version="1.4 (86a8ad7, 2024-10-11)"
   xmlns:inkscape="http://www.inkscape.org/namespaces/inkscape"
   xmlns:sodipodi="http://sodipodi.sourceforge.net/DTD/sodipodi-0.dtd"
   xmlns="http://www.w3.org/2000/svg"
   xmlns:svg="http://www.w3.org/2000/svg"><defs
   id="defs22" /><sodipodi:namedview
   id="namedview22"
   pagecolor="#ffffff"
   bordercolor="#000000"
   borderopacity="0.25"
   inkscape:showpageshadow="2"
   inkscape:pageopacity="0.0"
   inkscape:pagecheckerboard="0"
   inkscape:deskcolor="#d1d1d1"
   inkscape:zoom="1.4646098"
   inkscape:cx="413.42069"
   inkscape:cy="275.5"
   inkscape:window-width="1920"
   inkscape:window-height="1009"
   inkscape:window-x="-8"
   inkscape:window-y="-8"
   inkscape:window-maximized="1"
   inkscape:current-layer="Layer_1" />
<path
   fill="#000000"
   opacity="1.000000"
   stroke="none"
   d=" M533.000000,552.000000   C355.333344,552.000000 178.166672,552.000000 1.000000,552.000000   C1.000000,368.333344 1.000000,184.666672 1.000000,1.000000   C276.666656,1.000000 552.333313,1.000000 828.000000,1.000000   C828.000000,184.666672 828.000000,368.333344 828.000000,552.000000   C729.833313,552.000000 631.666687,552.000000 533.000000,552.000000  M762.524780,38.902363   C752.984070,35.030735 743.209717,32.350155 732.769409,33.000172   C716.452820,34.016048 700.131470,34.959641 683.819946,36.050461   C675.929932,36.578098 668.053040,37.321568 660.178345,38.054550   C646.418701,39.335304 632.669800,40.732933 618.907654,41.985161   C610.375305,42.761524 601.819519,43.279530 593.287231,44.056702   C579.525024,45.310257 565.776733,46.717381 552.016174,47.990429   C543.807617,48.749840 535.580139,49.305557 527.373169,50.080166   C514.105835,51.332386 500.855286,52.764606 487.584442,53.976227   C478.552917,54.800800 469.490845,55.288258 460.456726,56.087597   C446.520874,57.320629 432.599701,58.717834 418.667572,59.994190   C410.460052,60.746094 402.237183,61.332317 394.032501,62.111893   C380.931519,63.356693 367.847717,64.786255 354.741730,65.973129   C345.542023,66.806252 336.307281,67.251770 327.106445,68.074158   C313.516266,69.288872 299.946259,70.727013 286.360016,71.987740   C277.985199,72.764870 269.590240,73.324867 261.214874,74.096436   C247.616623,75.349152 234.030701,76.735435 220.432404,77.987541   C212.055969,78.758835 203.660751,79.325333 195.283752,80.090988   C181.517075,81.349251 167.760315,82.715523 153.995544,83.995102   C146.124435,84.726791 138.240097,85.318092 130.371811,86.077370   C117.272552,87.341431 104.202209,88.984734 91.080299,89.909271   C80.559952,90.650513 70.656067,93.492996 61.513832,98.296082   C47.597347,105.607452 36.311539,116.150742 28.623466,129.964462   C21.568583,142.640488 17.718006,156.713364 20.385815,170.905655   C24.304125,191.750397 30.036623,212.269852 35.391712,232.824860   C42.399258,259.722687 49.670708,286.553650 57.065510,313.347992   C61.480240,329.344330 64.264305,345.887512 73.089134,360.442780   C83.890617,378.258301 99.425896,389.752472 119.400810,394.866547   C129.198380,397.374939 139.353897,398.593414 149.405106,399.976471   C163.072586,401.857178 176.781097,403.468475 190.498779,404.946747   C201.632401,406.146515 212.795822,407.109161 223.963272,407.947021   C243.212860,409.391296 262.473175,410.696991 281.734283,411.981873   C292.938049,412.729248 304.146515,413.444550 315.362762,413.957489   C332.400177,414.736603 349.445831,415.875824 366.488586,415.886322   C404.593964,415.909760 442.700287,415.385895 480.804932,414.967133   C493.913971,414.823059 507.021057,414.388458 520.125305,413.969604   C526.569275,413.763641 533.015808,413.428009 539.441895,412.911133   C554.712280,411.682892 569.970459,410.302948 585.235046,409.001556   C593.451355,408.301086 601.709167,407.936554 609.879822,406.887238   C623.364990,405.155426 636.769958,402.799713 650.253906,401.057220   C668.234680,398.733673 685.659546,395.083130 701.424438,385.323822   C717.254700,375.524048 728.915649,362.470764 734.914795,344.798523   C748.070312,306.045105 761.028015,267.224426 774.013550,228.413437   C782.834900,202.048462 791.374084,175.587326 800.406006,149.295105   C806.377869,131.910568 811.223755,114.549995 808.063171,95.851585   C806.167053,84.633492 802.328857,74.277046 795.580261,65.188301   C787.093079,53.758278 776.536316,44.698784 762.524780,38.902363  M346.000732,493.742065   C346.000732,491.850159 346.000732,489.958252 346.000732,486.686462   C348.250122,490.069824 349.633881,492.239594 351.106720,494.347137   C353.781647,498.174805 358.262054,498.154999 360.921783,494.330078   C362.407898,492.192963 363.864166,490.035095 365.333862,487.886536   C365.642334,488.022980 365.950806,488.159454 366.259277,488.295898   C366.259277,493.064941 366.259277,497.833984 366.259277,502.588501   C369.684601,502.588501 372.721924,502.588501 375.701721,502.588501   C375.701721,489.915039 375.701721,477.655243 375.701721,465.485504   C370.908325,464.116638 367.851776,465.213776 365.481567,469.721619   C362.956085,474.524750 359.386780,478.779053 355.972351,483.707214   C352.429749,478.566162 348.995911,474.341187 346.432281,469.641571   C344.042297,465.260284 341.019958,464.013733 336.341675,465.546204   C336.341675,477.884430 336.341675,490.263153 336.341675,502.565735   C339.738464,502.565735 342.773804,502.565735 346.000763,502.565735   C346.000763,499.639771 346.000763,497.146637 346.000732,493.742065  M453.478851,480.982269   C450.335602,477.381195 446.788879,474.049622 444.155853,470.107727   C441.165192,465.630310 437.660736,463.874207 432.326294,465.519287   C432.326294,477.859192 432.326294,490.232300 432.326294,502.583191   C435.698212,502.583191 438.734314,502.583191 442.297729,502.583191   C442.297729,496.339294 442.297729,490.509949 442.297729,484.147461   C446.832794,489.279449 451.066528,493.661407 454.808136,498.429596   C458.000763,502.498169 461.549774,504.317810 466.622009,502.417053   C466.622009,490.010071 466.622009,477.641083 466.622009,465.290771   C463.314789,465.290771 460.389435,465.290771 456.889252,465.290771   C456.889252,471.718781 456.889252,477.878418 456.889252,484.532288   C455.556976,483.132568 454.768768,482.304504 453.478851,480.982269  M541.405640,465.000427   C526.732544,463.174316 516.877869,477.469757 522.145020,491.311401   C525.003967,498.824310 529.979858,503.677521 542.144531,503.090698   C552.210815,502.605103 559.893860,495.583679 559.999084,485.813690   C560.140747,472.658020 553.846252,465.251312 541.405640,465.000427  M418.997223,499.421753   C418.997223,497.688385 418.997223,495.954987 418.997223,493.817535   C412.554626,493.817535 406.957581,493.817535 400.994690,493.817535   C401.141846,492.002625 401.253052,490.631256 401.396667,488.860413   C406.699890,488.860413 411.625977,488.860413 416.626770,488.860413   C416.626770,485.715820 416.626770,483.015533 416.626770,479.899414   C411.333008,479.899414 406.400696,479.899414 401.352539,479.899414   C401.352539,477.767334 401.352539,476.064880 401.352539,473.761658   C407.394348,473.761658 413.110962,473.761658 418.668640,473.761658   C418.668640,470.563324 418.668640,467.974426 418.668640,465.414734   C408.975403,465.414734 399.617645,465.414734 389.999298,465.414734   C389.999298,471.967163 389.999298,478.107269 389.999298,484.247375   C389.999298,490.343903 389.999298,496.440460 389.999298,502.986420   C399.196045,502.986420 407.804443,503.062592 416.406891,502.870941   C417.286163,502.851349 418.129669,501.225525 418.997223,499.421753  M603.987976,494.009308   C604.018372,484.634735 602.487122,482.595490 593.464294,480.244446   C591.254944,479.668793 588.924500,479.500519 586.776306,478.771759   C585.724487,478.414948 584.084656,476.919647 584.241516,476.432587   C584.643738,475.183838 585.804871,473.430359 586.840637,473.300690   C588.644287,473.074860 591.761414,473.352539 592.267578,474.407562   C595.075562,480.260529 599.686401,477.456940 605.167664,477.843475   C603.564026,474.524658 602.825806,471.805847 601.189697,469.830872   C595.986145,463.549591 588.837341,464.218872 581.976501,465.653656   C576.164978,466.868988 573.034302,471.150146 573.001038,476.291443   C572.961060,482.489868 575.280884,485.437286 581.960999,487.463074   C584.615295,488.268005 587.408020,488.672638 589.979980,489.667419   C591.163269,490.125061 591.966675,491.564819 592.942322,492.559296   C591.654053,493.364227 590.394470,494.760895 589.070129,494.825226   C587.392334,494.906708 584.734253,494.416107 584.111084,493.284393   C581.041626,487.710388 576.346497,490.749603 572.270081,490.085297   C572.351440,496.499023 576.628357,501.866241 582.188477,502.979279   C592.916443,505.126770 600.293945,502.366089 603.987976,494.009308  M233.130493,467.504181   C228.322739,479.064667 223.514999,490.625153 218.661270,502.296204   C227.799896,504.041779 228.410736,503.788849 232.034088,497.169739   C236.864960,497.169739 241.668304,497.169739 246.405548,497.169739   C248.914108,503.807159 249.988052,504.244873 259.573029,502.164978   C254.430130,490.232361 249.440994,478.393799 244.190338,466.672394   C242.990189,463.993225 236.376740,464.303101 233.130493,467.504181  M507.317291,464.999817   C498.033875,464.999817 488.750427,464.999817 479.374023,464.999817   C479.374023,468.286560 479.374023,470.992249 479.374023,474.132202   C483.005493,474.132202 486.269867,474.132202 490.132843,474.132202   C490.132843,483.952362 490.132843,493.344879 490.132843,502.707520   C493.682983,502.707520 496.610870,502.707520 500.147644,502.707520   C500.147644,493.039093 500.147644,483.648193 500.147644,473.844543   C504.366760,473.844543 507.968262,473.844543 512.443420,473.844543   C510.318268,470.658081 515.691956,465.332764 507.317291,464.999817  M290.442688,503.000824   C293.203918,503.000824 295.965149,503.000824 298.712067,503.000824   C298.712067,499.659668 298.712067,497.065338 298.712067,493.860352   C292.722870,493.860352 287.001678,493.860352 280.861450,493.860352   C280.861450,483.981110 280.861450,474.719513 280.861450,465.382935   C277.371643,465.382935 274.333405,465.382935 271.295654,465.382935   C271.295654,478.020721 271.295654,490.273468 271.295654,503.000824   C277.538940,503.000824 283.497437,503.000824 290.442688,503.000824  M320.999939,488.494080   C320.999939,480.739471 320.999939,472.984894 320.999939,465.325836   C317.288574,465.325836 314.366577,465.325836 311.397278,465.325836   C311.397278,478.026398 311.397278,490.397186 311.397278,502.686462   C314.726593,502.686462 317.654572,502.686462 320.999939,502.686462   C320.999939,498.085144 320.999939,493.787659 320.999939,488.494080  z"
   id="path1"
   style="fill:none" />
<path
   fill="#CE142F"
   opacity="1.000000"
   stroke="none"
   d=" M762.901306,38.990250   C776.536316,44.698784 787.093079,53.758278 795.580261,65.188301   C802.328857,74.277046 806.167053,84.633492 808.063171,95.851585   C811.223755,114.549995 806.377869,131.910568 800.406006,149.295105   C791.374084,175.587326 782.834900,202.048462 774.013550,228.413437   C761.028015,267.224426 748.070312,306.045105 734.914795,344.798523   C728.915649,362.470764 717.254700,375.524048 701.424438,385.323822   C685.659546,395.083130 668.234680,398.733673 650.253906,401.057220   C636.769958,402.799713 623.364990,405.155426 609.879822,406.887238   C601.709167,407.936554 593.451355,408.301086 585.235046,409.001556   C569.970459,410.302948 554.712280,411.682892 539.441895,412.911133   C533.015808,413.428009 526.569275,413.763641 520.125305,413.969604   C507.021057,414.388458 493.913971,414.823059 480.804932,414.967133   C442.700287,415.385895 404.593964,415.909760 366.488586,415.886322   C349.445831,415.875824 332.400177,414.736603 315.362762,413.957489   C304.146515,413.444550 292.938049,412.729248 281.734283,411.981873   C262.473175,410.696991 243.212860,409.391296 223.963272,407.947021   C212.795822,407.109161 201.632401,406.146515 190.498779,404.946747   C176.781097,403.468475 163.072586,401.857178 149.405106,399.976471   C139.353897,398.593414 129.198380,397.374939 119.400810,394.866547   C99.425896,389.752472 83.890617,378.258301 73.089134,360.442780   C64.264305,345.887512 61.480240,329.344330 57.065510,313.347992   C49.670708,286.553650 42.399258,259.722687 35.391712,232.824860   C30.036623,212.269852 24.304125,191.750397 20.385815,170.905655   C17.718006,156.713364 21.568583,142.640488 28.623466,129.964462   C36.311539,116.150742 47.597347,105.607452 61.513832,98.296082   C70.656067,93.492996 80.559952,90.650513 91.080299,89.909271   C104.202209,88.984734 117.272552,87.341431 130.371811,86.077370   C138.240097,85.318092 146.124435,84.726791 153.995544,83.995102   C167.760315,82.715523 181.517075,81.349251 195.283752,80.090988   C203.660751,79.325333 212.055969,78.758835 220.432404,77.987541   C234.030701,76.735435 247.616623,75.349152 261.214874,74.096436   C269.590240,73.324867 277.985199,72.764870 286.360016,71.987740   C299.946259,70.727013 313.516266,69.288872 327.106445,68.074158   C336.307281,67.251770 345.542023,66.806252 354.741730,65.973129   C367.847717,64.786255 380.931519,63.356693 394.032501,62.111893   C402.237183,61.332317 410.460052,60.746094 418.667572,59.994190   C432.599701,58.717834 446.520874,57.320629 460.456726,56.087597   C469.490845,55.288258 478.552917,54.800800 487.584442,53.976227   C500.855286,52.764606 514.105835,51.332386 527.373169,50.080166   C535.580139,49.305557 543.807617,48.749840 552.016174,47.990429   C565.776733,46.717381 579.525024,45.310257 593.287231,44.056702   C601.819519,43.279530 610.375305,42.761524 618.907654,41.985161   C632.669800,40.732933 646.418701,39.335304 660.178345,38.054550   C668.053040,37.321568 675.929932,36.578098 683.819946,36.050461   C700.131470,34.959641 716.452820,34.016048 732.769409,33.000172   C743.209717,32.350155 752.984070,35.030735 762.901306,38.990250  M39.950531,199.598923   C51.647427,243.796677 63.285233,288.010162 75.061760,332.186676   C83.047905,362.144562 102.013519,380.606476 133.004791,385.005371   C158.335556,388.600800 183.791534,391.465729 209.267868,393.840729   C234.120193,396.157532 259.051331,397.767212 283.979218,399.101776   C318.569122,400.953613 353.178467,403.183563 387.797638,403.554047   C427.266357,403.976410 466.760681,402.763947 506.232452,401.795685   C524.201965,401.354919 542.174744,400.157440 560.090759,398.647217   C582.123779,396.789948 604.148132,394.636566 626.082825,391.870544   C641.869507,389.879822 657.825256,387.870361 673.131226,383.740356   C697.098572,377.273285 715.430420,363.303650 723.689026,338.617828   C746.333923,270.930298 768.994568,203.248062 791.676270,135.572906   C795.808655,123.243248 797.562805,110.644112 795.475098,97.765778   C789.591919,61.473682 754.298035,41.253002 721.494080,45.517395   C705.174133,47.638927 688.695618,48.544094 672.287292,49.981899   C655.713501,51.434200 639.134888,52.833229 622.563538,54.312752   C601.685974,56.176735 580.814575,58.108425 559.938843,59.992458   C543.700867,61.457939 527.458679,62.877483 511.221222,64.349457   C490.677246,66.211830 470.138092,68.127388 449.593353,69.980911   C433.189697,71.460846 416.777802,72.849289 400.374969,74.338058   C379.997559,76.187576 359.628723,78.131447 339.250671,79.973709   C319.202576,81.786133 299.143921,83.481834 279.096680,85.303543   C258.884521,87.140228 238.684464,89.110123 218.472198,90.945526   C198.424698,92.765976 178.365814,94.461006 158.316986,96.267128   C137.442673,98.147606 116.586731,100.245590 95.698997,101.958740   C82.489479,103.042152 70.226257,106.567879 59.510452,114.527588   C41.347153,128.019287 30.840199,145.616409 33.135231,168.767883   C34.139206,178.895645 37.503494,188.789413 39.950531,199.598923  z"
   id="path2" />
<path
   fill="#CE122D"
   opacity="1.000000"
   stroke="none"
   d=" M346.000732,494.197754   C346.000763,497.146637 346.000763,499.639771 346.000763,502.565735   C342.773804,502.565735 339.738464,502.565735 336.341675,502.565735   C336.341675,490.263153 336.341675,477.884430 336.341675,465.546204   C341.019958,464.013733 344.042297,465.260284 346.432281,469.641571   C348.995911,474.341187 352.429749,478.566162 355.972351,483.707214   C359.386780,478.779053 362.956085,474.524750 365.481567,469.721619   C367.851776,465.213776 370.908325,464.116638 375.701721,465.485504   C375.701721,477.655243 375.701721,489.915039 375.701721,502.588501   C372.721924,502.588501 369.684601,502.588501 366.259277,502.588501   C366.259277,497.833984 366.259277,493.064941 366.259277,488.295898   C365.950806,488.159454 365.642334,488.022980 365.333862,487.886536   C363.864166,490.035095 362.407898,492.192963 360.921783,494.330078   C358.262054,498.154999 353.781647,498.174805 351.106720,494.347137   C349.633881,492.239594 348.250122,490.069824 346.000732,486.686462   C346.000732,489.958252 346.000732,491.850159 346.000732,494.197754  z"
   id="path3" />
<path
   fill="#CE122D"
   opacity="1.000000"
   stroke="none"
   d=" M453.729736,481.229370   C454.768768,482.304504 455.556976,483.132568 456.889252,484.532288   C456.889252,477.878418 456.889252,471.718781 456.889252,465.290771   C460.389435,465.290771 463.314789,465.290771 466.622009,465.290771   C466.622009,477.641083 466.622009,490.010071 466.622009,502.417053   C461.549774,504.317810 458.000763,502.498169 454.808136,498.429596   C451.066528,493.661407 446.832794,489.279449 442.297729,484.147461   C442.297729,490.509949 442.297729,496.339294 442.297729,502.583191   C438.734314,502.583191 435.698212,502.583191 432.326294,502.583191   C432.326294,490.232300 432.326294,477.859192 432.326294,465.519287   C437.660736,463.874207 441.165192,465.630310 444.155853,470.107727   C446.788879,474.049622 450.335602,477.381195 453.729736,481.229370  z"
   id="path4" />
<path
   fill="#CE122D"
   opacity="1.000000"
   stroke="none"
   d=" M541.858521,465.000488   C553.846252,465.251312 560.140747,472.658020 559.999084,485.813690   C559.893860,495.583679 552.210815,502.605103 542.144531,503.090698   C529.979858,503.677521 525.003967,498.824310 522.145020,491.311401   C516.877869,477.469757 526.732544,463.174316 541.858521,465.000488  M549.107666,487.381378   C551.071228,481.160797 549.032104,476.827728 543.075195,474.562347   C538.654846,472.881348 534.093445,475.282318 531.867004,480.461945   C529.760376,485.363159 531.614624,490.335144 536.459351,492.775482   C541.524841,495.327026 545.822754,493.730804 549.107666,487.381378  z"
   id="path5" />
<path
   fill="#CE122D"
   opacity="1.000000"
   stroke="none"
   d=" M418.993500,499.883423   C418.129669,501.225525 417.286163,502.851349 416.406891,502.870941   C407.804443,503.062592 399.196045,502.986420 389.999298,502.986420   C389.999298,496.440460 389.999298,490.343903 389.999298,484.247375   C389.999298,478.107269 389.999298,471.967163 389.999298,465.414734   C399.617645,465.414734 408.975403,465.414734 418.668640,465.414734   C418.668640,467.974426 418.668640,470.563324 418.668640,473.761658   C413.110962,473.761658 407.394348,473.761658 401.352539,473.761658   C401.352539,476.064880 401.352539,477.767334 401.352539,479.899414   C406.400696,479.899414 411.333008,479.899414 416.626770,479.899414   C416.626770,483.015533 416.626770,485.715820 416.626770,488.860413   C411.625977,488.860413 406.699890,488.860413 401.396667,488.860413   C401.253052,490.631256 401.141846,492.002625 400.994690,493.817535   C406.957581,493.817535 412.554626,493.817535 418.997223,493.817535   C418.997223,495.954987 418.997223,497.688385 418.993500,499.883423  z"
   id="path6" />
<path
   fill="#CE122D"
   opacity="1.000000"
   stroke="none"
   d=" M603.967285,494.423340   C600.293945,502.366089 592.916443,505.126770 582.188477,502.979279   C576.628357,501.866241 572.351440,496.499023 572.270081,490.085297   C576.346497,490.749603 581.041626,487.710388 584.111084,493.284393   C584.734253,494.416107 587.392334,494.906708 589.070129,494.825226   C590.394470,494.760895 591.654053,493.364227 592.942322,492.559265   C591.966675,491.564819 591.163269,490.125061 589.979980,489.667419   C587.408020,488.672638 584.615295,488.268005 581.960999,487.463074   C575.280884,485.437286 572.961060,482.489868 573.001038,476.291443   C573.034302,471.150146 576.164978,466.868988 581.976501,465.653656   C588.837341,464.218872 595.986145,463.549591 601.189697,469.830872   C602.825806,471.805847 603.564026,474.524658 605.167664,477.843475   C599.686401,477.456940 595.075562,480.260529 592.267578,474.407562   C591.761414,473.352539 588.644287,473.074860 586.840637,473.300690   C585.804871,473.430359 584.643738,475.183838 584.241516,476.432587   C584.084656,476.919647 585.724487,478.414948 586.776306,478.771759   C588.924500,479.500519 591.254944,479.668793 593.464294,480.244446   C602.487122,482.595490 604.018372,484.634735 603.967285,494.423340  z"
   id="path7" />
<path
   fill="#CE122D"
   opacity="1.000000"
   stroke="none"
   d=" M233.380768,467.178467   C236.376740,464.303101 242.990189,463.993225 244.190338,466.672394   C249.440994,478.393799 254.430130,490.232361 259.573029,502.164978   C249.988052,504.244873 248.914108,503.807159 246.405548,497.169739   C241.668304,497.169739 236.864960,497.169739 232.034088,497.169739   C228.410736,503.788849 227.799896,504.041779 218.661270,502.296204   C223.514999,490.625153 228.322739,479.064667 233.380768,467.178467  M238.139969,479.807861   C237.246231,482.426971 236.352478,485.046082 235.400635,487.835449   C238.177917,487.835449 240.304413,487.835449 243.287766,487.835449   C241.560730,484.648285 240.092972,481.939636 238.139969,479.807861  z"
   id="path8" />
<path
   fill="#CE122D"
   opacity="1.000000"
   stroke="none"
   d=" M507.793701,465.000427   C515.691956,465.332764 510.318268,470.658081 512.443420,473.844543   C507.968262,473.844543 504.366760,473.844543 500.147644,473.844543   C500.147644,483.648193 500.147644,493.039093 500.147644,502.707520   C496.610870,502.707520 493.682983,502.707520 490.132843,502.707520   C490.132843,493.344879 490.132843,483.952362 490.132843,474.132202   C486.269867,474.132202 483.005493,474.132202 479.374023,474.132202   C479.374023,470.992249 479.374023,468.286560 479.374023,464.999817   C488.750427,464.999817 498.033875,464.999817 507.793701,465.000427  z"
   id="path9" />
<path
   fill="#CE122D"
   opacity="1.000000"
   stroke="none"
   d=" M289.949310,503.000824   C283.497437,503.000824 277.538940,503.000824 271.295654,503.000824   C271.295654,490.273468 271.295654,478.020721 271.295654,465.382935   C274.333405,465.382935 277.371643,465.382935 280.861450,465.382935   C280.861450,474.719513 280.861450,483.981110 280.861450,493.860352   C287.001678,493.860352 292.722870,493.860352 298.712067,493.860352   C298.712067,497.065338 298.712067,499.659668 298.712067,503.000824   C295.965149,503.000824 293.203918,503.000824 289.949310,503.000824  z"
   id="path10" />
<path
   fill="#CE122D"
   opacity="1.000000"
   stroke="none"
   d=" M320.999939,488.992126   C320.999939,493.787659 320.999939,498.085144 320.999939,502.686462   C317.654572,502.686462 314.726593,502.686462 311.397278,502.686462   C311.397278,490.397186 311.397278,478.026398 311.397278,465.325836   C314.366577,465.325836 317.288574,465.325836 320.999939,465.325836   C320.999939,472.984894 320.999939,480.739471 320.999939,488.992126  z"
   id="path11" />
<path
   fill="#FEFBFB"
   opacity="1.000000"
   stroke="none"
   d=" M39.873245,199.194183   C37.503494,188.789413 34.139206,178.895645 33.135231,168.767883   C30.840199,145.616409 41.347153,128.019287 59.510452,114.527588   C70.226257,106.567879 82.489479,103.042152 95.698997,101.958740   C116.586731,100.245590 137.442673,98.147606 158.316986,96.267128   C178.365814,94.461006 198.424698,92.765976 218.472198,90.945526   C238.684464,89.110123 258.884521,87.140228 279.096680,85.303543   C299.143921,83.481834 319.202576,81.786133 339.250671,79.973709   C359.628723,78.131447 379.997559,76.187576 400.374969,74.338058   C416.777802,72.849289 433.189697,71.460846 449.593353,69.980911   C470.138092,68.127388 490.677246,66.211830 511.221222,64.349457   C527.458679,62.877483 543.700867,61.457939 559.938843,59.992458   C580.814575,58.108425 601.685974,56.176735 622.563538,54.312752   C639.134888,52.833229 655.713501,51.434200 672.287292,49.981899   C688.695618,48.544094 705.174133,47.638927 721.494080,45.517395   C754.298035,41.253002 789.591919,61.473682 795.475098,97.765778   C797.562805,110.644112 795.808655,123.243248 791.676270,135.572906   C768.994568,203.248062 746.333923,270.930298 723.689026,338.617828   C715.430420,363.303650 697.098572,377.273285 673.131226,383.740356   C657.825256,387.870361 641.869507,389.879822 626.082825,391.870544   C604.148132,394.636566 582.123779,396.789948 560.090759,398.647217   C542.174744,400.157440 524.201965,401.354919 506.232452,401.795685   C466.760681,402.763947 427.266357,403.976410 387.797638,403.554047   C353.178467,403.183563 318.569122,400.953613 283.979218,399.101776   C259.051331,397.767212 234.120193,396.157532 209.267868,393.840729   C183.791534,391.465729 158.335556,388.600800 133.004791,385.005371   C102.013519,380.606476 83.047905,362.144562 75.061760,332.186676   C63.285233,288.010162 51.647427,243.796677 39.873245,199.194183  M547.374207,386.957123   C569.927246,384.896301 592.537354,383.312775 615.015381,380.624298   C633.165222,378.453522 651.426758,376.064178 669.148010,371.754272   C690.986145,366.443176 706.829956,353.334595 713.111206,330.566681   C715.185303,323.048676 718.024292,315.742126 720.501465,308.334869   C740.427185,248.752701 760.366821,189.175232 780.259399,129.582031   C784.252869,117.618797 785.243958,105.484421 781.468140,93.254219   C774.485718,70.637337 752.928406,56.154911 727.296509,57.918941   C700.552551,59.759518 673.872314,62.528706 647.164795,64.897560   C604.532532,68.678856 561.896362,72.417648 519.269714,76.261139   C469.511322,80.747673 419.764099,85.358673 370.006775,89.857498   C323.898041,94.026436 277.778839,98.079506 231.670761,102.255585   C185.065887,106.476669 138.479355,110.903542 91.864876,115.014305   C62.372589,117.615120 39.428814,146.803299 46.520500,174.492661   C59.966892,226.993805 74.006149,279.345001 88.096497,331.678436   C93.811836,352.905975 107.591240,366.510925 129.174896,371.586456   C135.798965,373.144104 142.579056,374.245087 149.350906,374.931610   C178.008789,377.836914 206.645737,381.167969 235.373688,383.112152   C281.072327,386.204834 326.809937,389.210205 372.581360,390.616211   C430.550507,392.396973 488.530731,390.764648 547.374207,386.957123  z"
   id="path12" />
<path
   fill="#000000"
   opacity="1.000000"
   stroke="none"
   d=" M549.010254,487.765869   C545.822754,493.730804 541.524841,495.327026 536.459351,492.775482   C531.614624,490.335144 529.760376,485.363159 531.867004,480.461945   C534.093445,475.282318 538.654846,472.881348 543.075195,474.562347   C549.032104,476.827728 551.071228,481.160797 549.010254,487.765869  z"
   id="path13"
   style="fill:none" />
<path
   fill="#000000"
   opacity="1.000000"
   stroke="none"
   d=" M238.382599,479.519409   C240.092972,481.939636 241.560730,484.648285 243.287766,487.835449   C240.304413,487.835449 238.177917,487.835449 235.400635,487.835449   C236.352478,485.046082 237.246231,482.426971 238.382599,479.519409  z"
   id="path14"
   style="fill:none" />
<path
   fill="#CE132E"
   opacity="1.000000"
   stroke="none"
   d=" M546.900269,386.975464   C488.530731,390.764648 430.550507,392.396973 372.581360,390.616211   C326.809937,389.210205 281.072327,386.204834 235.373688,383.112152   C206.645737,381.167969 178.008789,377.836914 149.350906,374.931610   C142.579056,374.245087 135.798965,373.144104 129.174896,371.586456   C107.591240,366.510925 93.811836,352.905975 88.096497,331.678436   C74.006149,279.345001 59.966892,226.993805 46.520500,174.492661   C39.428814,146.803299 62.372589,117.615120 91.864876,115.014305   C138.479355,110.903542 185.065887,106.476669 231.670761,102.255585   C277.778839,98.079506 323.898041,94.026436 370.006775,89.857498   C419.764099,85.358673 469.511322,80.747673 519.269714,76.261139   C561.896362,72.417648 604.532532,68.678856 647.164795,64.897560   C673.872314,62.528706 700.552551,59.759518 727.296509,57.918941   C752.928406,56.154911 774.485718,70.637337 781.468140,93.254219   C785.243958,105.484421 784.252869,117.618797 780.259399,129.582031   C760.366821,189.175232 740.427185,248.752701 720.501465,308.334869   C718.024292,315.742126 715.185303,323.048676 713.111206,330.566681   C706.829956,353.334595 690.986145,366.443176 669.148010,371.754272   C651.426758,376.064178 633.165222,378.453522 615.015381,380.624298   C592.537354,383.312775 569.927246,384.896301 546.900269,386.975464  M482.071747,194.669510   C481.215271,177.737167 469.745758,169.845566 454.041290,176.383087   C447.460632,179.122482 440.793427,183.350983 436.126862,188.634689   C426.695709,199.313156 418.608337,211.178040 409.956635,222.545898   C408.999939,223.802994 407.977051,225.009781 406.228485,227.177582   C406.228485,225.178024 406.154602,224.703293 406.239288,224.258774   C408.471619,212.537857 411.293396,200.891434 412.764526,189.076630   C413.742126,181.225311 408.806335,176.612625 400.923492,176.038193   C391.955719,175.384689 383.527100,177.679886 376.381287,180.295975   C376.381287,187.624466 377.387939,194.373138 376.208008,200.714966   C370.947388,228.988968 365.018585,257.138123 359.431732,285.352295   C357.980988,292.678619 356.431213,300.035767 355.771698,307.453888   C355.136230,314.601685 358.718231,318.576721 365.797180,320.108887   C374.695221,322.034790 383.240662,320.101196 392.106659,317.887665   C388.961945,308.201172 390.628296,299.087830 393.703156,290.202972   C403.537140,261.787231 418.892792,236.356293 436.427155,212.142242   C437.683777,210.406937 439.232849,208.784531 440.944641,207.511124   C442.163055,206.604736 444.126038,205.663452 445.302887,206.065674   C446.238525,206.385468 446.827850,208.686035 446.956635,210.160828   C447.127747,212.120651 446.880646,214.167068 446.504913,216.116852   C442.854065,235.063278 439.114685,253.992630 435.450623,272.936523   C433.209351,284.524200 430.623596,296.069519 429.019867,307.747437   C428.014221,315.070160 431.524658,318.874542 438.863495,320.278503   C447.401245,321.911774 455.628876,320.096130 462.795502,318.217529   C463.112885,311.083130 462.296631,304.405914 463.865021,298.345825   C472.351807,265.553497 490.146484,237.486740 509.990540,210.606659   C511.635071,208.379028 515.003479,207.424088 517.571045,205.877853   C517.872070,208.844788 518.869507,211.937042 518.361755,214.758453   C514.914368,233.914780 510.677399,252.939941 507.663361,272.159271   C505.844879,283.754913 505.159882,295.622192 505.133484,307.370056   C505.117493,314.497833 510.000793,318.653442 517.050049,320.182861   C527.545410,322.459930 536.551697,318.746918 545.241760,313.506714   C539.641052,301.196136 538.372620,294.796021 540.285583,282.673767   C542.774902,266.898346 545.787537,251.206207 548.461487,235.458954   C550.798401,221.696884 553.979065,207.978256 554.950195,194.111801   C555.950378,179.830399 546.790710,172.765472 532.558777,174.778885   C522.831482,176.155014 514.757812,181.217957 508.702026,188.321472   C498.911713,199.805618 490.215088,212.222488 481.068817,224.254745   C480.058502,225.583847 479.127808,226.973480 477.610352,229.108765   C479.209808,217.126175 480.646088,206.365875 482.071747,194.669510  M569.895569,246.417770   C565.202759,262.221649 563.245117,278.290802 565.006226,294.759094   C567.746460,320.382538 589.316040,330.343231 610.396057,315.430389   C615.373840,311.908875 620.194397,307.741425 623.918091,302.960510   C631.362488,293.402679 637.997192,283.214355 644.968323,273.287781   C645.722534,272.213837 646.490601,271.149597 647.252319,270.080841   C648.084534,273.821808 647.643311,277.081696 647.521729,280.353485   C647.250061,287.663361 646.666504,295.006470 647.088745,302.285065   C647.539551,310.056091 651.012878,316.482880 658.915405,319.214752   C669.102783,322.736389 678.621460,320.814880 687.275879,314.659485   C688.219727,313.988220 688.968140,311.695038 688.550964,310.660675   C682.843140,296.504944 683.793152,281.873505 685.538147,267.295105   C689.038879,238.048141 694.088501,209.113495 705.246338,180.965118   C691.797852,176.240494 678.655090,171.531738 665.662415,181.818954   C656.362671,176.019897 646.296143,173.842194 635.528320,174.616623   C618.155457,175.866074 605.356995,185.147690 594.869202,198.157867   C583.464722,212.305206 575.590027,228.371429 569.895569,246.417770  M124.913475,148.780533   C121.036072,142.421295 115.247871,139.817978 107.997383,140.513626   C97.252487,141.544556 88.190910,146.585266 80.471825,151.856537   C83.830864,160.958801 87.844398,169.246628 89.949020,177.993759   C98.261719,212.542603 101.163773,247.914169 105.026009,283.133392   C106.131393,293.213318 107.433891,303.292328 109.204185,313.272766   C110.951736,323.124939 116.326439,326.580383 126.037605,324.462799   C130.217590,323.551300 134.267136,321.916199 138.247314,320.294250   C139.368347,319.837433 140.417007,318.397156 140.844437,317.178467   C143.143021,310.624573 144.551071,303.672668 147.512543,297.451233   C163.637100,263.576843 183.946442,232.145462 204.544174,200.886307   C213.325363,187.559982 221.895538,174.083282 230.154236,160.428528   C234.548676,153.162888 232.464172,146.970322 224.495300,144.059784   C218.973831,142.043167 212.893875,141.465836 207.009277,140.624237   C206.058929,140.488312 204.325302,142.113602 203.810547,143.297363   C201.693146,148.166702 200.091934,153.260788 197.968475,158.127182   C182.212494,194.235535 161.487106,227.543884 140.099594,260.472778   C139.886658,260.800659 139.390045,260.944305 138.766312,261.337677   C138.536880,260.488678 138.276993,259.891968 138.223724,259.277344   C136.139709,235.229858 134.460983,211.138702 131.849442,187.149017   C130.472427,174.499771 127.472092,162.027237 124.913475,148.780533  M346.399872,141.826813   C334.381836,138.371841 323.192780,141.817505 313.425568,144.995636   C313.425568,153.824219 314.588531,161.879669 313.226135,169.482574   C307.010864,204.167053 299.872498,238.685379 293.542633,273.350494   C291.553650,284.243042 290.526794,295.385681 290.073364,306.455383   C289.816071,312.737244 293.974915,317.350586 300.142609,319.315613   C312.168243,323.146942 322.841339,319.648315 333.307648,313.177582   C327.264160,304.665833 325.818604,295.452026 327.547302,286.074463   C333.692474,252.738724 340.214294,219.472031 346.684845,186.196945   C348.743256,175.611526 351.313751,165.121948 353.202759,154.508911   C354.138245,149.253052 352.564758,144.554779 346.399872,141.826813  M267.936127,224.435806   C270.453369,212.918716 273.347900,201.466766 275.351959,189.861069   C276.635010,182.431046 273.109924,177.780380 265.849670,176.525848   C254.733688,174.605042 244.183334,177.255035 233.602081,181.333755   C237.840973,190.182861 237.027054,199.086609 235.428406,207.732864   C231.803406,227.338699 227.212738,246.768097 223.702896,266.392334   C221.456543,278.952087 220.022171,291.699249 219.036636,304.425354   C218.509689,311.229523 222.043152,316.746185 228.852463,319.106964   C241.010284,323.322052 251.830780,319.711456 262.254791,313.387329   C256.508148,302.582550 254.989655,297.991760 256.849915,286.066223   C260.023346,265.722107 264.085327,245.516602 267.936127,224.435806  M284.130157,143.491028   C286.235779,133.699432 282.832062,128.345978 273.367065,127.267914   C264.235474,126.227814 255.696243,128.807098 248.510651,131.471634   C247.688934,138.040680 247.030914,143.567596 246.298096,149.084595   C245.561462,154.630249 247.567642,157.773560 252.995834,158.869080   C255.589661,159.392563 258.296967,159.669617 260.938446,159.588516   C275.202515,159.150650 280.609161,155.503754 284.130157,143.491028  z"
   id="path15" />
<path
   fill="#FFFDFD"
   opacity="1.000000"
   stroke="none"
   d=" M482.077087,195.137543   C480.646088,206.365875 479.209808,217.126175 477.610352,229.108765   C479.127808,226.973480 480.058502,225.583847 481.068817,224.254745   C490.215088,212.222488 498.911713,199.805618 508.702026,188.321472   C514.757812,181.217957 522.831482,176.155014 532.558777,174.778885   C546.790710,172.765472 555.950378,179.830399 554.950195,194.111801   C553.979065,207.978256 550.798401,221.696884 548.461487,235.458954   C545.787537,251.206207 542.774902,266.898346 540.285583,282.673767   C538.372620,294.796021 539.641052,301.196136 545.241760,313.506714   C536.551697,318.746918 527.545410,322.459930 517.050049,320.182861   C510.000793,318.653442 505.117493,314.497833 505.133484,307.370056   C505.159882,295.622192 505.844879,283.754913 507.663361,272.159271   C510.677399,252.939941 514.914368,233.914780 518.361755,214.758453   C518.869507,211.937042 517.872070,208.844788 517.571045,205.877838   C515.003479,207.424088 511.635071,208.379028 509.990540,210.606659   C490.146484,237.486740 472.351807,265.553497 463.865021,298.345825   C462.296631,304.405914 463.112885,311.083130 462.795502,318.217529   C455.628876,320.096130 447.401245,321.911774 438.863495,320.278503   C431.524658,318.874542 428.014221,315.070160 429.019867,307.747437   C430.623596,296.069519 433.209351,284.524200 435.450623,272.936523   C439.114685,253.992630 442.854065,235.063278 446.504913,216.116852   C446.880646,214.167068 447.127747,212.120651 446.956635,210.160828   C446.827850,208.686035 446.238525,206.385468 445.302887,206.065674   C444.126038,205.663452 442.163055,206.604736 440.944641,207.511124   C439.232849,208.784531 437.683777,210.406937 436.427155,212.142242   C418.892792,236.356293 403.537140,261.787231 393.703156,290.202972   C390.628296,299.087830 388.961945,308.201172 392.106659,317.887665   C383.240662,320.101196 374.695221,322.034790 365.797180,320.108887   C358.718231,318.576721 355.136230,314.601685 355.771698,307.453888   C356.431213,300.035767 357.980988,292.678619 359.431732,285.352295   C365.018585,257.138123 370.947388,228.988968 376.208008,200.714966   C377.387939,194.373138 376.381287,187.624466 376.381287,180.295975   C383.527100,177.679886 391.955719,175.384689 400.923492,176.038193   C408.806335,176.612625 413.742126,181.225311 412.764526,189.076630   C411.293396,200.891434 408.471619,212.537857 406.239288,224.258774   C406.154602,224.703293 406.228485,225.178024 406.228485,227.177582   C407.977051,225.009781 408.999939,223.802994 409.956635,222.545898   C418.608337,211.178040 426.695709,199.313156 436.126862,188.634689   C440.793427,183.350983 447.460632,179.122482 454.041290,176.383087   C469.745758,169.845566 481.215271,177.737167 482.077087,195.137543  z"
   id="path16" />
<path
   fill="#FFFDFD"
   opacity="1.000000"
   stroke="none"
   d=" M569.979248,246.022858   C575.590027,228.371429 583.464722,212.305206 594.869202,198.157867   C605.356995,185.147690 618.155457,175.866074 635.528320,174.616623   C646.296143,173.842194 656.362671,176.019897 665.662415,181.818954   C678.655090,171.531738 691.797852,176.240494 705.246338,180.965118   C694.088501,209.113495 689.038879,238.048141 685.538147,267.295105   C683.793152,281.873505 682.843140,296.504944 688.550964,310.660675   C688.968140,311.695038 688.219727,313.988220 687.275879,314.659485   C678.621460,320.814880 669.102783,322.736389 658.915405,319.214752   C651.012878,316.482880 647.539551,310.056091 647.088745,302.285065   C646.666504,295.006470 647.250061,287.663361 647.521729,280.353485   C647.643311,277.081696 648.084534,273.821808 647.252319,270.080841   C646.490601,271.149597 645.722534,272.213837 644.968323,273.287781   C637.997192,283.214355 631.362488,293.402679 623.918091,302.960510   C620.194397,307.741425 615.373840,311.908875 610.396057,315.430389   C589.316040,330.343231 567.746460,320.382538 565.006226,294.759094   C563.245117,278.290802 565.202759,262.221649 569.979248,246.022858  M648.806885,235.300034   C651.497681,229.961136 654.250916,224.652542 656.864014,219.275894   C660.356995,212.088806 660.310303,212.066116 654.691162,206.214981   C640.494446,191.432083 627.652466,192.956741 618.629639,211.357513   C608.261292,232.502426 602.696594,254.992111 603.058289,278.715454   C603.095764,281.173431 603.529541,283.718628 604.297485,286.052979   C605.954468,291.090088 609.925659,292.271088 613.845581,288.702850   C616.895874,285.926239 619.881958,282.846375 622.048706,279.372437   C631.012512,265.000671 639.653870,250.427780 648.806885,235.300034  z"
   id="path17" />
<path
   fill="#FFFDFD"
   opacity="1.000000"
   stroke="none"
   d=" M125.059097,149.127716   C127.472092,162.027237 130.472427,174.499771 131.849442,187.149017   C134.460983,211.138702 136.139709,235.229858 138.223724,259.277344   C138.276993,259.891968 138.536880,260.488678 138.766312,261.337677   C139.390045,260.944305 139.886658,260.800659 140.099594,260.472778   C161.487106,227.543884 182.212494,194.235535 197.968475,158.127182   C200.091934,153.260788 201.693146,148.166702 203.810547,143.297363   C204.325302,142.113602 206.058929,140.488312 207.009277,140.624237   C212.893875,141.465836 218.973831,142.043167 224.495300,144.059784   C232.464172,146.970322 234.548676,153.162888 230.154236,160.428528   C221.895538,174.083282 213.325363,187.559982 204.544174,200.886307   C183.946442,232.145462 163.637100,263.576843 147.512543,297.451233   C144.551071,303.672668 143.143021,310.624573 140.844437,317.178467   C140.417007,318.397156 139.368347,319.837433 138.247314,320.294250   C134.267136,321.916199 130.217590,323.551300 126.037605,324.462799   C116.326439,326.580383 110.951736,323.124939 109.204185,313.272766   C107.433891,303.292328 106.131393,293.213318 105.026009,283.133392   C101.163773,247.914169 98.261719,212.542603 89.949020,177.993759   C87.844398,169.246628 83.830864,160.958801 80.471825,151.856537   C88.190910,146.585266 97.252487,141.544556 107.997383,140.513626   C115.247871,139.817978 121.036072,142.421295 125.059097,149.127716  z"
   id="path18" />
<path
   fill="#FFFDFD"
   opacity="1.000000"
   stroke="none"
   d=" M346.772034,141.945984   C352.564758,144.554779 354.138245,149.253052 353.202759,154.508911   C351.313751,165.121948 348.743256,175.611526 346.684845,186.196945   C340.214294,219.472031 333.692474,252.738724 327.547302,286.074463   C325.818604,295.452026 327.264160,304.665833 333.307648,313.177582   C322.841339,319.648315 312.168243,323.146942 300.142609,319.315613   C293.974915,317.350586 289.816071,312.737244 290.073364,306.455383   C290.526794,295.385681 291.553650,284.243042 293.542633,273.350494   C299.872498,238.685379 307.010864,204.167053 313.226135,169.482574   C314.588531,161.879669 313.425568,153.824219 313.425568,144.995636   C323.192780,141.817505 334.381836,138.371841 346.772034,141.945984  z"
   id="path19" />
<path
   fill="#FFFDFD"
   opacity="1.000000"
   stroke="none"
   d=" M267.855072,224.844330   C264.085327,245.516602 260.023346,265.722107 256.849915,286.066223   C254.989655,297.991760 256.508148,302.582550 262.254791,313.387329   C251.830780,319.711456 241.010284,323.322052 228.852463,319.106964   C222.043152,316.746185 218.509689,311.229523 219.036636,304.425354   C220.022171,291.699249 221.456543,278.952087 223.702896,266.392334   C227.212738,246.768097 231.803406,227.338699 235.428406,207.732864   C237.027054,199.086609 237.840973,190.182861 233.602081,181.333755   C244.183334,177.255035 254.733688,174.605042 265.849670,176.525848   C273.109924,177.780380 276.635010,182.431046 275.351959,189.861069   C273.347900,201.466766 270.453369,212.918716 267.855072,224.844330  z"
   id="path20" />
<path
   fill="#FEFBFB"
   opacity="1.000000"
   stroke="none"
   d=" M284.061829,143.897949   C280.609161,155.503754 275.202515,159.150650 260.938446,159.588516   C258.296967,159.669617 255.589661,159.392563 252.995834,158.869080   C247.567642,157.773560 245.561462,154.630249 246.298096,149.084595   C247.030914,143.567596 247.688934,138.040680 248.510651,131.471634   C255.696243,128.807098 264.235474,126.227814 273.367065,127.267914   C282.832062,128.345978 286.235779,133.699432 284.061829,143.897949  z"
   id="path21" />
<path
   fill="#CF142F"
   opacity="1.000000"
   stroke="none"
   d=" M648.610229,235.614410   C639.653870,250.427780 631.012512,265.000671 622.048706,279.372437   C619.881958,282.846375 616.895874,285.926239 613.845581,288.702850   C609.925659,292.271088 605.954468,291.090088 604.297485,286.052979   C603.529541,283.718628 603.095764,281.173431 603.058289,278.715454   C602.696594,254.992111 608.261292,232.502426 618.629639,211.357513   C627.652466,192.956741 640.494446,191.432083 654.691162,206.214981   C660.310303,212.066116 660.356995,212.088806 656.864014,219.275894   C654.250916,224.652542 651.497681,229.961136 648.610229,235.614410  z"
   id="path22" />
</svg>
